# Wavafront OBJ file of BodyParts3D
# BodyParts3D, Copyright(C) 2010-2011 The Database Center for Life Science licensed under CC Attribution-Share Alike 2.1 Japan.
vn -0.845921 0.441237 0.299546
v -148.952 -60.5431 1361.88
vn -0.932277 0.333985 -0.138975
v -148.592 -59.5243 1359.92
vn -0.644072 0.292374 0.706886
v -148.79 -61.3987 1362.76
vn -0.859422 0.453592 -0.235898
v -146.593 -56.6391 1356.43
vn -0.851662 0.149323 -0.502369
v -146.803 -57.359 1356.36
vn -0.800433 0.579185 0.15444
v -147.537 -57.7458 1360
vn -0.560518 0.522707 0.642337
v -147.832 -59.5319 1362.35
vn -0.780804 0.560229 -0.276566
v -143.903 -52.9986 1354.46
vn -0.703966 0.687369 0.178762
v -145.067 -54.564 1359.54
vn -0.581667 0.6608 0.474348
v -143.921 -54.2721 1360.93
vn -0.553013 0.751139 0.36051
v -143.437 -53.359 1359.96
vn -0.635682 0.463344 -0.61743
v -142.627 -52.1774 1353.36
vn -0.647527 0.734314 -0.203695
v -141.977 -51.1796 1353.9
vn -0.528265 0.807766 0.261631
v -141.459 -51.1341 1357.91
vn -0.610449 0.790304 0.0526483
v -141.293 -50.6407 1355.4
vn -0.445746 0.633462 0.632484
v -141.948 -53.4052 1361.74
vn -0.455576 0.862303 -0.221097
v -140.466 -50.0863 1353.82
vn -0.465344 0.881386 0.0813244
v -140.024 -49.792 1355.32
vn -0.826525 -0.157814 -0.540324
v -149.508 -67.1016 1361.07
vn -0.961886 0.129982 0.240582
v -150.033 -64.3266 1362.04
vn -0.549143 0.0399696 0.834772
v -148.794 -64.9336 1363.41
vn -0.981168 -0.136625 -0.136537
v -149.929 -66.2915 1361.76
vn -0.860251 -0.094549 0.501027
v -149.633 -66.9437 1362.64
vn -0.859488 -0.0295579 -0.510301
v -149.588 -63.4782 1360.62
vn -0.341446 0.238191 0.90922
v -147.739 -61.7369 1363.39
vn -0.635435 -0.137378 -0.759835
v -145.494 -57.779 1354.83
vn -0.494602 -0.277985 -0.823464
v -145.996 -60.0881 1356.16
vn -0.739784 0.224554 -0.634268
v -144.246 -54.8077 1353.76
vn -0.41884 0.000372947 -0.90806
v -142.647 -54.3052 1352.51
vn -0.283048 -0.373871 -0.883235
v -143.565 -56.9122 1353.45
vn 0.0318499 -0.404539 -0.913966
v -141.884 -55.7796 1352.78
vn -0.429186 0.684905 -0.588816
v -140.511 -50.8238 1352.71
vn -0.538462 0.389204 -0.747382
v -141.247 -52.1685 1352.37
vn 0.0308165 -0.162797 -0.986178
v -140.895 -53.9461 1352.28
vn -0.228186 0.319051 0.919858
v -138.98 -57.0519 1364.65
vn -0.233998 0.846528 -0.478158
v -136.758 -48.8565 1353.74
vn -0.0442904 0.546075 -0.836564
v -136.165 -49.4716 1352.93
vn 0.093241 0.0403362 -0.994826
v -136.962 -51.52 1352.34
vn -0.382555 0.754161 0.533754
v -137.71 -50.5829 1361.46
vn -0.25386 0.542312 0.800908
v -137.654 -52.0335 1362.82
vn -0.125735 0.419717 0.898904
v -135.183 -53.085 1363.87
vn 0.175573 0.230902 -0.957005
v -134.424 -49.9006 1352.91
vn -0.297043 0.950306 -0.0931849
v -135.522 -47.9295 1355.9
vn -0.100118 0.873672 -0.476102
v -134.426 -48.1162 1354.18
vn -0.105416 0.992476 -0.0622864
v -132.645 -47.2774 1356.06
vn 0.10769 0.631574 -0.7678
v -133.553 -48.5405 1353.66
vn -0.288734 0.917107 0.274858
v -134.627 -48.0537 1359.32
vn -0.163161 0.740572 0.651867
v -133.836 -48.8156 1361.14
vn -0.0772782 0.558982 0.825571
v -133.696 -50.3516 1362.44
vn 0.0170483 0.627644 0.778314
v -131.245 -49.2876 1361.69
vn 0.132216 0.910885 -0.390906
v -130.981 -47.3359 1355.79
vn -0.069654 0.976692 0.203027
v -131.713 -47.3889 1358.45
vn 0.0315629 0.869624 0.492705
v -131.048 -47.9854 1360.31
vn -0.824019 -0.490886 -0.282886
v -148.741 -70.2249 1362.06
vn -0.843221 -0.483708 0.23453
v -148.704 -70.3299 1362.55
vn -0.713277 -0.25095 -0.654416
v -148.237 -68.4056 1359.95
vn -0.660829 -0.437237 -0.610023
v -147.795 -69.4116 1359.98
vn -0.566364 -0.291583 -0.770851
v -146.032 -68.5386 1358.01
vn -0.948207 -0.293017 0.122653
v -149.39 -68.7989 1362.36
vn -0.85931 -0.314697 -0.403177
v -149.308 -68.435 1361.37
vn -0.742879 -0.198638 0.639276
v -149.159 -68.7113 1362.84
vn -0.687057 -0.40665 0.602153
v -148.462 -70.2314 1363.04
vn -0.481181 -0.207473 0.851716
v -148.018 -69.9769 1363.52
vn -0.670782 -0.145188 -0.727305
v -147.141 -64.5806 1357.89
vn -0.2311 -0.238958 -0.943129
v -145.409 -67.7578 1357.43
vn -0.285513 0.0173145 0.958218
v -143.827 -67.0635 1365.41
vn -0.0841037 -0.417655 -0.904705
v -142.944 -59.6367 1355.08
vn -0.172031 0.106587 0.979308
v -141.651 -64.9924 1365.67
vn 0.0766633 -0.404472 -0.911331
v -140.831 -58.9308 1354.88
vn 0.136812 -0.273037 -0.952226
v -135.271 -55.3254 1353.92
vn -0.0102879 0.418617 0.908105
v -132.617 -53.5348 1364.26
vn 0.288808 0.405689 -0.867183
v -130.991 -48.9872 1354.03
vn 0.259182 -0.0460254 -0.964731
v -132.511 -51.0179 1353.39
vn 0.387018 0.742906 -0.546176
v -127.385 -48.1928 1356.14
vn 0.0859211 0.987531 0.131911
v -129.593 -47.3572 1358.13
vn 0.241067 0.969296 -0.0484962
v -128.498 -47.5101 1357.43
vn 0.224195 0.935229 0.274013
v -127.623 -48.0179 1359.26
vn 0.374698 0.926851 0.0234418
v -126.162 -48.2357 1357.99
vn 0.296788 0.868225 0.397621
v -125.977 -48.9451 1360.42
vn 0.128717 0.644487 0.753703
v -126.179 -50.1298 1362.02
vn -0.645984 -0.612882 -0.455062
v -147.438 -71.692 1361.66
vn -0.71137 -0.686488 -0.15062
v -147.501 -71.8959 1362.15
vn -0.625206 -0.721914 0.296576
v -147.42 -71.9569 1362.64
vn -0.476602 -0.502044 0.721666
v -147.119 -71.7994 1363.13
vn -0.365071 -0.687768 0.627454
v -146.779 -72.1523 1363.03
vn -0.512993 -0.826954 -0.230184
v -146.253 -72.7281 1361.85
vn -0.4201 -0.463473 -0.780198
v -144.568 -70.7232 1358.16
vn -0.190434 -0.712759 -0.675063
v -143.906 -71.6217 1358.57
vn -0.129414 -0.434025 -0.891557
v -143.202 -70.689 1357.74
vn -0.372276 -0.916899 0.143899
v -145.715 -73.0365 1362.23
vn -0.425664 -0.721324 -0.546354
v -145.554 -72.3002 1360.27
vn -0.284983 -0.914843 -0.28609
v -145.255 -73.1179 1361.64
vn -0.226882 -0.260954 0.938311
v -142.375 -70.6591 1365.45
vn -0.0193632 -0.113525 -0.993346
v -129.848 -55.818 1354.29
vn 0.142448 0.0927723 -0.985445
v -128.388 -53.7343 1354.54
vn 0.323608 0.246552 -0.913504
v -126.474 -50.6748 1355.44
vn 0.451188 0.877507 -0.162516
v -122.192 -50.2418 1358.64
vn -0.116288 -0.875763 -0.468526
v -140.4 -74.1462 1361.77
vn -0.137409 -0.990094 -0.0288388
v -140.024 -74.5071 1362.69
vn -0.206608 -0.593527 0.777842
v -141.784 -72.6931 1364.58
vn -0.180848 -0.864517 0.468939
v -140.218 -74.3496 1363.25
vn 0.0212562 -0.417443 0.908454
v -135.865 -72.2462 1365.87
vn 0.00272636 -0.285725 -0.958308
v -139.437 -68.1155 1356.71
vn -0.0484006 -0.0458572 0.997775
v -133.95 -66.3449 1366.86
vn 0.0269959 -0.146822 0.988794
v -128.988 -65.6746 1366.58
vn -0.0314453 0.145183 0.988905
v -128.282 -59.9912 1366.68
vn -0.0603868 0.21576 -0.974577
v -124.511 -56.945 1354.07
vn 0.0846438 0.301841 0.949593
v -125.149 -58.19 1366.17
vn 0.0236315 0.513667 -0.857664
v -121.762 -55.4517 1354.29
vn 0.159596 0.355305 -0.921025
v -123.935 -52.5221 1355.61
vn 0.135779 0.47569 0.86907
v -121.466 -54.6672 1364.05
vn 0.350222 0.611584 -0.709443
v -122.321 -51.2846 1356.83
vn 0.0318158 -0.989157 -0.143374
v -135.024 -74.5771 1361.91
vn -0.018063 -0.748779 0.662574
v -136.415 -73.8481 1364.57
vn 0.0256636 -0.95015 0.310736
v -135.835 -74.4257 1363.58
vn 0.181246 -0.863072 0.471442
v -134.031 -74.1383 1363.78
vn -0.0246719 -0.677126 -0.735453
v -134.752 -72.7933 1359.13
vn -0.0309824 -0.868187 -0.495269
v -133.746 -73.7859 1360.29
vn -0.053527 -0.293591 -0.954431
v -128.221 -66.6276 1357.58
vn 0.145104 0.769833 -0.621531
v -118.447 -53.6916 1356.06
vn 0.270012 0.664992 0.696333
v -117.181 -53.5206 1362.29
vn 0.313901 0.912266 -0.263129
v -116.324 -53.0328 1358.88
vn 0.403817 0.87442 0.268927
v -113.324 -54.3069 1360.8
vn 0.0696512 -0.997565 0.00369789
v -131.9 -74.2397 1361.47
vn 0.128405 -0.828589 0.544933
v -130.463 -73.7878 1362.33
vn -0.0751206 -0.910835 -0.405877
v -127.911 -73.9878 1360.38
vn -0.0572045 -0.490087 -0.869795
v -126.949 -73.0465 1359.34
vn -0.0853566 -0.739828 0.667359
v -126.368 -73.3724 1362.46
vn 0.101261 -0.524868 0.845139
v -126.241 -69.1727 1365.73
vn -0.0712008 -0.495085 0.865922
v -122.778 -69.1122 1365.86
vn -0.0836545 0.63631 -0.766885
v -116.769 -56.2479 1353.25
vn -0.197224 0.693453 -0.692983
v -113.067 -56.0696 1352.86
vn -0.192051 0.524548 -0.829437
v -112.948 -56.5659 1352.5
vn -0.0352285 0.889962 -0.454672
v -113.687 -55.0399 1354.63
vn 0.203814 0.35746 0.911418
v -112.175 -59.2387 1364.44
vn 0.351473 0.537242 0.766706
v -110.925 -57.6809 1363.3
vn -0.202669 0.708299 -0.676194
v -112.048 -55.7494 1352.75
vn 0.163599 0.967952 -0.190539
v -112.586 -54.5139 1356.57
vn 0.126564 0.962015 -0.241884
v -110.429 -55.1176 1353.61
vn 0.412272 0.72208 0.555547
v -112.121 -55.608 1361.97
vn -0.194882 -0.720937 -0.665034
v -124.91 -74.184 1359.89
vn -0.160388 -0.417929 -0.89421
v -123.663 -73.3269 1359.12
vn -0.0106353 -0.924215 0.381723
v -126.475 -73.9725 1361.69
vn -0.297742 -0.844632 -0.444911
v -123.911 -74.7382 1360.68
vn -0.137302 -0.565805 0.813027
v -120.374 -71.5695 1364.27
vn 0.110946 0.0809894 0.990521
v -113.324 -66.5709 1366.06
vn -0.201095 -0.28522 -0.937129
v -113.865 -62.8023 1353.6
vn 0.21512 0.839324 -0.499258
v -107.877 -56.3022 1351.52
vn -0.27193 0.116684 -0.955217
v -108.601 -57.4405 1350.51
vn -0.0088635 0.523758 -0.851821
v -108.236 -57.0968 1350.56
vn 0.481691 0.774776 0.409508
v -107.6 -56.9098 1359.56
vn 0.351144 0.93597 0.0256671
v -107.482 -55.9446 1356.61
vn 0.505818 0.829424 0.237075
v -105.543 -56.9227 1356.69
vn -0.303339 -0.539921 -0.785157
v -120.509 -75.2213 1359.07
vn -0.390058 -0.684625 -0.615746
v -118.723 -76.3513 1359.15
vn -0.333664 -0.841235 0.425431
v -119.954 -76.3338 1360.36
vn -0.243329 -0.661399 0.709466
v -118.97 -75.8804 1361.65
vn -0.238862 -0.543705 0.804568
v -117.001 -75.0012 1362.84
vn -0.153353 -0.243078 -0.957808
v -118.241 -70.3111 1357.24
vn -0.19549 -0.51484 0.8347
v -114.579 -72.4359 1364.72
vn -0.164675 -0.285042 -0.944263
v -113.012 -68.4998 1356.4
vn -0.0884243 -0.289472 0.953094
v -113.337 -70.8246 1365.86
vn 0.0696249 0.0112308 -0.99751
v -107.543 -57.7998 1350.4
vn 0.357319 0.386282 -0.850358
v -107.159 -57.4728 1350.58
vn 0.581437 0.615811 -0.531704
v -106.607 -57.1124 1351.21
vn -0.104937 -0.304749 -0.946634
v -108.517 -59.6468 1350.99
vn 0.301239 -0.19258 -0.933899
v -106.782 -58.562 1350.67
vn 0.651933 0.0691011 -0.755121
v -106.4 -58.2335 1350.84
vn 0.179977 -0.298767 -0.937201
v -107.039 -60.4215 1351.27
vn 0.421187 -0.206354 -0.883187
v -106.423 -59.8291 1351.33
vn 0.77327 0.429446 -0.466508
v -105.371 -57.6906 1352.48
vn 0.693695 0.0778101 -0.716054
v -105.521 -59.0997 1351.88
vn 0.725543 0.359884 -0.586575
v -103.944 -59.2359 1353.58
vn 0.552707 0.682462 0.478289
v -103.179 -60.8214 1360.9
vn 0.544793 0.829095 -0.125708
v -105.477 -56.8403 1354.14
vn 0.681683 0.713795 0.160643
v -104.705 -57.472 1356.49
vn 0.775519 0.606953 -0.173718
v -103.395 -58.7901 1355.6
vn -0.31909 -0.273131 -0.907514
v -113.894 -76.8245 1357.41
vn -0.00136288 -0.290215 -0.956961
v -105.772 -63.8074 1352.44
vn 0.373009 0.100662 -0.922351
v -104.382 -62.3737 1352.22
vn 0.571021 0.384953 -0.725083
v -102.913 -62.4197 1352.99
vn 0.775325 0.629743 -0.0478963
v -101.976 -60.5665 1356.67
vn 0.748726 0.524838 -0.404913
v -101.822 -61.3488 1355.01
vn 0.540161 0.491728 0.682957
v -101.037 -64.1259 1362.29
vn 0.335824 0.292752 0.895275
v -101.936 -65.3279 1363.39
vn -0.519356 -0.718938 -0.46195
v -114.801 -78.9533 1359.21
vn -0.47068 -0.767937 0.434434
v -113.72 -79.6855 1360.48
vn -0.290169 -0.174687 -0.940897
v -101.973 -68.3252 1353.76
vn 0.0686203 -0.054205 -0.996169
v -100.856 -65.9216 1352.7
vn -0.179569 -0.341121 -0.922709
v -101.39 -66.798 1352.94
vn 0.793623 0.555987 -0.247064
v -99.5806 -63.7095 1355.87
vn 0.793201 0.604099 0.0767882
v -99.2117 -63.9093 1357.83
vn 0.767499 0.532491 0.35693
v -99.6236 -64.4762 1360.88
vn 0.881364 0.470913 0.0379256
v -98.0002 -65.8575 1357.89
vn 0.632632 0.284088 0.720466
v -98.7687 -68.4735 1362.76
vn -0.599419 -0.588052 -0.543039
v -110.892 -81.2582 1358.2
vn -0.569775 -0.728218 0.38086
v -109.2 -83.4817 1359.27
vn -0.321265 -0.480382 0.816101
v -105.877 -79.8301 1362.94
vn -0.304758 -0.409582 0.859864
v -103.463 -78.6789 1364.72
vn -0.0328808 -0.181928 0.982762
v -103.001 -76.999 1365.44
vn 0.34435 0.145008 0.927575
v -99.8781 -75.8997 1364.84
vn 0.521834 0.355619 -0.775387
v -98.8614 -67.2156 1353.09
vn -0.0492731 -0.0360994 -0.998133
v -99.2525 -68.2465 1352.84
vn 0.837662 0.465866 -0.285118
v -96.6367 -69.0674 1354.69
vn -0.409594 -0.549239 0.728402
v -107.574 -84.2213 1359.94
vn -0.631029 -0.420248 -0.652069
v -107.793 -84.5628 1357.88
vn -0.285145 -0.13916 -0.948329
v -100.098 -79.4462 1354
vn -0.20905 -0.078827 -0.974723
v -97.8489 -74.6423 1352.48
vn 0.635233 0.299312 0.711963
v -97.8029 -74.8367 1363.27
vn 0.741384 0.348167 -0.573698
v -96.2061 -71.1163 1353.32
vn 0.910494 0.367832 -0.188944
v -94.4809 -73.5615 1355.28
vn -0.201158 0.0666045 -0.977292
v -101.658 -86.3703 1355.29
vn -0.0774992 -0.122483 -0.98944
v -96.6784 -78.6543 1353
vn 0.195408 -0.031322 0.980222
v -97.4092 -81.2397 1364.46
vn 0.314107 0.0545115 -0.947821
v -95.7033 -75.3869 1352.46
vn 0.778031 0.246496 -0.577848
v -94.511 -75.1475 1353.54
vn 0.282653 -0.0332056 -0.958647
v -94.7785 -78.4375 1353.13
vn 0.588108 0.0732678 -0.805457
v -93.8555 -77.9394 1353.57
vn 0.872534 0.449492 0.19142
v -92.4519 -78.1986 1358.42
vn -0.78393 -0.576051 -0.231557
v -101.424 -92.1844 1356.37
vn -0.656264 -0.583633 0.478216
v -101.229 -92.2733 1357.35
vn -0.641227 -0.271935 -0.717551
v -100.614 -91.6925 1354.95
vn -0.375881 -0.454968 0.80729
v -99.8594 -88.0506 1362.31
vn 0.0636575 0.0309486 -0.997492
v -94.8703 -81.1878 1353.06
vn -0.246008 -0.169336 -0.954361
v -94.848 -82.6289 1353.16
vn 0.202612 0.193182 -0.960015
v -93.4318 -81.9282 1353.08
vn 0.432572 0.144956 -0.88987
v -93.73 -79.4872 1353.54
vn 0.788893 0.305227 -0.53337
v -92.9348 -78.9255 1354.31
vn 0.547505 0.347184 -0.761382
v -92.0222 -81.9162 1353.77
vn 0.720038 0.442478 0.534563
v -90.6039 -82.8737 1361.07
vn -0.399198 0.0213799 -0.916616
v -99.304 -91.6095 1354.17
vn -0.0411897 0.326627 -0.944255
v -96.577 -92.9585 1353.25
vn -0.458964 -0.459377 0.760476
v -97.3628 -92.8795 1360.25
vn -0.242956 -0.371648 0.896019
v -94.8821 -91.6526 1361.99
vn -0.292715 -0.150012 -0.944359
v -94.3592 -85.9483 1353.92
vn 0.571081 0.280916 0.771332
v -89.8913 -86.0319 1362.04
vn 0.782969 0.43024 0.449281
v -88.2641 -86.0717 1360.28
vn 0.367461 0.0831169 0.926317
v -89.8224 -88.2247 1362.42
vn 0.769482 0.510035 -0.384398
v -89.7715 -83.2521 1355.28
vn -0.780819 -0.611089 0.129967
v -98.1499 -96.401 1357.34
vn -0.572092 -0.505797 0.645663
v -97.6881 -96.226 1358.31
vn -0.475474 -0.489474 0.730985
v -94.671 -98.3458 1358.58
vn -0.134088 0.0797011 -0.987759
v -91.1768 -93.4303 1353.46
vn 0.200106 -0.090692 0.975568
v -88.7865 -92.1183 1362.07
vn -0.202868 -0.0731289 -0.976472
v -89.1737 -89.7851 1352.64
vn 0.562628 0.193891 0.803651
v -86.7724 -90.6151 1361.25
vn -0.584866 -0.120339 -0.802153
v -95.2913 -97.829 1352.17
vn -0.267666 0.219992 -0.938061
v -93.3122 -98.4272 1351.07
vn -0.818872 -0.571686 -0.0512158
v -94.656 -100.79 1354.67
vn 0.228466 0.455978 -0.860167
v -90.3058 -97.8897 1352.02
vn -0.0199065 -0.242956 0.969833
v -89.5832 -95.5891 1361.44
vn -0.00498092 0.108399 -0.994095
v -85.653 -93.3466 1352.17
vn 0.488028 0.392564 -0.779565
v -84.6595 -92.9184 1352.67
vn 0.795371 0.377558 0.474167
v -84.7145 -92.4912 1359.88
vn 0.859067 0.507469 0.066933
v -84.1008 -91.583 1356.34
vn -0.789714 -0.390093 -0.473475
v -93.3813 -101.578 1351.82
vn -0.569579 -0.00459381 -0.821924
v -92.0992 -101.09 1350.15
vn -0.187132 0.353001 -0.916718
v -91.651 -100.121 1350.19
vn -0.688955 -0.175139 -0.703326
v -90.7197 -103.202 1349.14
vn -0.403654 0.137721 -0.904487
v -90.4094 -102.82 1348.88
vn -0.845079 -0.530678 -0.0649823
v -91.8297 -104.602 1352.7
vn -0.778301 -0.590743 0.212769
v -91.4352 -104.918 1355.15
vn -0.661489 -0.599031 0.451215
v -92.8919 -102.506 1356.72
vn -0.468319 -0.478231 0.742949
v -90.4321 -103.393 1358.26
vn -0.630662 -0.574852 0.521354
v -90.3396 -105.087 1357
vn 0.134331 0.502473 -0.854093
v -90.9332 -100.134 1350.2
vn 0.439973 0.046899 0.896785
v -84.3601 -95.9052 1360.51
vn 0.642805 0.191947 0.741591
v -83.3765 -96.1991 1359.92
vn 0.0230447 0.430239 -0.902421
v -89.7199 -102.809 1348.71
vn -0.828382 -0.408717 -0.383058
v -90.9896 -105.273 1350.44
vn 0.366407 0.51477 -0.775086
v -88.2881 -103.55 1348.72
vn -0.437234 -0.0322142 -0.89877
v -88.7477 -105.225 1347.99
vn -0.0164468 0.288091 -0.957462
v -88.3973 -104.869 1347.95
vn 0.255987 0.360812 -0.89682
v -87.6991 -105.576 1347.82
vn -0.25232 -0.396229 0.882801
v -87.7565 -103.871 1359.13
vn 0.0178808 0.268818 -0.963025
v -86.0619 -100.759 1351.62
vn 0.186391 0.256541 -0.948391
v -82.1485 -99.0262 1351.53
vn 0.804865 0.554882 -0.210472
v -80.1714 -98.44 1353.78
vn -0.818287 -0.462181 -0.341754
v -87.6763 -111.096 1349.65
vn -0.814633 -0.576719 0.0613932
v -87.8898 -111.183 1351.71
vn -0.727062 -0.597099 0.338901
v -87.3045 -111.168 1353.66
vn -0.0924938 0.102365 -0.990437
v -87.7234 -106.265 1347.64
vn -0.427484 -0.0958365 -0.898929
v -87.7158 -106.983 1347.67
vn -0.657493 -0.246957 -0.71184
v -87.6528 -109.171 1348.02
vn -0.271888 0.0396475 -0.961512
v -86.6656 -109.468 1347.45
vn 0.227644 0.365351 -0.902606
v -84.8471 -108.456 1347.67
vn -0.478957 -0.538197 0.693501
v -85.5953 -110.871 1355.99
vn 0.29336 0.485687 -0.823437
v -85.319 -105.17 1349.57
vn 0.0271289 0.313929 -0.949059
v -81.6173 -105.272 1350.16
vn 0.185527 0.339112 -0.92227
v -80.7852 -101.833 1351.02
vn 0.562485 0.487646 -0.667692
v -79.0476 -101.181 1352.21
vn 0.746894 0.321469 0.582071
v -79.4786 -100.953 1357.41
vn 0.845947 0.481565 0.229059
v -78.6737 -101.111 1355.74
vn 0.536323 0.113298 0.836374
v -78.9688 -104.945 1358.09
vn -0.599766 -0.22926 -0.76663
v -84.6194 -112.968 1346.7
vn -0.725615 -0.435372 -0.532854
v -84.6867 -113.915 1347.27
vn -0.622622 -0.599353 0.503108
v -85.0906 -113.395 1354.04
vn 0.0270723 0.343143 -0.938893
v -83.5825 -111.887 1346.49
vn 0.0259303 0.337766 -0.940873
v -79.1798 -106.32 1349.7
vn 0.628987 0.603531 -0.490026
v -75.6266 -106.066 1351.02
vn -0.775568 -0.596933 -0.205344
v -82.6105 -117.94 1348.44
vn 0.105571 0.419029 -0.901815
v -77.3045 -111.802 1347.78
vn 0.240163 -0.0538729 0.969237
v -76.5791 -111.637 1357.15
vn 0.342939 0.518778 -0.78311
v -75.9596 -107.439 1349.67
vn 0.520464 0.627187 -0.579443
v -74.061 -108.511 1349.94
vn 0.706246 0.665011 -0.242851
v -73.5381 -108.275 1350.91
vn 0.767275 0.455801 0.451149
v -74.9577 -107.365 1355.33
vn 0.813911 0.579864 0.0361468
v -74.7308 -106.433 1352.87
vn 0.542936 0.231141 0.807338
v -74.233 -110.472 1356.16
vn 0.761574 0.579667 0.289812
v -73.2456 -108.834 1353.85
vn 0.655632 0.413766 0.63162
v -72.9755 -110.369 1355.13
vn -0.693528 -0.671303 0.26148
v -81.5249 -119.091 1351.18
vn -0.569732 -0.614099 0.546157
v -80.2075 -119.041 1353.03
vn -0.128389 -0.286797 0.949349
v -77.4048 -115.793 1356.32
vn 0.0986735 -0.0306438 0.994648
v -73.4567 -116.223 1356.39
vn 0.657641 0.548716 0.516158
v -70.067 -112.862 1353.83
vn 0.445231 0.283719 0.849278
v -72.126 -113.315 1355.83
vn -0.569977 -0.331054 -0.752017
v -78.8239 -119.566 1344.65
vn -0.673722 -0.737465 0.0473745
v -79.2689 -121.666 1347.93
vn -0.551777 -0.701002 0.451817
v -76.1398 -123.581 1350.36
vn -0.532786 -0.738068 0.413999
v -77.6587 -121.483 1352.81
vn -0.408024 -0.574814 0.709299
v -77.065 -121.16 1353.72
vn -0.251134 0.00995971 -0.967901
v -78.1739 -118.809 1344.25
vn 0.179967 0.486497 -0.854946
v -70.333 -115.31 1346.49
vn 0.51718 0.689965 -0.506431
v -68.9464 -114.335 1347.85
vn -0.648399 -0.602221 -0.465734
v -76.6929 -123.375 1345.26
vn -0.435544 -0.348808 -0.82984
v -76.336 -122.791 1344.46
vn -0.233049 -0.040577 -0.971618
v -74.3265 -121.994 1343.59
vn -0.0459511 0.239137 -0.969898
v -73.2636 -120.936 1343.55
vn -0.312803 -0.524554 0.791832
v -72.1959 -122.493 1355.11
vn -0.392053 -0.611634 0.687167
v -70.0396 -124.435 1354.3
vn 0.690133 0.719959 0.0733165
v -66.2932 -115.453 1350.86
vn -0.300109 -0.163157 -0.939848
v -70.5015 -125.159 1342.79
vn 0.195813 0.277559 0.940541
v -63.1997 -123.039 1355.44
vn -0.133725 -0.188499 0.972926
v -64.9569 -125.525 1355.57
vn 0.323552 0.633653 -0.702707
v -65.7762 -118.496 1345.77
vn 0.506194 0.807571 -0.302649
v -63.1297 -118.648 1347.9
vn 0.561815 0.826609 0.0328874
v -60.8828 -119.887 1349.93
vn 0.524873 0.697757 0.487487
v -61.3386 -120.704 1352.95
vn -0.597715 -0.795096 -0.102759
v -70.4723 -129.092 1346.59
vn -0.542847 -0.740343 -0.396496
v -68.7135 -129.683 1344.71
vn -0.59513 -0.771029 0.226573
v -69.8469 -129.32 1349.53
vn -0.520733 -0.716717 0.463847
v -66.1636 -131.203 1351.25
vn -0.105778 0.0851465 -0.990738
v -66.0063 -126.163 1341.75
vn 0.0995502 0.428875 -0.897862
v -65.1755 -124.144 1342.56
vn -0.494332 -0.839862 -0.224204
v -66.1764 -131.871 1346.06
vn -0.505495 -0.849051 0.15358
v -64.2075 -133.12 1349.67
vn -0.319483 -0.32301 -0.89084
v -65.9274 -129.076 1342.18
vn -0.445459 -0.64958 -0.616126
v -65.7976 -130.648 1343.11
vn -0.237906 -0.525752 -0.816692
v -63.7813 -130.532 1342.14
vn -0.146911 -0.212798 -0.965989
v -63.1384 -129.769 1341.69
vn -0.442057 -0.583399 0.681345
v -61.7963 -132.002 1354.04
vn 0.1456 0.420571 -0.8955
v -60.9978 -126.955 1341.73
vn 0.0148394 0.0254535 -0.999566
v -61.0369 -128.342 1341.44
vn -0.286752 -0.358918 0.888229
v -61.0093 -130.22 1355.52
vn 0.273604 0.680342 -0.679908
v -57.29 -123.527 1345
vn 0.213514 0.607769 0.764871
v -55.8073 -125.533 1355.02
vn 0.384304 0.888406 -0.251088
v -55.7744 -122.675 1347.23
vn 0.444458 0.881714 0.158231
v -56.8509 -122.098 1349.01
vn 0.366964 0.840517 0.398583
v -56.7575 -123.206 1352.42
vn -0.338806 -0.796119 -0.501403
v -62.24 -133.204 1344.25
vn -0.407227 -0.904227 -0.128603
v -61.7778 -134.425 1347.59
vn -0.442175 -0.767109 0.464786
v -59.9535 -134.177 1352.97
vn -0.0764243 -0.327039 -0.941916
v -60.9905 -130.515 1341.68
vn -0.0404477 0.125287 0.991296
v -54.799 -129.365 1356.39
vn 0.187653 0.696273 -0.692814
v -52.822 -124.473 1345.51
vn 0.31504 0.937025 0.15078
v -52.6032 -123.829 1349.65
vn 0.248566 0.940635 -0.231128
v -52.0605 -123.963 1347
vn 0.193067 0.828552 0.525574
v -49.6647 -126.609 1354.44
vn -0.292403 -0.852672 -0.432955
v -56.0422 -135.903 1344.97
vn -0.388822 -0.908576 0.152669
v -56.9546 -136.434 1351.16
vn -0.329376 -0.856618 0.397136
v -55.2212 -136.661 1352.91
vn -0.181026 -0.635184 -0.750847
v -56.143 -133.962 1342.86
vn -0.271555 -0.62678 0.730346
v -55.3849 -135.2 1354.74
vn -0.146105 -0.322618 0.935185
v -53.0135 -133.3 1356.26
vn -0.0957167 -0.0297508 0.994964
v -49.3205 -132.038 1357.05
vn 0.0283495 0.397685 0.917084
v -46.4923 -129.922 1356.89
vn 0.179714 0.983665 -0.0102505
v -44.1262 -125.63 1347.59
vn -0.323948 -0.932482 -0.159797
v -54.9698 -137.209 1348.2
vn 0.154927 0.822667 -0.547007
v -42.1483 -126.715 1345.68
vn -0.243301 -0.787812 -0.565824
v -50.541 -137.771 1345.4
vn -0.146071 -0.500859 -0.853114
v -46.0246 -137.056 1343.44
vn 0.0479394 0.208893 -0.976763
v -44.045 -131.968 1342.5
vn 0.029754 0.610929 0.791126
v -39.3889 -130.696 1356.89
vn 0.0133735 0.772402 -0.634993
v -36.6385 -127.174 1346.22
vn 0.0610585 0.976184 -0.208175
v -35.9437 -126.768 1347.19
vn 0.0161117 0.951129 0.308374
v -35.1043 -127.311 1351.58
vn -0.246616 -0.640714 -0.727094
v -42.1227 -139.082 1343.92
vn -0.0422071 -0.170783 -0.984404
v -42.5903 -135.566 1342.55
vn -0.218251 -0.365133 -0.905011
v -40.7207 -138.153 1343.01
vn -0.124304 -0.00801279 -0.992212
v -38.014 -134.509 1342.1
vn -0.0255884 -0.0188801 0.999494
v -34.4889 -134.195 1358.06
vn -0.086145 0.846859 -0.524794
v -32.3677 -127.22 1346.07
vn -0.114793 0.443588 -0.888849
v -32.9342 -128.21 1345.08
vn -0.312309 -0.176152 -0.933506
v -37.2624 -138.817 1342.22
vn -0.369399 -0.657026 -0.657162
v -38.368 -140.514 1343.66
vn -0.408899 -0.502987 -0.76145
v -37.5307 -139.956 1342.76
vn -0.226357 0.151289 -0.962223
v -33.8545 -136.593 1341.18
vn 0.0551778 0.423897 -0.904028
v -35.1474 -133.138 1342.17
vn 0.0804924 0.573384 -0.815323
v -32.3249 -134.571 1341.88
vn -0.0835854 0.417319 -0.904908
v -32.768 -135.556 1341.29
vn 0.0182954 0.565698 -0.82441
v -31.4274 -133.321 1343.1
vn -0.227609 0.420985 -0.878047
v -28.8492 -131.65 1343.63
vn -0.411933 0.141074 -0.900227
v -27.7969 -130.582 1343.52
vn -0.0877852 0.34253 0.935397
v -27.4047 -132.116 1357.67
vn -0.0148175 0.0167245 0.99975
v -27.3694 -133.569 1357.85
vn -0.250662 0.417131 -0.873596
v -28.7833 -128.154 1344.16
vn -0.228088 0.720773 -0.65457
v -28.0212 -127.496 1344.48
vn -0.208326 0.90476 -0.371496
v -27.1983 -126.924 1345.31
vn -0.285506 0.144072 -0.947486
v -28.4732 -129.184 1343.82
vn -0.402666 0.31828 -0.85823
v -27.7843 -128.461 1343.67
vn -0.430336 0.641175 -0.635378
v -25.788 -127.719 1342.94
vn -0.592885 0.20636 -0.778398
v -25.8501 -129.02 1342.27
vn -0.118007 0.980119 -0.1595
v -26.246 -126.39 1347.28
vn -0.221181 0.75414 0.618346
v -26.4194 -128.197 1354.72
vn -0.336739 0.454321 0.824742
v -22.7945 -129.667 1357.53
vn -0.0975551 0.0796931 0.992034
v -24.9421 -132.463 1357.99
vn -0.273738 0.939739 0.204836
v -25.162 -126.675 1352.18
vn -0.4835 0.854358 0.190526
v -23.0429 -125.966 1352.46
vn -0.475682 0.771315 0.422848
v -22.4287 -126.538 1354.84
vn -0.456034 0.616284 0.642049
v -22.5683 -127.79 1356.22
vn -0.262689 0.663718 0.700337
v -20.8036 -126.02 1356.19
vn 0.291094 0.41639 0.861327
v -20.0738 -126.747 1356.64
vn -0.115428 0.369409 0.92207
v -21.6085 -129.339 1357.9
vn -0.305483 0.942009 -0.138923
v -20.5735 -125.033 1346.08
vn -0.373089 0.924729 0.0753771
v -20.0846 -123.982 1352.27
vn -0.465417 0.884215 -0.0393794
v -20.8499 -124.671 1350.25
vn 0.155331 0.969062 0.191808
v -19.1227 -123.799 1352.15
vn -0.204527 0.97532 -0.0831818
v -19.0106 -123.688 1350.1
vn -0.444187 0.82473 0.350025
v -20.2448 -124.491 1354.27
vn 0.102682 0.874675 0.47371
v -19.7076 -124.324 1354.21
vn 0.528597 0.499999 0.685993
v -19.6398 -126.132 1355.99
vn -0.386997 -0.84464 -0.369889
v -37.5141 -142.259 1345.84
vn -0.47631 -0.689378 -0.54579
v -36.2578 -141.827 1343.67
vn -0.307877 -0.948444 0.0752724
v -36.5512 -143.266 1350.15
vn -0.198319 -0.869463 0.452442
v -35.8695 -143.015 1351.61
vn -0.390099 -0.102527 -0.915047
v -33.1719 -140.13 1340.86
vn -0.357235 0.170297 -0.918358
v -31.166 -138.619 1339.99
vn -0.111784 0.587706 -0.801315
v -31.5902 -135.324 1341.28
vn -0.211362 0.382039 -0.899651
v -31.7442 -135.886 1340.96
vn -0.498555 0.47459 -0.725402
v -25.6224 -133.531 1341.3
vn 0.151138 -0.20156 0.967745
v -22.3977 -135.75 1357.56
vn -0.731731 0.196175 -0.652751
v -24.2773 -129.214 1340.86
vn -0.71514 0.140119 -0.684793
v -24.5562 -131.733 1341.19
vn -0.116529 0.192539 0.974346
v -21.9731 -130.484 1358.14
vn 0.193727 -0.0845702 0.977404
v -21.6051 -131.564 1358.18
vn -0.575765 0.490201 -0.654368
v -23.9039 -128.168 1340.99
vn -0.437491 0.753703 -0.490441
v -21.3079 -127.98 1339.27
vn -0.313788 0.904751 -0.288032
v -22.1627 -126.331 1343.06
vn 0.6555 0.208437 0.72586
v -19.6929 -127.839 1356.76
vn 0.326241 0.135408 0.935538
v -20.9203 -130.128 1358.02
vn -0.489235 0.830924 -0.264979
v -16.4598 -125.057 1339.31
vn -0.320021 0.935447 -0.150083
v -17.5264 -124.605 1343.62
vn -0.112473 0.987829 -0.107446
v -17.3192 -124.031 1347.24
vn 0.607339 0.66902 0.428429
v -17.7495 -124.79 1352.82
vn 0.832348 0.210606 0.51268
v -16.5962 -126.405 1352.42
vn 0.306624 0.934312 0.181774
v -15.7797 -124.041 1347
vn 0.738867 0.509943 0.440493
v -14.9687 -124.899 1347.78
vn -0.460109 -0.701115 -0.544737
v -30.7575 -144.369 1341.45
vn -0.0605414 -0.919265 0.388956
v -28.6592 -144.834 1350.25
vn -0.524269 0.225784 -0.821075
v -27.4954 -138.805 1338.27
vn 0.0290525 -0.450772 0.892166
v -25.4577 -140.505 1356.13
vn -0.0431797 -0.711609 0.701247
v -24.9331 -142.48 1354.83
vn -0.735893 0.357922 -0.574763
v -23.2217 -135.341 1336.41
vn -0.326555 0.531701 -0.781445
v -27.0002 -136.444 1339.23
vn -0.601435 0.465944 -0.648977
v -25.1462 -136.933 1337.32
vn -0.766208 0.375775 -0.521266
v -24.0558 -133.023 1339.91
vn -0.80952 0.251803 -0.530351
v -22.6965 -131.58 1337.86
vn 0.911079 -0.0801405 0.404366
v -17.1636 -135.261 1353.86
vn -0.649704 0.525925 -0.548897
v -20.2797 -130.512 1335.59
vn -0.66412 0.320807 -0.675298
v -18.9665 -131.169 1333.47
vn 0.642937 -0.074011 0.762335
v -18.6483 -132.451 1356.45
vn -0.590127 0.700782 -0.400816
v -16.7285 -126.262 1336.53
vn -0.555491 0.656122 -0.510816
v -15.6582 -126.685 1333.86
vn -0.324499 0.620937 -0.713539
v -15.1455 -127.222 1332.84
vn 0.903399 -0.145435 0.403385
v -14.5904 -128.9 1348.04
vn 0.883365 0.0633257 0.464389
v -14.9367 -127.361 1348.97
vn -0.502814 0.783368 -0.365393
v -15.1501 -125.023 1336.05
vn 0.0306892 0.896993 -0.440978
v -13.8284 -124.655 1335.9
vn -0.0908595 0.760588 -0.642845
v -14.6682 -126.267 1333.64
vn 0.475282 0.6766 -0.562423
v -13.2552 -125.325 1335.21
vn 0.748288 0.501992 -0.433669
v -12.7324 -125.09 1336.18
vn -0.262385 0.951132 -0.162793
v -14.1314 -123.868 1338.61
vn 0.118457 0.992411 -0.0329855
v -13.0681 -123.654 1340
vn 0.205308 0.948111 -0.242764
v -12.9843 -123.836 1338.43
vn 0.422043 0.900681 -0.103212
v -12.6612 -123.798 1339.41
vn 0.528453 0.848945 -0.0053416
v -12.4435 -123.865 1340.39
vn 0.59898 0.76173 -0.246964
v -12.4924 -124.107 1338.32
vn 0.732576 0.671281 -0.112753
v -12.2563 -124.087 1339.31
vn 0.799217 0.60092 -0.0121206
v -12.0941 -124.209 1340.29
vn 0.541098 0.7373 -0.404478
v -12.7494 -124.587 1336.87
vn 0.856339 0.436153 -0.276503
v -11.964 -124.894 1338.13
vn 0.929551 0.362563 -0.0669608
v -11.7574 -124.972 1339.11
vn 0.0295412 0.997339 0.066645
v -13.6962 -123.745 1343.15
vn 0.345365 0.935469 0.0749652
v -12.7889 -123.745 1341.48
vn 0.487207 0.851054 0.195798
v -12.6514 -123.947 1342.45
vn 0.549802 0.767559 0.329501
v -12.6834 -124.262 1343.43
vn 0.844278 0.380685 0.377191
v -12.4011 -124.8 1343.78
vn 0.658413 0.74829 0.0809576
v -12.309 -124.015 1341.37
vn 0.772978 0.599335 0.208092
v -12.2549 -124.265 1342.42
vn 0.89403 0.444431 0.0564938
v -11.9984 -124.397 1341.27
vn 0.946624 0.26368 0.185406
v -11.7865 -125.159 1342.15
vn 0.959869 -0.0645301 0.272924
v -12.014 -127.32 1343.9
vn 0.992264 0.112661 0.0521514
v -11.5274 -125.999 1340.98
vn 0.871026 0.0151865 0.491002
v -12.7974 -127.202 1345.79
vn -0.190492 -0.963138 0.189942
v -29.0465 -145.749 1347.13
vn -0.38822 -0.420462 -0.820059
v -29.3003 -144.046 1340.34
vn 0.0414902 -0.645029 -0.76303
v -24.9254 -144.371 1339.02
vn -0.266208 -0.947141 -0.179044
v -27.7272 -146.306 1342.25
vn -0.22093 -0.747677 -0.626234
v -27.1857 -145.656 1340.73
vn -0.0500855 -0.981613 0.184195
v -25.0676 -146.491 1345.9
vn -0.478227 -0.127532 -0.868927
v -26.8209 -140.913 1337.94
vn 0.184128 -0.869939 0.457496
v -20.8881 -143.772 1352.26
vn -0.596634 0.122656 -0.793085
v -24.2761 -138.548 1335.95
vn -0.366995 -0.309658 -0.87717
v -23.6062 -139.23 1335.63
vn 0.363143 -0.363389 0.857948
v -19.5008 -140.137 1355.33
vn 0.770117 -0.2679 0.57892
v -18.5177 -139.72 1354.76
vn 0.228906 -0.643279 0.730612
v -20.3611 -142.131 1354.34
vn 0.58553 -0.531571 0.612035
v -19.2498 -141.116 1354.61
vn 0.833278 -0.455612 0.313155
v -17.8209 -140.463 1352.75
vn 0.541631 -0.690132 0.479952
v -19.7684 -142.751 1353.25
vn 0.540514 -0.781199 0.312366
v -19.8341 -143.417 1352.15
vn 0.769842 -0.596831 0.226132
v -19.1347 -142.702 1352.13
vn -0.421953 -0.0623061 -0.904474
v -20.3594 -136.154 1333.57
vn -0.0046149 -0.448748 -0.893646
v -19.6341 -136.885 1333.62
vn 0.406627 -0.635453 -0.656394
v -18.3371 -136.767 1333.93
vn 0.901571 -0.432593 0.00578048
v -16.1202 -136.675 1343.81
vn 0.899562 -0.435748 0.030218
v -17.3656 -140.264 1350.15
vn 0.94779 -0.233936 0.216719
v -16.9116 -138.558 1351.84
vn -0.307357 0.119165 -0.944104
v -16.7037 -130.641 1331.91
vn -0.0769178 -0.200727 -0.976623
v -16.6908 -132.074 1331.96
vn 0.332827 -0.235002 -0.913236
v -15.6191 -131.735 1331.96
vn 0.252581 -0.441588 -0.860932
v -16.2579 -133.212 1332.41
vn 0.721938 -0.348824 -0.597602
v -14.8669 -132.474 1332.96
vn 0.594083 -0.51884 -0.614712
v -15.4374 -133.319 1332.93
vn 0.791049 -0.459382 -0.403993
v -14.4955 -132.83 1333.87
vn 0.890159 -0.422392 0.170887
v -13.9944 -133.144 1343.45
vn 0.944397 -0.242591 0.221955
v -15.8074 -134.04 1349.28
vn -0.453728 0.461693 -0.762214
v -15.939 -128.564 1332.29
vn 0.196078 0.131352 -0.971751
v -15.2596 -129.222 1331.93
vn 0.136384 0.463274 -0.875658
v -14.7429 -127.472 1332.6
vn 0.666432 0.0653175 -0.742699
v -14.0811 -128.298 1332.75
vn 0.653937 -0.156058 -0.740278
v -15.0048 -130.93 1332.17
vn 0.875591 -0.202094 -0.438747
v -12.5786 -129.769 1335.01
vn 0.876083 -0.482159 0.00131212
v -13.0072 -132.091 1339.36
vn 0.869527 -0.449216 -0.205249
v -12.9931 -131.465 1335.87
vn 0.929641 -0.32477 0.174047
v -12.1432 -129.355 1342.15
vn 0.902736 -0.274849 0.330946
v -14.2137 -132.167 1345.74
vn 0.498186 0.475211 -0.725248
v -13.6444 -126.666 1333.56
vn 0.852462 0.222709 -0.47298
v -12.8265 -126.828 1334.43
vn 0.975493 0.149331 -0.161598
v -11.5837 -126.037 1338.43
vn 0.973174 -0.0166672 -0.229465
v -11.5766 -127.886 1337.67
vn 0.996262 -0.0827359 -0.0248517
v -11.4888 -127.954 1338.66
vn 0.954344 -0.294724 0.0486417
v -11.747 -129.096 1339.57
vn 0.954825 -0.274868 -0.112948
v -11.7699 -129.114 1337.53
vn 0.98407 -0.144555 0.103495
v -11.5464 -127.855 1340.73
vn 0.105786 -0.898396 -0.426255
v -24.1989 -146.335 1341.19
vn 0.0424409 -0.997015 -0.0644945
v -23.9702 -146.766 1343.14
vn 0.543314 -0.603183 -0.583935
v -21.9024 -142.316 1338.32
vn 0.188631 -0.72615 -0.661154
v -23.6345 -145.504 1340.2
vn 0.775039 -0.422547 -0.46986
v -20.6969 -143.478 1341.04
vn 0.405516 -0.891734 -0.200918
v -22.0309 -146.357 1342.9
vn 0.563343 -0.708335 -0.42533
v -21.4557 -145.537 1341.9
vn 0.816602 -0.443566 -0.369337
v -20.3525 -144.509 1342.38
vn 0.109746 -0.94243 0.315882
v -22.2321 -146.071 1347.05
vn 0.27198 -0.956988 0.100997
v -21.9109 -146.428 1345.42
vn 0.392012 -0.886757 0.244925
v -21.2103 -145.851 1346.92
vn 0.733974 -0.679005 -0.0153456
v -20.1732 -145.332 1345.81
vn 0.548052 -0.701566 -0.455461
v -19.504 -139.103 1335.84
vn 0.718011 -0.57255 -0.395786
v -20.6539 -142.128 1339.69
vn 0.791307 -0.573285 -0.212551
v -19.0498 -140.876 1341.14
vn 0.839201 -0.413619 -0.353074
v -20.083 -142.667 1341.57
vn 0.884886 -0.42994 -0.179244
v -18.6606 -141.902 1345.02
vn 0.734555 -0.609942 -0.297322
v -15.1196 -134.313 1334.79
vn -0.0442843 0.279713 -0.959062
v -140.511 -50.8238 1352.71
vn -0.0657877 0.112747 -0.991443
v -141.247 -52.1685 1352.37
vn -0.28278 -0.126397 -0.95082
v -112.948 -56.5659 1352.5
vn -0.0977061 -0.896696 0.431729
v -123.911 -74.7382 1360.68
vn -0.350284 -0.911459 0.215738
v -123.911 -74.7382 1360.68
vn -0.447818 -0.834356 -0.321417
v -119.954 -76.3338 1360.36
vn -0.705232 -0.660522 -0.257602
v -109.2 -83.4817 1359.27
f 2//2 20//20 1//1
f 6//6 1//1 7//7
f 1//1 6//6 2//2
f 24//24 20//20 2//2
f 7//7 1//1 3//3
f 3//3 25//25 7//7
f 4//4 6//6 9//9
f 5//5 24//24 2//2
f 5//5 2//2 4//4
f 4//4 2//2 6//6
f 24//24 5//5 26//26
f 8//8 12//12 28//28
f 8//8 4//4 9//9
f 28//28 4//4 8//8
f 28//28 5//5 4//4
f 26//26 5//5 28//28
f 6//6 7//7 9//9
f 7//7 10//10 9//9
f 9//9 10//10 11//11
f 10//10 16//16 11//11
f 11//11 14//14 9//9
f 11//11 16//16 14//14
f 12//12 8//8 13//13
f 32//32 33//33 12//12
f 13//13 32//32 12//12
f 17//17 32//32 13//13
f 13//13 15//15 17//17
f 36//36 32//32 17//17
f 9//9 13//13 8//8
f 13//13 9//9 15//15
f 14//14 15//15 9//9
f 10//10 7//7 16//16
f 18//18 15//15 14//14
f 18//18 17//17 15//15
f 18//18 14//14 47//47
f 17//17 18//18 43//43
f 47//47 43//43 18//18
f 16//16 39//39 14//14
f 39//39 47//47 14//14
f 20//20 24//24 22//22
f 60//60 22//22 19//19
f 19//19 22//22 24//24
f 20//20 23//23 21//21
f 22//22 59//59 23//23
f 23//23 20//20 22//22
f 59//59 22//22 60//60
f 61//61 23//23 59//59
f 61//61 21//21 23//23
f 21//21 61//61 63//63
f 66//66 21//21 63//63
f 64//64 24//24 27//27
f 20//20 3//3 1//1
f 21//21 25//25 3//3
f 3//3 20//20 21//21
f 21//21 66//66 25//25
f 24//24 26//26 27//27
f 67//67 65//65 27//27
f 35//35 7//7 25//25
f 25//25 68//68 35//35
f 12//12 29//29 28//28
f 26//26 28//28 29//29
f 29//29 12//12 33//33
f 30//30 26//26 29//29
f 30//30 29//29 31//31
f 30//30 31//31 67//67
f 31//31 69//69 67//67
f 27//27 26//26 30//30
f 30//30 67//67 27//27
f 16//16 7//7 35//35
f 31//31 29//29 34//34
f 34//34 29//29 576//576
f 70//70 69//69 31//31
f 34//34 70//70 31//31
f 38//38 70//70 34//34
f 16//16 35//35 40//40
f 16//16 40//40 39//39
f 40//40 35//35 41//41
f 576//576 575//575 38//38
f 37//37 32//32 36//36
f 38//38 34//34 576//576
f 575//575 37//37 38//38
f 42//42 38//38 37//37
f 43//43 36//36 17//17
f 39//39 40//40 48//48
f 40//40 41//41 49//49
f 71//71 49//49 41//41
f 37//37 36//36 44//44
f 44//44 36//36 43//43
f 37//37 46//46 42//42
f 46//46 37//37 44//44
f 42//42 73//73 38//38
f 43//43 47//47 45//45
f 45//45 44//44 43//43
f 51//51 44//44 45//45
f 46//46 72//72 42//42
f 46//46 51//51 72//72
f 51//51 46//46 44//44
f 39//39 48//48 47//47
f 45//45 47//47 52//52
f 53//53 48//48 50//50
f 48//48 40//40 49//49
f 50//50 48//48 49//49
f 50//50 49//49 71//71
f 45//45 52//52 75//75
f 45//45 75//75 51//51
f 76//76 74//74 51//51
f 47//47 48//48 53//53
f 53//53 50//50 80//80
f 52//52 47//47 53//53
f 76//76 51//51 75//75
f 75//75 52//52 53//53
f 55//55 83//83 62//62
f 62//62 83//83 84//84
f 81//81 82//82 54//54
f 54//54 82//82 55//55
f 82//82 83//83 55//55
f 56//56 60//60 19//19
f 56//56 19//19 64//64
f 64//64 19//19 24//24
f 60//60 56//56 57//57
f 64//64 65//65 58//58
f 58//58 57//57 56//56
f 58//58 56//56 64//64
f 81//81 57//57 91//91
f 58//58 87//87 57//57
f 61//61 59//59 55//55
f 61//61 62//62 63//63
f 61//61 55//55 62//62
f 60//60 57//57 54//54
f 59//59 60//60 54//54
f 54//54 55//55 59//59
f 66//66 63//63 93//93
f 81//81 54//54 57//57
f 84//84 63//63 62//62
f 63//63 84//84 93//93
f 65//65 64//64 27//27
f 66//66 68//68 25//25
f 68//68 66//66 93//93
f 67//67 69//69 65//65
f 35//35 68//68 106//106
f 71//71 41//41 35//35
f 73//73 70//70 38//38
f 73//73 42//42 72//72
f 73//73 72//72 96//96
f 73//73 96//96 95//95
f 73//73 95//95 70//70
f 51//51 74//74 72//72
f 74//74 96//96 72//72
f 76//76 75//75 77//77
f 75//75 53//53 77//77
f 76//76 77//77 78//78
f 53//53 80//80 79//79
f 79//79 77//77 53//53
f 78//78 74//74 76//76
f 77//77 79//79 78//78
f 97//97 74//74 78//78
f 80//80 50//50 71//71
f 80//80 71//71 111//111
f 83//83 85//85 84//84
f 84//84 85//85 93//93
f 86//86 82//82 81//81
f 86//86 83//83 82//82
f 83//83 90//90 85//85
f 83//83 86//86 90//90
f 87//87 58//58 65//65
f 57//57 87//87 91//91
f 89//89 87//87 65//65
f 88//88 91//91 87//87
f 98//98 91//91 88//88
f 88//88 87//87 89//89
f 117//117 88//88 89//89
f 98//98 88//88 117//117
f 91//91 86//86 81//81
f 85//85 100//100 93//93
f 101//101 100//100 85//85
f 86//86 91//91 92//92
f 90//90 101//101 85//85
f 86//86 92//92 90//90
f 101//101 90//90 99//99
f 91//91 98//98 92//92
f 99//99 90//90 92//92
f 98//98 99//99 92//92
f 103//103 89//89 65//65
f 117//117 89//89 103//103
f 93//93 104//104 68//68
f 94//94 103//103 65//65
f 68//68 104//104 106//106
f 65//65 69//69 70//70
f 65//65 70//70 94//94
f 106//106 71//71 35//35
f 71//71 108//108 111//111
f 106//106 108//108 71//71
f 94//94 70//70 95//95
f 107//107 95//95 110//110
f 107//107 94//94 95//95
f 74//74 112//112 96//96
f 96//96 110//110 95//95
f 112//112 110//110 96//96
f 78//78 79//79 97//97
f 74//74 97//97 112//112
f 80//80 111//111 121//121
f 80//80 121//121 79//79
f 79//79 121//121 123//123
f 123//123 97//97 79//79
f 99//99 115//115 101//101
f 101//101 114//114 100//100
f 100//100 102//102 93//93
f 115//115 114//114 101//101
f 102//102 100//100 114//114
f 114//114 116//116 102//102
f 102//102 116//116 129//129
f 102//102 104//104 93//93
f 102//102 105//105 104//104
f 103//103 94//94 119//119
f 105//105 106//106 104//104
f 146//146 108//108 106//106
f 146//146 106//106 105//105
f 110//110 109//109 107//107
f 109//109 110//110 112//112
f 122//122 112//112 97//97
f 120//120 112//112 122//122
f 122//122 97//97 123//123
f 121//121 111//111 135//135
f 99//99 113//113 115//115
f 98//98 113//113 99//99
f 98//98 117//117 118//118
f 118//118 113//113 98//98
f 115//115 116//116 114//114
f 116//116 115//115 113//113
f 113//113 124//124 116//116
f 102//102 129//129 105//105
f 125//125 129//129 116//116
f 125//125 116//116 124//124
f 130//130 105//105 129//129
f 162//162 146//146 105//105
f 147//147 94//94 107//107
f 185//185 135//135 146//146
f 112//112 120//120 109//109
f 120//120 131//131 109//109
f 111//111 108//108 135//135
f 108//108 146//146 135//135
f 120//120 122//122 134//134
f 134//134 122//122 138//138
f 138//138 122//122 152//152
f 131//131 120//120 134//134
f 122//122 123//123 152//152
f 121//121 140//140 123//123
f 136//136 121//121 135//135
f 124//124 113//113 118//118
f 117//117 126//126 118//118
f 126//126 124//124 118//118
f 126//126 143//143 124//124
f 124//124 143//143 125//125
f 117//117 103//103 127//127
f 127//127 103//103 119//119
f 159//159 127//127 119//119
f 117//117 127//127 126//126
f 126//126 127//127 141//141
f 125//125 128//128 129//129
f 125//125 143//143 128//128
f 130//130 129//129 128//128
f 162//162 105//105 130//130
f 147//147 119//119 94//94
f 107//107 109//109 131//131
f 107//107 131//131 133//133
f 133//133 131//131 132//132
f 131//131 134//134 132//132
f 132//132 137//137 133//133
f 132//132 134//134 137//137
f 147//147 107//107 577//577
f 121//121 136//136 140//140
f 136//136 135//135 185//185
f 139//139 137//137 134//134
f 134//134 138//138 139//139
f 139//139 138//138 152//152
f 142//142 127//127 159//159
f 144//144 126//126 141//141
f 141//141 127//127 142//142
f 141//141 154//154 144//144
f 154//154 141//141 142//142
f 144//144 154//154 155//155
f 143//143 126//126 578//578
f 578//578 128//128 143//143
f 154//154 142//142 159//159
f 128//128 145//145 130//130
f 145//145 128//128 157//157
f 145//145 160//160 130//130
f 161//161 119//119 147//147
f 149//149 147//147 577//577
f 137//137 149//149 133//133
f 148//148 137//137 139//139
f 148//148 139//139 175//175
f 149//149 137//137 150//150
f 137//137 148//148 150//150
f 175//175 165//165 148//148
f 166//166 149//149 163//163
f 163//163 149//149 150//150
f 163//163 150//150 164//164
f 164//164 150//150 148//148
f 164//164 148//148 165//165
f 152//152 175//175 139//139
f 153//153 175//175 152//152
f 152//152 123//123 153//153
f 153//153 123//123 151//151
f 151//151 140//140 174//174
f 153//153 151//151 174//174
f 123//123 140//140 151//151
f 156//156 128//128 579//579
f 154//154 159//159 178//178
f 157//157 158//158 145//145
f 155//155 580//580 144//144
f 157//157 128//128 156//156
f 159//159 119//119 161//161
f 178//178 159//159 161//161
f 160//160 145//145 158//158
f 162//162 130//130 160//160
f 160//160 199//199 162//162
f 166//166 147//147 149//149
f 166//166 179//179 147//147
f 165//165 168//168 164//164
f 171//171 168//168 165//165
f 171//171 165//165 175//175
f 167//167 169//169 166//166
f 163//163 167//167 166//166
f 164//164 167//167 163//163
f 167//167 164//164 168//168
f 172//172 168//168 171//171
f 167//167 170//170 169//169
f 168//168 170//170 167//167
f 170//170 168//168 172//172
f 179//179 166//166 169//169
f 179//179 169//169 170//170
f 180//180 179//179 170//170
f 172//172 171//171 173//173
f 170//170 172//172 180//180
f 173//173 180//180 172//172
f 173//173 171//171 177//177
f 173//173 177//177 183//183
f 181//181 173//173 183//183
f 181//181 180//180 173//173
f 177//177 182//182 183//183
f 140//140 136//136 174//174
f 174//174 136//136 184//184
f 177//177 175//175 176//176
f 175//175 153//153 176//176
f 171//171 175//175 177//177
f 153//153 174//174 176//176
f 177//177 176//176 182//182
f 178//178 155//155 154//154
f 156//156 187//187 157//157
f 157//157 187//187 158//158
f 155//155 186//186 580//580
f 580//580 186//186 187//187
f 155//155 178//178 186//186
f 162//162 199//199 200//200
f 146//146 201//201 185//185
f 147//147 190//190 161//161
f 179//179 190//190 147//147
f 179//179 180//180 189//189
f 190//190 179//179 189//189
f 202//202 180//180 181//181
f 183//183 202//202 181//181
f 192//192 182//182 176//176
f 191//191 183//183 182//182
f 184//184 136//136 185//185
f 174//174 184//184 193//193
f 192//192 176//176 193//193
f 176//176 174//174 193//193
f 195//195 184//184 185//185
f 186//186 178//178 196//196
f 186//186 197//197 187//187
f 186//186 196//196 581//581
f 205//205 160//160 158//158
f 198//198 160//160 205//205
f 188//188 207//207 178//178
f 200//200 146//146 162//162
f 198//198 199//199 160//160
f 188//188 178//178 161//161
f 188//188 161//161 190//190
f 200//200 201//201 146//146
f 203//203 188//188 190//190
f 208//208 188//188 203//203
f 195//195 185//185 201//201
f 202//202 183//183 191//191
f 202//202 189//189 180//180
f 190//190 189//189 203//203
f 203//203 189//189 202//202
f 191//191 204//204 202//202
f 192//192 191//191 182//182
f 194//194 191//191 192//192
f 184//184 195//195 193//193
f 192//192 193//193 194//194
f 195//195 219//219 193//193
f 158//158 187//187 205//205
f 206//206 581//581 196//196
f 206//206 196//196 178//178
f 199//199 198//198 205//205
f 208//208 207//207 188//188
f 215//215 203//203 202//202
f 209//209 195//195 201//201
f 209//209 219//219 195//195
f 211//211 204//204 194//194
f 204//204 191//191 194//194
f 210//210 202//202 204//204
f 211//211 210//210 204//204
f 197//197 205//205 187//187
f 221//221 205//205 197//197
f 205//205 221//221 223//223
f 205//205 223//223 199//199
f 200//200 214//214 201//201
f 210//210 215//215 202//202
f 215//215 208//208 203//203
f 216//216 211//211 228//228
f 216//216 215//215 210//210
f 236//236 209//209 201//201
f 230//230 209//209 236//236
f 230//230 219//219 209//209
f 211//211 216//216 210//210
f 194//194 193//193 219//219
f 178//178 212//212 206//206
f 223//223 200//200 199//199
f 208//208 213//213 207//207
f 207//207 213//213 225//225
f 224//224 225//225 213//213
f 213//213 217//217 224//224
f 238//238 236//236 201//201
f 214//214 238//238 201//201
f 208//208 215//215 213//213
f 218//218 215//215 216//216
f 218//218 216//216 228//228
f 213//213 215//215 217//217
f 228//228 211//211 219//219
f 215//215 218//218 217//217
f 218//218 227//227 217//217
f 227//227 218//218 228//228
f 219//219 239//239 228//228
f 194//194 219//219 211//211
f 206//206 231//231 222//222
f 206//206 220//220 581//581
f 220//220 221//221 581//581
f 222//222 220//220 206//206
f 220//220 222//222 256//256
f 231//231 206//206 212//212
f 234//234 200//200 223//223
f 233//233 234//234 223//223
f 225//225 178//178 207//207
f 178//178 225//225 235//235
f 243//243 212//212 178//178
f 178//178 235//235 243//243
f 244//244 200//200 251//251
f 244//244 214//214 200//200
f 224//224 217//217 227//227
f 226//226 224//224 227//227
f 229//229 226//226 227//227
f 236//236 237//237 230//230
f 229//229 227//227 228//228
f 239//239 229//229 228//228
f 219//219 230//230 237//237
f 222//222 231//231 247//247
f 256//256 240//240 220//220
f 220//220 240//240 221//221
f 241//241 221//221 240//240
f 222//222 247//247 256//256
f 241//241 233//233 221//221
f 250//250 212//212 243//243
f 231//231 212//212 232//232
f 212//212 250//250 232//232
f 248//248 231//231 232//232
f 233//233 223//223 221//221
f 200//200 234//234 251//251
f 245//245 225//225 224//224
f 225//225 245//245 235//235
f 224//224 226//226 245//245
f 244//244 238//238 214//214
f 248//248 247//247 231//231
f 249//249 240//240 256//256
f 249//249 263//263 240//240
f 263//263 241//241 240//240
f 241//241 263//263 242//242
f 242//242 233//233 241//241
f 264//264 233//233 242//242
f 234//234 233//233 264//264
f 252//252 245//245 226//226
f 253//253 252//252 226//226
f 253//253 226//226 229//229
f 243//243 235//235 245//245
f 252//252 243//243 245//245
f 253//253 229//229 239//239
f 219//219 237//237 255//255
f 246//246 238//238 244//244
f 238//238 246//246 236//236
f 267//267 246//246 244//244
f 246//246 237//237 236//236
f 255//255 239//239 219//219
f 247//247 257//257 256//256
f 247//247 248//248 257//257
f 258//258 248//248 266//266
f 258//258 257//257 248//248
f 242//242 263//263 264//264
f 234//234 264//264 275//275
f 266//266 232//232 250//250
f 248//248 232//232 266//266
f 276//276 250//250 243//243
f 275//275 251//251 234//234
f 303//303 267//267 244//244
f 303//303 244//244 251//251
f 239//239 255//255 278//278
f 246//246 254//254 237//237
f 246//246 268//268 254//254
f 255//255 237//237 254//254
f 246//246 267//267 268//268
f 256//256 259//259 270//270
f 257//257 260//260 259//259
f 256//256 257//257 259//259
f 260//260 257//257 258//258
f 269//269 260//260 258//258
f 258//258 266//266 269//269
f 261//261 262//262 249//249
f 261//261 249//249 270//270
f 249//249 256//256 270//270
f 262//262 263//263 249//249
f 261//261 270//270 279//279
f 264//264 263//263 265//265
f 265//265 263//263 262//262
f 264//264 265//265 287//287
f 275//275 264//264 287//287
f 314//314 251//251 275//275
f 252//252 276//276 243//243
f 276//276 252//252 277//277
f 294//294 267//267 303//303
f 267//267 294//294 268//268
f 314//314 303//303 251//251
f 252//252 253//253 277//277
f 291//291 277//277 253//253
f 254//254 293//293 255//255
f 292//292 293//293 254//254
f 265//265 281//281 297//297
f 271//271 269//269 266//266
f 250//250 271//271 266//266
f 250//250 288//288 271//271
f 272//272 259//259 260//260
f 273//273 260//260 269//269
f 259//259 272//272 284//284
f 284//284 270//270 259//259
f 272//272 260//260 273//273
f 271//271 273//273 269//269
f 282//282 272//272 273//273
f 274//274 282//282 273//273
f 274//274 273//273 271//271
f 286//286 271//271 288//288
f 281//281 265//265 262//262
f 322//322 275//275 287//287
f 322//322 314//314 275//275
f 265//265 297//297 287//287
f 276//276 288//288 250//250
f 289//289 288//288 276//276
f 289//289 276//276 277//277
f 290//290 277//277 291//291
f 292//292 254//254 268//268
f 268//268 294//294 292//292
f 253//253 239//239 291//291
f 278//278 291//291 239//239
f 300//300 291//291 278//278
f 293//293 278//278 255//255
f 279//279 270//270 284//284
f 280//280 262//262 261//261
f 280//280 281//281 262//262
f 279//279 280//280 261//261
f 280//280 312//312 281//281
f 297//297 281//281 312//312
f 283//283 284//284 272//272
f 283//283 272//272 282//282
f 271//271 286//286 274//274
f 285//285 284//284 283//283
f 282//282 285//285 283//283
f 274//274 286//286 282//282
f 286//286 285//285 282//282
f 288//288 289//289 302//302
f 299//299 289//289 290//290
f 302//302 289//289 299//299
f 290//290 289//289 277//277
f 304//304 290//290 291//291
f 307//307 293//293 292//292
f 296//296 301//301 279//279
f 284//284 285//285 295//295
f 279//279 284//284 295//295
f 279//279 295//295 296//296
f 301//301 280//280 279//279
f 312//312 280//280 301//301
f 297//297 313//313 287//287
f 298//298 285//285 286//286
f 288//288 302//302 286//286
f 299//299 290//290 304//304
f 300//300 304//304 291//291
f 300//300 278//278 308//308
f 306//306 300//300 308//308
f 309//309 307//307 292//292
f 278//278 293//293 308//308
f 307//307 308//308 293//293
f 309//309 292//292 294//294
f 318//318 296//296 295//295
f 314//314 315//315 303//303
f 300//300 305//305 304//304
f 304//304 324//324 299//299
f 324//324 304//304 325//325
f 305//305 300//300 306//306
f 304//304 305//305 325//325
f 307//307 310//310 308//308
f 294//294 303//303 309//309
f 309//309 311//311 307//307
f 311//311 310//310 307//307
f 311//311 309//309 317//317
f 295//295 323//323 318//318
f 323//323 295//295 285//285
f 326//326 296//296 318//318
f 326//326 301//301 296//296
f 312//312 313//313 297//297
f 313//313 312//312 321//321
f 319//319 312//312 301//301
f 287//287 313//313 322//322
f 313//313 321//321 322//322
f 323//323 285//285 298//298
f 302//302 298//298 286//286
f 298//298 302//302 345//345
f 345//345 302//302 324//324
f 317//317 309//309 303//303
f 317//317 303//303 315//315
f 306//306 308//308 310//310
f 299//299 324//324 302//302
f 332//332 306//306 310//310
f 316//316 310//310 311//311
f 316//316 311//311 317//317
f 332//332 310//310 316//316
f 326//326 319//319 301//301
f 327//327 318//318 323//323
f 327//327 326//326 318//318
f 319//319 321//321 312//312
f 320//320 321//321 319//319
f 322//322 321//321 331//331
f 322//322 331//331 330//330
f 321//321 320//320 331//331
f 329//329 323//323 298//298
f 328//328 323//323 329//329
f 330//330 314//314 322//322
f 314//314 335//335 315//315
f 314//314 330//330 335//335
f 334//334 317//317 315//315
f 335//335 334//334 315//315
f 305//305 306//306 325//325
f 306//306 332//332 325//325
f 337//337 336//336 325//325
f 325//325 336//336 324//324
f 325//325 338//338 337//337
f 332//332 338//338 325//325
f 316//316 339//339 332//332
f 339//339 316//316 317//317
f 327//327 323//323 328//328
f 326//326 340//340 319//319
f 342//342 320//320 319//319
f 340//340 342//342 319//319
f 333//333 327//327 328//328
f 329//329 298//298 345//345
f 331//331 320//320 352//352
f 336//336 345//345 324//324
f 338//338 332//332 339//339
f 327//327 349//349 326//326
f 340//340 326//326 341//341
f 344//344 328//328 329//329
f 333//333 328//328 344//344
f 345//345 336//336 353//353
f 331//331 335//335 330//330
f 356//356 353//353 336//336
f 358//358 336//336 337//337
f 338//338 339//339 359//359
f 334//334 339//339 317//317
f 349//349 341//341 326//326
f 349//349 346//346 341//341
f 346//346 340//340 341//341
f 342//342 343//343 320//320
f 347//347 342//342 340//340
f 346//346 347//347 340//340
f 347//347 343//343 342//342
f 348//348 333//333 344//344
f 348//348 327//327 333//333
f 327//327 348//348 349//349
f 355//355 331//331 352//352
f 320//320 343//343 352//352
f 344//344 329//329 345//345
f 344//344 345//345 353//353
f 344//344 353//353 354//354
f 335//335 365//365 334//334
f 355//355 335//335 331//331
f 356//356 336//336 358//358
f 358//358 337//337 338//338
f 357//357 339//339 334//334
f 357//357 334//334 365//365
f 358//358 338//338 359//359
f 339//339 360//360 359//359
f 347//347 346//346 362//362
f 349//349 350//350 361//361
f 361//361 346//346 349//349
f 348//348 350//350 349//349
f 348//348 351//351 350//350
f 351//351 348//348 344//344
f 351//351 344//344 354//354
f 363//363 352//352 343//343
f 347//347 363//363 343//343
f 352//352 374//374 355//355
f 354//354 364//364 351//351
f 375//375 335//335 355//355
f 366//366 353//353 356//356
f 339//339 357//357 360//360
f 357//357 365//365 377//377
f 358//358 359//359 367//367
f 367//367 368//368 358//358
f 360//360 367//367 359//359
f 357//357 369//369 360//360
f 350//350 351//351 364//364
f 346//346 361//361 362//362
f 361//361 370//370 362//362
f 373//373 370//370 361//361
f 362//362 371//371 347//347
f 374//374 352//352 363//363
f 347//347 371//371 363//363
f 354//354 389//389 364//364
f 383//383 354//354 353//353
f 389//389 354//354 383//383
f 373//373 361//361 350//350
f 373//373 350//350 364//364
f 364//364 382//382 373//373
f 382//382 364//364 389//389
f 375//375 365//365 335//335
f 365//365 375//375 376//376
f 375//375 355//355 374//374
f 353//353 366//366 383//383
f 366//366 356//356 358//358
f 366//366 358//358 368//368
f 366//366 368//368 380//380
f 367//367 378//378 368//368
f 367//367 360//360 369//369
f 378//378 367//367 369//369
f 357//357 377//377 369//369
f 379//379 362//362 370//370
f 362//362 379//379 371//371
f 379//379 435//435 371//371
f 371//371 372//372 363//363
f 363//363 372//372 374//374
f 371//371 435//435 372//372
f 392//392 376//376 375//375
f 392//392 377//377 376//376
f 369//369 377//377 384//384
f 376//376 377//377 365//365
f 380//380 368//368 378//378
f 382//382 381//381 373//373
f 381//381 370//370 373//373
f 370//370 381//381 379//379
f 433//433 435//435 379//379
f 380//380 399//399 366//366
f 399//399 383//383 366//366
f 392//392 384//384 377//377
f 380//380 378//378 386//386
f 387//387 369//369 384//384
f 378//378 369//369 387//387
f 392//392 375//375 462//462
f 385//385 399//399 380//380
f 385//385 394//394 399//399
f 387//387 386//386 378//378
f 385//385 380//380 386//386
f 414//414 385//385 386//386
f 385//385 414//414 393//393
f 414//414 386//386 387//387
f 388//388 381//381 382//382
f 382//382 389//389 390//390
f 389//389 383//383 391//391
f 391//391 390//390 389//389
f 382//382 390//390 388//388
f 391//391 383//383 399//399
f 398//398 391//391 399//399
f 375//375 463//463 462//462
f 405//405 384//384 392//392
f 393//393 394//394 385//385
f 408//408 394//394 393//393
f 394//394 408//408 407//407
f 387//387 384//384 415//415
f 384//384 405//405 415//415
f 405//405 416//416 415//415
f 409//409 393//393 414//414
f 408//408 393//393 409//409
f 418//418 387//387 415//415
f 381//381 433//433 379//379
f 381//381 388//388 433//433
f 436//436 374//374 372//372
f 397//397 390//390 395//395
f 390//390 391//391 395//395
f 395//395 391//391 398//398
f 390//390 397//397 396//396
f 396//396 388//388 390//390
f 433//433 388//388 396//396
f 397//397 434//434 396//396
f 372//372 435//435 436//436
f 436//436 463//463 374//374
f 375//375 374//374 463//463
f 401//401 398//398 399//399
f 400//400 401//401 399//399
f 440//440 398//398 401//401
f 401//401 439//439 440//440
f 400//400 439//439 401//401
f 402//402 399//399 394//394
f 399//399 402//402 400//400
f 402//402 439//439 400//400
f 442//442 406//406 392//392
f 392//392 462//462 442//442
f 404//404 403//403 394//394
f 404//404 394//394 410//410
f 394//394 403//403 402//402
f 392//392 406//406 405//405
f 405//405 406//406 417//417
f 442//442 417//417 406//406
f 412//412 447//447 413//413
f 448//448 447//447 412//412
f 412//412 409//409 448//448
f 410//410 394//394 407//407
f 410//410 407//407 411//411
f 411//411 407//407 408//408
f 411//411 408//408 412//412
f 404//404 410//410 411//411
f 413//413 411//411 412//412
f 412//412 408//408 409//409
f 404//404 411//411 413//413
f 421//421 415//415 416//416
f 417//417 416//416 405//405
f 417//417 445//445 416//416
f 424//424 416//416 445//445
f 449//449 409//409 414//414
f 425//425 449//449 414//414
f 448//448 409//409 449//449
f 453//453 449//449 425//425
f 418//418 414//414 387//387
f 418//418 425//425 414//414
f 418//418 420//420 419//419
f 418//418 415//415 420//420
f 427//427 419//419 426//426
f 427//427 418//418 419//419
f 415//415 421//421 420//420
f 420//420 422//422 430//430
f 420//420 421//421 422//422
f 420//420 430//430 419//419
f 421//421 416//416 422//422
f 424//424 422//422 416//416
f 423//423 422//422 424//424
f 423//423 424//424 451//451
f 450//450 423//423 451//451
f 427//427 426//426 429//429
f 418//418 427//427 425//425
f 429//429 425//425 427//427
f 454//454 425//425 429//429
f 454//454 429//429 457//457
f 419//419 430//430 426//426
f 430//430 431//431 426//426
f 426//426 428//428 429//429
f 428//428 426//426 431//431
f 455//455 431//431 432//432
f 429//429 428//428 457//457
f 457//457 428//428 455//455
f 428//428 431//431 455//455
f 430//430 422//422 431//431
f 431//431 422//422 432//432
f 423//423 432//432 422//422
f 450//450 432//432 423//423
f 456//456 455//455 432//432
f 395//395 507//507 397//397
f 396//396 434//434 433//433
f 437//437 395//395 398//398
f 437//437 398//398 438//438
f 507//507 395//395 437//437
f 507//507 437//437 512//512
f 460//460 463//463 436//436
f 438//438 398//398 440//440
f 465//465 440//440 439//439
f 465//465 438//438 440//440
f 441//441 444//444 467//467
f 439//439 402//402 465//465
f 402//402 403//403 465//465
f 465//465 403//403 441//441
f 441//441 403//403 404//404
f 444//444 441//441 404//404
f 443//443 413//413 447//447
f 444//444 413//413 443//443
f 444//444 443//443 468//468
f 467//467 444//444 468//468
f 464//464 467//467 468//468
f 444//444 404//404 413//413
f 442//442 446//446 417//417
f 446//446 445//445 417//417
f 451//451 445//445 446//446
f 442//442 472//472 446//446
f 446//446 472//472 451//451
f 470//470 468//468 443//443
f 447//447 470//470 443//443
f 448//448 470//470 447//447
f 452//452 473//473 448//448
f 468//468 470//470 471//471
f 448//448 449//449 452//452
f 449//449 453//453 452//452
f 472//472 450//450 451//451
f 472//472 456//456 450//450
f 445//445 451//451 424//424
f 453//453 483//483 452//452
f 425//425 494//494 453//453
f 494//494 425//425 454//454
f 456//456 458//458 455//455
f 456//456 477//477 458//458
f 450//450 456//456 432//432
f 453//453 494//494 483//483
f 494//494 457//457 497//497
f 497//497 457//457 458//458
f 457//457 494//494 454//454
f 455//455 458//458 457//457
f 397//397 459//459 434//434
f 507//507 459//459 397//397
f 434//434 459//459 433//433
f 436//436 435//435 506//506
f 509//509 435//435 433//433
f 509//509 506//506 435//435
f 512//512 437//437 438//438
f 436//436 506//506 460//460
f 461//461 438//438 465//465
f 465//465 466//466 461//461
f 514//514 461//461 466//466
f 438//438 461//461 512//512
f 512//512 461//461 514//514
f 464//464 514//514 466//466
f 466//466 441//441 467//467
f 465//465 441//441 466//466
f 466//466 467//467 464//464
f 516//516 442//442 462//462
f 516//516 472//472 442//442
f 464//464 471//471 514//514
f 471//471 464//464 468//468
f 473//473 470//470 448//448
f 471//471 470//470 539//539
f 469//469 456//456 472//472
f 469//469 477//477 456//456
f 475//475 541//541 539//539
f 478//478 474//474 470//470
f 470//470 473//473 478//478
f 480//480 475//475 474//474
f 478//478 480//480 474//474
f 470//470 474//474 539//539
f 474//474 475//475 539//539
f 475//475 480//480 541//541
f 473//473 452//452 478//478
f 476//476 505//505 477//477
f 548//548 505//505 476//476
f 503//503 548//548 547//547
f 503//503 505//505 548//548
f 476//476 477//477 469//469
f 483//483 479//479 478//478
f 478//478 479//479 480//480
f 480//480 479//479 481//481
f 491//491 481//481 479//479
f 482//482 481//481 491//491
f 482//482 491//491 492//492
f 481//481 549//549 480//480
f 549//549 541//541 480//480
f 550//550 549//549 481//481
f 550//550 481//481 482//482
f 492//492 550//550 482//482
f 483//483 478//478 452//452
f 483//483 494//494 484//484
f 485//485 483//483 484//484
f 495//495 484//484 494//494
f 486//486 485//485 484//484
f 487//487 486//486 484//484
f 484//484 495//495 487//487
f 487//487 495//495 499//499
f 479//479 483//483 485//485
f 479//479 485//485 491//491
f 488//488 491//491 485//485
f 485//485 486//486 488//488
f 488//488 486//486 489//489
f 486//486 487//487 489//489
f 489//489 487//487 490//490
f 487//487 499//499 490//490
f 492//492 491//491 488//488
f 492//492 488//488 489//489
f 490//490 501//501 493//493
f 493//493 492//492 489//489
f 490//490 493//493 489//489
f 492//492 493//493 551//551
f 501//501 504//504 493//493
f 550//550 492//492 551//551
f 553//553 504//504 556//556
f 551//551 504//504 553//553
f 504//504 551//551 493//493
f 496//496 495//495 494//494
f 496//496 494//494 497//497
f 496//496 497//497 500//500
f 500//500 497//497 498//498
f 498//498 497//497 458//458
f 495//495 496//496 499//499
f 496//496 500//500 499//499
f 505//505 498//498 458//458
f 490//490 499//499 501//501
f 500//500 501//501 499//499
f 500//500 502//502 501//501
f 502//502 500//500 498//498
f 498//498 505//505 503//503
f 502//502 498//498 503//503
f 501//501 502//502 504//504
f 504//504 502//502 503//503
f 503//503 556//556 504//504
f 505//505 458//458 477//477
f 459//459 509//509 433//433
f 509//509 511//511 506//506
f 459//459 507//507 510//510
f 515//515 507//507 512//512
f 508//508 510//510 507//507
f 509//509 459//459 510//510
f 558//558 511//511 509//509
f 511//511 460//460 506//506
f 511//511 565//565 460//460
f 566//566 565//565 511//511
f 508//508 507//507 515//515
f 560//560 508//508 559//559
f 565//565 513//513 460//460
f 513//513 463//463 460//460
f 567//567 522//522 513//513
f 512//512 514//514 515//515
f 514//514 524//524 515//515
f 515//515 525//525 508//508
f 526//526 569//569 508//508
f 525//525 526//526 508//508
f 559//559 508//508 569//569
f 523//523 568//568 528//528
f 462//462 463//463 518//518
f 462//462 518//518 516//516
f 472//472 516//516 517//517
f 519//519 516//516 518//518
f 517//517 516//516 519//519
f 517//517 519//519 520//520
f 513//513 518//518 463//463
f 518//518 521//521 519//519
f 521//521 520//520 519//519
f 520//520 529//529 517//517
f 513//513 522//522 521//521
f 513//513 521//521 518//518
f 521//521 523//523 520//520
f 523//523 528//528 520//520
f 522//522 523//523 521//521
f 471//471 524//524 514//514
f 525//525 515//515 524//524
f 525//525 524//524 531//531
f 526//526 574//574 569//569
f 538//538 469//469 529//529
f 538//538 529//529 527//527
f 529//529 520//520 528//528
f 529//529 528//528 527//527
f 472//472 517//517 469//469
f 529//529 469//469 517//517
f 530//530 471//471 539//539
f 540//540 530//530 539//539
f 524//524 471//471 530//530
f 531//531 524//524 530//530
f 531//531 530//530 532//532
f 532//532 530//530 540//540
f 540//540 543//543 532//532
f 533//533 525//525 531//531
f 533//533 531//531 532//532
f 526//526 525//525 533//533
f 533//533 532//532 535//535
f 535//535 532//532 534//534
f 532//532 543//543 534//534
f 526//526 535//535 574//574
f 533//533 535//535 526//526
f 574//574 535//535 536//536
f 574//574 536//536 546//546
f 536//536 535//535 534//534
f 574//574 545//545 571//571
f 527//527 545//545 537//537
f 571//571 545//545 527//527
f 469//469 538//538 476//476
f 476//476 538//538 548//548
f 527//527 537//537 538//538
f 537//537 548//548 538//538
f 539//539 541//541 540//540
f 541//541 542//542 540//540
f 540//540 542//542 543//543
f 543//543 542//542 544//544
f 543//543 544//544 534//534
f 534//534 544//544 536//536
f 536//536 544//544 546//546
f 544//544 552//552 555//555
f 555//555 554//554 545//545
f 544//544 555//555 546//546
f 546//546 545//545 574//574
f 546//546 555//555 545//545
f 547//547 537//537 545//545
f 554//554 547//547 545//545
f 537//537 547//547 548//548
f 542//542 541//541 549//549
f 550//550 542//542 549//549
f 544//544 542//542 550//550
f 550//550 552//552 544//544
f 556//556 554//554 553//553
f 551//551 552//552 550//550
f 553//553 552//552 551//551
f 552//552 553//553 555//555
f 553//553 554//554 555//555
f 556//556 503//503 547//547
f 547//547 554//554 556//556
f 510//510 557//557 509//509
f 508//508 560//560 510//510
f 558//558 509//509 557//557
f 560//560 557//557 510//510
f 557//557 562//562 558//558
f 562//562 566//566 558//558
f 511//511 558//558 566//566
f 557//557 560//560 563//563
f 559//559 564//564 563//563
f 559//559 561//561 564//564
f 564//564 561//561 572//572
f 562//562 557//557 563//563
f 563//563 568//568 562//562
f 559//559 563//563 560//560
f 568//568 563//563 564//564
f 562//562 568//568 566//566
f 568//568 567//567 566//566
f 567//567 565//565 566//566
f 567//567 568//568 522//522
f 565//565 567//567 513//513
f 522//522 568//568 523//523
f 559//559 569//569 570//570
f 570//570 571//571 572//572
f 572//572 571//571 573//573
f 559//559 570//570 561//561
f 572//572 573//573 564//564
f 561//561 570//570 572//572
f 573//573 527//527 528//528
f 564//564 573//573 568//568
f 568//568 573//573 528//528
f 569//569 571//571 570//570
f 573//573 571//571 527//527
f 569//569 574//574 571//571
