# Wavafront OBJ file of BodyParts3D
# BodyParts3D, Copyright(C) 2010-2011 The Database Center for Life Science licensed under CC Attribution-Share Alike 2.1 Japan.
vn -0.882874 0.465639 -0.0609358
v 10.5586 -124.604 1339.8
vn -0.765614 0.642431 0.0334368
v 10.8499 -124.166 1340.84
vn -0.985338 0.169212 0.0218455
v 10.2302 -125.685 1340.21
vn -0.961479 0.201008 -0.187494
v 10.2935 -125.78 1338.66
vn -0.725815 0.619551 -0.298912
v 11.0841 -124.465 1337.7
vn -0.677139 0.706473 0.205862
v 10.9477 -124.235 1342.34
vn -0.961713 0.195924 0.191631
v 10.49 -125.195 1342.28
vn -0.902446 0.409841 0.132747
v 10.6732 -124.669 1342.33
vn -0.824094 0.432381 0.365946
v 11.002 -124.972 1343.77
vn -0.906619 0.139663 0.398165
v 10.9949 -126.367 1344.68
vn -0.986533 -0.0516761 0.155187
v 10.3135 -127.003 1342.06
vn -0.910868 -0.169433 0.376314
v 11.1108 -127.75 1344.9
vn -0.899514 0.0313448 0.435766
v 13.7574 -126.933 1349.2
vn -0.535806 0.839019 -0.0946573
v 11.215 -123.845 1339.8
vn -0.129525 0.990901 -0.0365809
v 11.7487 -123.664 1340.25
vn -0.162955 0.945752 -0.281068
v 12.0635 -123.996 1337.61
vn 0.180002 0.976952 -0.114738
v 12.5679 -123.812 1338.7
vn -0.480244 0.874338 0.0699866
v 11.2537 -123.854 1341.33
vn -0.581225 0.735393 0.348389
v 11.6638 -124.219 1343.77
vn -0.236662 0.961656 0.138598
v 11.8567 -123.733 1342.27
vn 0.143793 0.989491 -0.0151763
v 13.0524 -123.74 1342.6
vn -0.460153 0.850393 0.255129
v 14.6779 -124.326 1348.39
vn -0.00643246 0.999935 0.00944571
v 15.2934 -124.029 1346.29
vn -0.77283 0.446103 0.451361
v 14.323 -125.37 1349.32
vn -0.675719 0.601142 0.426652
v 16.6488 -124.799 1353.13
vn -0.0856539 0.996171 0.0175038
v 16.9109 -123.702 1350.17
vn -0.329152 0.906291 0.265132
v 17.1864 -123.941 1352.14
vn -0.863864 -0.21638 -0.454883
v 11.5043 -130.191 1334.81
vn -0.942698 -0.31175 0.11888
v 10.6533 -129.283 1341.19
vn -0.857736 0.319991 -0.402362
v 11.2588 -126.108 1335.4
vn -0.4737 0.724179 -0.501172
v 11.8218 -125.255 1335.43
vn -0.616785 0.518847 -0.591924
v 11.9248 -126.089 1334.45
vn -0.851815 0.142032 -0.504221
v 11.5478 -127.132 1334.29
vn -0.70561 0.300949 -0.641517
v 12.1119 -127.005 1333.62
vn -0.465055 0.545006 -0.697634
v 12.4908 -126.68 1333.46
vn -0.765612 0.0441008 -0.641789
v 12.1291 -127.737 1333.4
vn -0.626117 0.265263 -0.733221
v 12.4476 -127.353 1333.16
vn -0.394957 0.44264 -0.805033
v 12.7909 -126.99 1333.07
vn -0.0246283 0.681331 -0.731561
v 13.1684 -126.658 1333.21
vn -0.554966 0.154545 -0.817391
v 12.756 -127.67 1332.83
vn 0.372391 0.701107 -0.608091
v 13.8794 -126.724 1333.38
vn -0.730996 -0.0858865 -0.676955
v 12.4475 -128.774 1333.12
vn -0.145591 0.430192 -0.89092
v 13.4253 -127.641 1332.53
vn 0.297899 0.594582 -0.746813
v 13.8485 -127.302 1332.8
vn -0.990018 -0.135897 -0.0373675
v 10.2222 -128.172 1338.35
vn -0.96153 -0.0786885 -0.263187
v 10.5611 -128.792 1336.68
vn -0.882075 -0.168306 0.440019
v 13.2786 -129.317 1347.93
vn -0.843784 0.075668 0.531322
v 16.0873 -129.887 1354.56
vn 0.0176342 0.905797 -0.423345
v 12.722 -124.44 1336.43
vn -0.125854 0.796398 -0.591532
v 12.7293 -125.388 1334.76
vn 0.328699 0.84689 -0.418012
v 13.4561 -124.95 1335.73
vn 0.236132 0.785875 -0.571527
v 13.3899 -125.971 1334.07
vn 0.538935 0.723468 -0.431444
v 14.0293 -125.62 1335.04
vn 0.554463 0.618397 -0.556916
v 14.2636 -127.05 1333.35
vn 0.336599 0.909493 -0.243973
v 13.2172 -124.232 1337.4
vn 0.560453 0.787301 -0.257002
v 13.8625 -124.83 1336.71
vn 0.347508 0.921598 -0.172904
v 15.1212 -124.448 1342.18
vn -0.785976 0.309314 0.535319
v 16.0405 -126.309 1353.53
vn -0.529024 0.325613 0.783651
v 18.4454 -127.253 1356.6
vn 0.279782 0.957348 0.0721561
v 18.5209 -123.87 1351.94
vn -0.387262 0.719615 0.576353
v 17.9295 -124.644 1354.48
vn -0.000435897 0.94677 0.321911
v 18.115 -124.14 1353.5
vn -0.355899 0.493828 0.793391
v 18.8707 -125.568 1355.74
vn 0.327154 0.864232 0.382194
v 19.1575 -124.671 1354.29
vn 0.492049 0.715317 0.496194
v 19.8776 -125.761 1355.56
vn 0.416741 0.869722 0.264405
v 21.2282 -125.926 1353.29
vn -0.191885 0.461368 0.86621
v 19.5818 -126.274 1356.33
vn -0.798002 -0.406673 -0.444758
v 13.142 -132.565 1333.73
vn -0.739741 -0.59402 -0.316108
v 13.5424 -133.83 1334.51
vn -0.886805 -0.450036 -0.10509
v 11.5012 -131.45 1336.68
vn -0.906214 -0.359171 0.223096
v 12.8378 -133.076 1344.42
vn -0.94684 -0.195753 0.255295
v 14.3812 -133.65 1349.21
vn -0.896446 -0.115563 0.427819
v 15.9074 -136.309 1353.72
vn -0.296706 0.0326762 -0.95441
v 14.0526 -129.707 1331.9
vn 0.106224 0.234705 -0.966245
v 14.41 -129.358 1331.9
vn -0.562122 0.017014 -0.82688
v 13.3933 -129.035 1332.28
vn -0.264759 0.207185 -0.941795
v 13.7991 -128.737 1332.1
vn 0.216807 0.426594 -0.878073
v 14.0976 -128.325 1332.23
vn 0.520767 0.528354 -0.670555
v 14.5172 -128.03 1332.64
vn -0.744091 -0.233012 -0.626126
v 13.4431 -131.211 1332.54
vn -0.538874 -0.120169 -0.833771
v 13.737 -130.805 1332.14
vn 0.510498 0.358632 -0.781521
v 15.4679 -129.708 1332.22
vn 0.0374803 0.00188253 -0.999296
v 14.7556 -130.419 1331.8
vn -0.693195 -0.350685 -0.629683
v 13.8113 -132.292 1332.58
vn -0.447726 -0.27753 -0.850011
v 14.114 -131.896 1332.14
vn -0.714215 -0.0423845 0.698641
v 17.0546 -132.252 1356.14
vn -0.423328 -0.166007 0.890638
v 19.1091 -132.162 1357.74
vn 0.64584 0.56264 -0.516069
v 16.774 -129.106 1334.15
vn 0.579821 0.685216 -0.44078
v 16.3483 -126.787 1337.08
vn 0.0615709 0.36926 0.927284
v 20.1728 -128.972 1357.77
vn -0.419317 0.0907802 0.90329
v 19.121 -130.751 1357.86
vn 0.353731 0.531491 0.76967
v 21.5238 -128.833 1356.93
vn -0.18545 -0.0899803 0.978525
v 19.8783 -131.51 1358.11
vn 0.00968145 0.14122 0.989931
v 20.6015 -130.817 1358.18
vn 0.287586 0.387774 0.875743
v 21.2706 -130.079 1357.82
vn 0.0268568 -0.0779462 0.996596
v 22.0298 -132.26 1358.12
vn 0.272593 0.939123 -0.209146
v 23.6642 -126.36 1345.71
vn 0.445878 0.725864 0.52375
v 21.4415 -126.969 1355.15
vn 0.506858 0.604014 0.61503
v 21.1377 -127.553 1356.14
vn 0.309556 0.664705 0.679957
v 22.0505 -128.06 1356.05
vn -0.886124 -0.444148 0.132352
v 16.2286 -140.394 1351.59
vn -0.542538 -0.511018 -0.666718
v 14.2143 -133.429 1332.93
vn -0.915605 -0.401191 0.0267215
v 15.2024 -137.505 1345.5
vn -0.923924 -0.380736 -0.0374886
v 15.7844 -139.623 1349.72
vn -0.960026 -0.210507 0.18449
v 15.3371 -137.714 1351.58
vn -0.865679 -0.362525 0.345219
v 16.6615 -140.438 1353.22
vn -0.768967 -0.239128 0.592881
v 17.115 -139.674 1354.61
vn -0.683559 -0.49315 0.538098
v 17.442 -140.73 1354.42
vn -0.439653 -0.355807 0.824686
v 18.0351 -140.364 1355.17
vn -0.0399006 -0.286894 -0.957131
v 15.1535 -132.237 1332.01
vn 0.464474 0.0936174 -0.880625
v 16.6476 -131.605 1332.43
vn 0.689431 0.356294 -0.630666
v 17.9822 -131.506 1333.63
vn -0.0873712 -0.23483 0.968102
v 22.6634 -136.464 1357.47
vn 0.655582 0.489099 -0.57532
v 20.3582 -129.554 1338.02
vn 0.79178 0.2488 -0.557838
v 22.0736 -131.067 1339.19
vn 0.136693 0.223265 0.965126
v 24.8478 -132.267 1357.84
vn 0.684366 0.24545 -0.686584
v 22.9494 -129.271 1340.83
vn 0.411121 0.643131 -0.646036
v 25.8553 -127.902 1343.63
vn 0.491832 0.145004 -0.858531
v 26.198 -128.945 1343.45
vn 0.304073 0.386876 -0.870555
v 26.9363 -128.351 1343.91
vn 0.290812 0.145137 -0.945708
v 26.9642 -129.001 1343.77
vn 0.142184 0.6524 0.744418
v 28.7518 -130.086 1356.16
vn 0.18863 0.814404 -0.548785
v 26.628 -127.419 1344.6
vn 0.114302 0.991637 -0.059918
v 27.5828 -126.717 1347.1
vn 0.0281185 0.934872 0.35387
v 29.2748 -128.029 1353.29
vn -0.772071 0.586085 0.245786
v 98.4138 -63.6778 1359.52
vn -0.718623 0.694774 0.0294901
v 102.334 -58.4683 1356.05
vn -0.630818 0.692122 0.350764
v 101.39 -60.9789 1360.45
vn -0.513636 0.818881 0.256147
v 104.363 -56.9451 1356.97
vn -0.896272 -0.408545 -0.172592
v 17.2792 -141.795 1345.11
vn -0.707514 -0.641893 0.29563
v 17.9025 -142.608 1352.56
vn -0.278864 -0.852313 0.44249
v 19.2814 -143.451 1352.74
vn -0.377769 -0.636534 -0.672395
v 17.3965 -137.048 1333.99
vn -0.823468 -0.544737 -0.158626
v 17.1228 -139.846 1340.29
vn -0.833221 -0.449051 -0.322638
v 18.5671 -142.428 1341.76
vn -0.35754 -0.670648 0.64992
v 18.6896 -142.252 1354.02
vn 0.216916 -0.285352 -0.933553
v 18.6167 -136.412 1333.47
vn 0.756247 0.329015 -0.565544
v 21.1088 -134.623 1335.79
vn 0.608171 0.154196 -0.778686
v 20.782 -136.443 1334.57
vn -0.078599 -0.506171 0.858844
v 23.1404 -141.241 1355.78
vn 0.764107 0.309715 -0.565877
v 22.8606 -132.745 1340.24
vn 0.618158 0.187266 -0.763422
v 24.0162 -132.059 1341.82
vn 0.414929 0.532944 -0.737431
v 24.8779 -133.33 1341.71
vn 0.281618 0.574163 -0.768783
v 25.3363 -135.248 1339.99
vn 0.394378 0.199906 -0.896941
v 26.189 -131.069 1343.33
vn 0.190337 0.381087 -0.904734
v 27.6581 -131.836 1343.55
vn 0.0351033 0.0246093 0.999081
v 29.9058 -134.524 1358.1
vn 0.121219 0.306277 -0.944193
v 31.044 -128.836 1344.72
vn 0.132935 0.627508 -0.767178
v 31.9527 -128.082 1345.21
vn -0.0330038 0.346529 -0.937459
v 29.8594 -131.208 1343.93
vn -0.0461558 0.964043 -0.261709
v 34.6232 -126.708 1347.54
vn -0.872444 0.413927 -0.259821
v 94.5937 -70.5774 1354.58
vn -0.788172 0.302902 0.535757
v 96.9124 -68.5033 1362.16
vn -0.795956 0.53766 -0.278166
v 97.792 -64.5532 1355.42
vn -0.69738 0.463749 -0.546442
v 96.8856 -67.2255 1353.66
vn -0.319719 0.206221 -0.924799
v 97.5283 -67.1741 1353.14
vn -0.814139 0.568481 -0.118351
v 97.8957 -63.9155 1357.02
vn -0.880576 0.444381 0.164654
v 96.7712 -65.7277 1357.97
vn -0.670482 0.430621 0.604168
v 98.4198 -65.7593 1362.3
vn -0.500604 0.246811 0.829747
v 98.0326 -68.1014 1363.07
vn -0.726756 0.524871 -0.443098
v 100.434 -61.5458 1354.91
vn -0.633773 0.5916 0.49834
v 99.5498 -63.3652 1361.43
vn -0.45524 0.476736 0.751984
v 100.045 -63.847 1362.31
vn -0.30464 0.271745 0.91288
v 102.045 -65.8322 1363.94
vn -0.681053 0.0199941 -0.731961
v 104.424 -59.2434 1351.68
vn -0.776603 0.481944 -0.405732
v 103.43 -58.2062 1353.37
vn -0.580946 0.309406 -0.752841
v 102.446 -61.489 1352.71
vn -0.493427 0.65298 0.574584
v 103.687 -59.7282 1361.29
vn -0.622502 0.638207 -0.452971
v 105.026 -57.0079 1351.75
vn -0.780267 0.279838 -0.559351
v 104.429 -57.8266 1351.76
vn -0.288298 0.858086 -0.424938
v 105.935 -56.5057 1351.68
vn -0.530262 0.100921 -0.841806
v 105.339 -58.0557 1350.69
vn -0.404732 0.667332 -0.625189
v 106.037 -57.3404 1350.59
vn 0.130562 0.562043 -0.816738
v 107.526 -56.704 1350.99
vn 0.0967075 -0.0358958 -0.994665
v 106.73 -58.0433 1350.43
vn -0.530832 0.840764 -0.106457
v 104.636 -56.5607 1354.42
vn -0.156508 0.967401 -0.1991
v 108.866 -55.1653 1353.45
vn 0.0503376 0.861249 -0.505684
v 109.404 -55.3825 1352.83
vn -0.31774 0.94801 -0.0178371
v 107.175 -55.5357 1356.21
vn -0.139035 0.964947 -0.222592
v 111.168 -54.624 1356.23
vn -0.439893 0.710985 0.54863
v 108.404 -56.6702 1361.49
vn -0.431239 0.821076 0.373989
v 110.41 -55.1547 1360.87
vn -0.279464 0.465905 0.839543
v 110.256 -58.4874 1364.02
vn -0.353656 0.738248 0.574384
v 112.567 -54.4741 1361.65
vn -0.381741 0.905558 0.185039
v 113.691 -53.4979 1360.59
vn -0.867336 -0.426827 -0.256023
v 18.6138 -144.327 1343.54
vn -0.741978 -0.646657 -0.176928
v 19.1252 -145.482 1344.32
vn -0.726463 -0.529068 -0.438563
v 19.6959 -144.899 1341.76
vn -0.56191 -0.761087 -0.324043
v 20.2739 -145.988 1342.55
vn -0.366302 -0.913861 -0.175158
v 20.7266 -146.371 1342.93
vn -0.830629 -0.556796 -0.00582001
v 18.5888 -144.917 1345.5
vn -0.566408 -0.795955 0.21363
v 19.0942 -145.123 1347.95
vn -0.211628 -0.93169 0.295241
v 20.4807 -145.818 1347.64
vn -0.449588 -0.892647 0.0324182
v 20.0084 -146.269 1345.1
vn -0.71294 -0.584428 -0.387505
v 19.4053 -142.553 1340.08
vn -0.483662 -0.629259 -0.608362
v 20.503 -142.475 1338.59
vn 0.0215472 -0.766711 0.64163
v 23.7118 -142.549 1354.73
vn 0.598258 0.383919 -0.703344
v 23.813 -137.321 1337.05
vn 0.486074 -0.144072 -0.86196
v 22.1433 -138.511 1335.41
vn 0.490377 0.043149 -0.870442
v 25.0697 -140 1337.51
vn 0.433136 0.365226 -0.824016
v 27.1408 -138.193 1338.97
vn 0.0961856 -0.494682 0.863735
v 27.5376 -139.269 1356.52
vn -0.00536227 0.533095 -0.846038
v 29.7464 -133.241 1343.14
vn 0.136787 0.605216 -0.784221
v 29.4776 -135.137 1341.33
vn -0.0108012 0.509759 -0.86025
v 31.3119 -134.851 1341.64
vn 0.161798 0.425829 -0.89022
v 30.4842 -136.162 1340.87
vn -0.0987151 0.41649 -0.903765
v 30.521 -131.883 1343.56
vn -0.106571 0.467375 -0.877612
v 33.5605 -132.843 1342.36
vn -0.0330196 0.630632 -0.775379
v 35.3639 -127.743 1345.76
vn -0.770835 0.462042 -0.438555
v 89.1185 -82.0854 1355.4
vn -0.717682 0.433308 0.545139
v 89.4393 -83.0005 1361.35
vn -0.825435 0.351685 -0.441559
v 91.3914 -78.7083 1354.77
vn -0.671278 0.221006 -0.70749
v 91.6708 -79.0005 1354.25
vn -0.865869 0.47724 0.15004
v 92.0162 -76.4479 1357.25
vn -0.833128 0.428388 0.34983
v 92.8564 -75.8453 1358.73
vn -0.851069 0.514326 0.105596
v 91.021 -78.2666 1358.17
vn -0.896791 0.431102 -0.099587
v 91.7464 -76.9067 1356.2
vn -0.714606 0.408609 0.567782
v 94.0516 -76.9865 1361.96
vn -0.683901 0.206835 -0.699641
v 93.6007 -75.2909 1352.95
vn -0.262209 0.0705486 -0.962429
v 94.9377 -74.5206 1352.36
vn 0.0406819 0.0523348 -0.997801
v 95.6479 -73.8167 1352.35
vn -0.364065 -0.0460142 -0.930236
v 93.9226 -76.3313 1352.69
vn 0.00141992 -0.115053 -0.993358
v 95.3045 -75.6004 1352.39
vn -0.905459 0.410603 0.107466
v 92.8181 -74.4329 1356.38
vn -0.765384 0.281953 0.578524
v 95.0099 -75.1099 1362.07
vn -0.600131 0.264114 0.755041
v 95.725 -76.5171 1363.3
vn -0.531125 0.284774 -0.798004
v 95.4288 -71.3029 1352.82
vn 0.0287686 -0.164081 -0.986027
v 99.6115 -66.4423 1352.75
vn 0.113035 -0.0476159 -0.992449
v 98.2188 -68.5852 1352.93
vn 0.255491 -0.244153 -0.935475
v 100.104 -68.3434 1353.57
vn -0.166918 -0.192072 -0.967081
v 105.147 -61.3937 1351.67
vn -0.00254112 0.910224 -0.414107
v 112.336 -55.1112 1354.45
vn 0.174369 0.656136 -0.734221
v 111.76 -55.9641 1352.96
vn 0.271634 0.0720649 -0.959699
v 111.654 -58.0033 1352.21
vn 0.0213243 0.788926 -0.614118
v 114.221 -55.3115 1354.14
vn -0.315644 0.893224 -0.320188
v 115.314 -53.0485 1358.36
vn -0.15111 0.816976 -0.556521
v 116.398 -53.4675 1356.6
vn -0.287209 0.649741 -0.703809
v 119.47 -52.3029 1356.67
vn -0.414104 0.907964 0.0641807
v 118.644 -51.4013 1360.11
vn -0.480236 0.790316 -0.380492
v 122.009 -49.8712 1357.76
vn -0.329328 0.835467 0.439931
v 119.903 -51.2239 1361.47
vn -0.191792 0.605195 0.772629
v 121.439 -51.3378 1362.24
vn -0.363293 0.931644 0.0075693
v 125.188 -48.1009 1358.02
vn -0.157179 0.752509 0.63955
v 124.652 -49.622 1361.47
vn -0.310056 0.89844 0.310919
v 124.915 -48.5051 1359.54
vn -0.37211 -0.689994 -0.620841
v 21.5115 -145.717 1340.86
vn -0.20863 -0.886664 -0.412676
v 21.7846 -146.419 1341.74
vn -0.0699046 -0.993682 -0.0877991
v 22.4383 -146.743 1342.62
vn -0.0400484 -0.986351 0.15971
v 21.9042 -146.597 1345.26
vn 0.0336787 -0.58994 -0.806744
v 23.5677 -143.442 1338.3
vn -0.00551983 -0.766472 -0.642254
v 23.508 -145.477 1340.07
vn 0.146931 -0.925399 -0.349353
v 25.7506 -146.287 1341.66
vn 0.287731 -0.71064 -0.64203
v 26.2989 -145.44 1340.67
vn 0.132757 -0.960994 0.242625
v 25.7172 -146.151 1346.81
vn 0.174314 -0.983891 0.0396605
v 26.5377 -146.313 1344.6
vn 0.00390866 -0.929391 0.369075
v 24.5237 -145.683 1348.57
vn 0.101577 -0.901477 0.42074
v 27.472 -144.28 1351.3
vn 0.309694 0.28282 -0.907801
v 30.0357 -137.853 1340.23
vn 0.377206 -0.0497044 -0.924795
v 30.771 -139.304 1340.32
vn 0.148024 0.269968 -0.951423
v 31.9877 -135.538 1341.36
vn 0.059662 0.168104 -0.983962
v 34.5742 -133.874 1341.95
vn -0.102233 0.417907 -0.902719
v 41.8699 -130.559 1342.96
vn -0.106658 0.644085 0.757481
v 47.8423 -128.505 1356.28
vn -0.252016 0.951008 0.179086
v 47.524 -124.78 1348.88
vn -0.816483 0.430974 0.38421
v 84.006 -90.9518 1359.58
vn -0.653124 0.263467 0.70994
v 84.8849 -91.1998 1360.94
vn -0.352127 0.0357636 0.935269
v 86.4507 -91.341 1361.83
vn -0.514489 0.239029 0.823509
v 89.0142 -85.3977 1362.11
vn -0.529799 0.339923 -0.777024
v 90.4954 -82.8025 1353.48
vn -0.128972 0.119313 -0.984444
v 91.846 -82.7548 1352.96
vn 0.252052 -0.150786 -0.955894
v 91.5066 -85.2529 1353.01
vn -0.400853 0.109571 -0.909567
v 92.9599 -78.8988 1353.33
vn -0.0977535 -0.0745973 -0.992411
v 94.3423 -78.8792 1353.02
vn 0.155475 -0.139192 -0.977984
v 95.7838 -78.9115 1353.09
vn -0.187884 -0.0435449 0.981225
v 96.481 -80.8066 1364.55
vn 0.063025 -0.236061 0.969692
v 98.2775 -81.9084 1364.57
vn 0.245063 -0.0973701 -0.964605
v 96.3927 -75.2756 1352.5
vn -0.292785 0.129664 0.947346
v 99.7768 -75.5949 1365.2
vn 0.1269 -0.264958 0.955873
v 100.882 -77.4171 1365.35
vn -0.0757757 0.0226119 0.996868
v 112.05 -67.3583 1366.15
vn 0.251143 -0.296335 -0.921473
v 111.347 -61.2406 1352.45
vn 0.223421 -0.389531 -0.893504
v 113.331 -62.5074 1353.68
vn 0.273834 -0.241028 -0.931086
v 113.233 -60.9999 1353.09
vn -0.166317 0.197956 0.965998
v 114.084 -61.6086 1365.59
vn 0.105887 0.342 -0.933715
v 115.864 -56.3002 1353.24
vn -0.0429209 0.616422 -0.786245
v 119.882 -54.8913 1354.63
vn -0.0959564 0.453828 0.885908
v 122.559 -54.296 1364.22
vn -0.0930714 0.334712 0.937713
v 123.373 -58.1834 1366.12
vn -0.373519 0.441481 -0.81583
v 122.967 -50.8683 1356.19
vn -0.178182 0.423498 -0.888201
v 121.465 -52.9156 1355.68
vn -0.456086 0.573237 -0.680724
v 124.742 -49.1086 1356.16
vn -0.362634 0.820079 -0.442681
v 125.927 -48.1695 1356.36
vn -0.347515 0.473122 -0.809561
v 126.742 -49.0143 1355.21
vn -0.233166 0.102137 -0.967058
v 126.006 -51.8279 1355
vn -0.190665 0.925295 0.327837
v 127.087 -47.8605 1359.29
vn -0.151478 0.98846 0.00059514
v 127.377 -47.4727 1357.76
vn -0.147805 0.8564 -0.494705
v 130.284 -47.6197 1355.02
vn 0.00198333 0.927468 0.373897
v 129.819 -47.7632 1359.9
vn 0.0347363 0.682491 0.730068
v 131.389 -48.6137 1361.07
vn 0.389762 -0.883837 -0.258686
v 27.5203 -145.985 1342.45
vn 0.450908 -0.482207 -0.751104
v 29.0906 -143.99 1340.89
vn 0.383789 -0.910455 -0.154199
v 33.8049 -143.654 1346.9
vn 0.294015 -0.94844 0.118392
v 35.4264 -143.081 1350.81
vn 0.183664 -0.817841 0.545347
v 34.1096 -143.159 1351.51
vn 0.389648 -0.451554 -0.802667
v 34.6454 -140.333 1342.23
vn 0.427962 -0.781636 -0.453755
v 35.2184 -142.28 1344.83
vn 0.320877 -0.722753 -0.6121
v 38.7972 -140.484 1344.52
vn 0.197967 -0.099152 -0.975181
v 37.5112 -136.829 1342.35
vn 0.243288 -0.436019 -0.866428
v 38.7073 -138.731 1343.1
vn 0.0191179 -0.00817176 -0.999784
v 40.3661 -134.026 1342.39
vn 0.0197881 0.230966 0.972761
v 47.9414 -130.014 1356.88
vn 0.0906465 -0.1602 0.982914
v 49.0347 -131.826 1356.96
vn -0.199109 0.799788 -0.5663
v 50.2951 -124.543 1345.93
vn -0.112197 0.404227 0.907751
v 56.6198 -125.305 1355.29
vn -0.436419 0.814399 -0.382483
v 58.1325 -121.322 1346.63
vn -0.304618 0.703128 -0.64251
v 56.095 -123.562 1344.95
vn -0.40757 0.890209 -0.203505
v 56.4825 -121.773 1347.39
vn -0.469158 0.871062 -0.145402
v 58.2903 -120.738 1348.27
vn -0.453486 0.847317 0.276413
v 56.2292 -122.427 1351.42
vn -0.354354 0.709986 0.608567
v 57.2441 -123.125 1353.73
vn -0.550076 0.832067 0.0712775
v 58.7325 -120.443 1349.78
vn -0.552381 0.648834 0.523345
v 60.8804 -120.404 1353.53
vn -0.500164 0.792105 -0.349864
v 62.356 -118.463 1347.44
vn -0.652149 0.75777 -0.0220287
v 63.8973 -116.404 1350.55
vn -0.72665 0.650625 0.220605
v 68.127 -112.821 1352.42
vn -0.596398 0.41163 0.689108
v 70.5027 -112.32 1355.22
vn -0.729379 0.667852 -0.148255
v 71.951 -108.907 1350.32
vn -0.649562 0.333477 0.683273
v 73.2829 -108.722 1355.76
vn -0.802468 0.596611 -0.0100043
v 73.5673 -106.233 1352.48
vn -0.775902 0.492503 0.394229
v 73.9183 -106.538 1354.93
vn -0.734421 0.563973 -0.377572
v 77.4371 -100.89 1353.12
vn -0.577113 0.510114 -0.637749
v 78.7994 -101.59 1351.32
vn -0.845428 0.5149 0.141881
v 77.0723 -101.201 1354.66
vn -0.766343 0.360978 0.531426
v 76.9007 -103.113 1356.98
vn -0.470893 0.380608 -0.795863
v 82.8539 -94.2954 1352.31
vn 0.0962181 0.0413823 -0.9945
v 84.2583 -93.5843 1352.16
vn -0.0994335 -0.162023 0.981764
v 87.5464 -93.1549 1361.93
vn 0.156383 0.0748026 -0.98486
v 88.7298 -93.0998 1353.34
vn 0.265449 -0.113052 -0.957474
v 90.9202 -88.9086 1353.74
vn 0.396124 -0.435495 0.80835
v 100.573 -84.253 1363.15
vn 0.284364 -0.132781 -0.949477
v 102.227 -79.6825 1355.42
vn 0.178763 -0.210878 -0.961028
v 110.546 -68.8791 1356.33
vn 0.0701842 -0.310149 0.948094
v 112.018 -70.8843 1365.85
vn 0.149808 -0.231663 -0.961192
v 119.06 -59.0505 1353.82
vn -0.00859888 0.254054 -0.967152
v 124.117 -56.3307 1354.21
vn 0.0270104 -0.207807 -0.977797
v 123.756 -59.5202 1354.1
vn -0.0313814 0.129903 0.99103
v 124.954 -59.7678 1366.68
vn 0.0377995 0.321043 0.94631
v 127.761 -58.3465 1366.23
vn -0.00584606 0.465655 0.884947
v 129.232 -53.4761 1364.3
vn 0.109316 0.993994 -0.00506672
v 131.763 -47.332 1356.6
vn -0.210609 0.448604 -0.868561
v 130.805 -48.8817 1353.72
vn -0.0570921 0.711486 -0.700377
v 131.69 -48.3499 1353.92
vn -0.284392 0.10413 -0.953036
v 130.428 -49.9251 1353.57
vn 0.248894 0.82917 0.500528
v 132.57 -48.3943 1360.56
vn 0.243618 0.9459 0.214297
v 133.261 -47.9331 1358.84
vn 0.105013 0.480242 0.870827
v 133.693 -51.6076 1363.12
vn 0.207973 0.64081 0.738993
v 134.893 -50.7035 1362.29
vn 0.185767 0.914282 -0.359972
v 133.527 -47.9177 1354.71
vn 0.333787 0.942623 -0.00693825
v 135.171 -48.27 1355.94
vn 0.40385 0.877388 0.259027
v 135.367 -48.7463 1358.91
vn 0.306753 -0.896961 -0.318377
v 38.9742 -141.705 1346.88
vn 0.307368 -0.950475 0.0460702
v 43.5408 -140.631 1349.89
vn 0.104176 -0.333575 -0.93695
v 42.9723 -136.644 1342.98
vn 0.201921 -0.65533 -0.727853
v 46.125 -137.667 1344.28
vn 0.132829 -0.500446 0.855518
v 50.5959 -135.564 1355.37
vn 0.200023 -0.392595 0.897697
v 52.4599 -133.882 1355.91
vn 0.125456 -0.057844 0.990412
v 60.3041 -128.3 1355.9
vn -0.240345 0.289263 0.926586
v 61.969 -122.178 1355.27
vn -0.327017 0.616823 -0.715954
v 63.7102 -119.156 1345.61
vn -0.47214 0.681912 -0.558642
v 67.2045 -114.827 1347.66
vn -0.251947 0.520481 -0.815857
v 69.5387 -115.073 1346.54
vn -0.398215 0.245229 0.883905
v 72.4519 -112.135 1356.27
vn -0.481373 0.134792 0.86609
v 74.3048 -109.733 1356.76
vn -0.119578 -0.107123 0.987029
v 77.2844 -111.304 1357.48
vn 0.0837317 0.18593 -0.978989
v 83.4867 -100.631 1351.59
vn 0.168491 -0.342341 0.924345
v 86.1023 -103.828 1359.21
vn -0.00467453 0.265398 -0.964128
v 86.0939 -98.2743 1352.33
vn -0.189945 0.472281 -0.860739
v 90.7474 -96.5797 1352.16
vn -0.0538812 0.406519 -0.912052
v 93.6349 -94.5112 1352.63
vn -0.0441509 0.299551 -0.953058
v 93.7946 -91.8087 1353.74
vn 0.183344 0.0329029 -0.982498
v 99.707 -84.2486 1355.19
vn 0.330052 -0.202036 -0.922089
v 103.419 -83.7142 1356.08
vn 0.203216 -0.197044 -0.959102
v 115.329 -71.5582 1357.12
vn -0.00928307 -0.153959 0.988034
v 120.315 -67.168 1366.4
vn 0.108119 0.15807 0.981491
v 131.032 -60.931 1366.49
vn -0.0811709 -0.198385 -0.976757
v 132.29 -54.638 1353.91
vn -0.197658 -0.191481 -0.961388
v 134.952 -52.3758 1352.67
vn 0.245692 0.492182 0.8351
v 136.343 -52.1545 1362.89
vn 0.357038 0.679827 0.640593
v 136.716 -51.1569 1361.95
vn -0.0487738 0.255447 -0.965592
v 135.97 -50.5683 1352.37
vn 0.0457233 0.639041 -0.767812
v 134.651 -49.2215 1353.13
vn 0.475904 0.876854 0.0681311
v 138.468 -49.6513 1355.25
vn 0.27163 0.743674 -0.610874
v 138.693 -50.2427 1353.09
vn 0.444423 0.882129 -0.156001
v 139.155 -50.0677 1354.06
vn 0.453172 0.786195 0.420157
v 137.111 -50.3417 1360.47
vn 0.219809 -0.73904 -0.636792
v 54.2558 -135.224 1343.87
vn 0.328855 -0.938326 -0.106762
v 53.2586 -137.361 1348.32
vn 0.339483 -0.894219 -0.291761
v 55.7838 -136.011 1346.08
vn 0.390412 -0.918424 0.0638452
v 56.6952 -136.142 1350
vn 0.26967 -0.628641 0.729444
v 52.9797 -135.854 1354.58
vn 0.338194 -0.854481 0.394318
v 54.1328 -136.33 1353.43
vn 0.132647 -0.496536 -0.857821
v 57.1409 -132.484 1342.26
vn 0.423592 -0.683081 0.594954
v 58.572 -133.701 1353.62
vn -0.0691724 0.185156 -0.980272
v 58.8089 -127.789 1341.54
vn 0.0486115 -0.161231 -0.985719
v 59.8833 -129.584 1341.49
vn 0.384878 -0.484467 0.785596
v 60.8374 -130.994 1354.64
vn -0.156433 0.460465 -0.873785
v 59.9155 -126.769 1341.78
vn 0.0515902 0.157578 -0.986158
v 64.1933 -126.114 1341.71
vn 0.197854 -0.306832 0.930972
v 64.8635 -125.096 1355.4
vn 0.40807 -0.540357 0.735862
v 67.8753 -125.321 1354.05
vn 0.24847 -0.437778 0.864068
v 69.5048 -122.675 1355.42
vn 0.347416 -0.638609 0.686644
v 68.322 -124.338 1354.65
vn 0.205817 -0.328131 0.921938
v 74.5971 -117.144 1356.12
vn -0.173632 0.431636 -0.885179
v 79.4688 -109.426 1348.47
vn -0.129758 0.34758 -0.928629
v 86.1668 -105.539 1347.94
vn 0.527428 -0.528896 0.664898
v 88.043 -105.103 1357.83
vn 0.453198 -0.0112376 -0.891339
v 88.0075 -104.547 1348.31
vn -0.202958 0.504219 -0.839388
v 88.4746 -102.162 1349.09
vn 0.159993 0.304315 -0.939039
v 88.8007 -102.495 1348.88
vn 0.0695549 0.396111 -0.915564
v 90.4432 -99.8611 1350.33
vn 0.544106 -0.0150496 -0.838882
v 90.7816 -100.916 1350.17
vn 0.773524 -0.602738 0.195877
v 93.7203 -100.207 1356.31
vn 0.781934 -0.388521 -0.487473
v 94.6604 -98.3728 1353.35
vn 0.26198 0.150184 -0.953316
v 97.4 -91.891 1353.93
vn 0.638232 -0.257757 -0.725411
v 97.2734 -94.1948 1354.03
vn 0.648021 -0.602674 0.465676
v 99.2134 -92.9394 1357.47
vn 0.786002 -0.579078 -0.216494
v 100.619 -91.5372 1356.42
vn 0.449523 -0.121814 -0.884924
v 101.211 -88.6001 1355.54
vn 0.524685 -0.625776 0.577157
v 104.603 -86.2694 1359.05
vn 0.72149 -0.682409 0.117347
v 105.91 -85.4687 1358.47
vn 0.544049 -0.651613 0.528593
v 106.809 -84.2246 1359.51
vn 0.710203 -0.501574 -0.493999
v 104.769 -86.4679 1357.49
vn 0.697017 -0.69223 -0.187042
v 107.282 -84.0119 1358.46
vn 0.580657 -0.409587 -0.703616
v 107.427 -83.4572 1358
vn 0.566826 -0.642191 -0.516042
v 110.983 -80.6352 1358.83
vn 0.580281 -0.809453 0.0897734
v 111.178 -80.8118 1359.82
vn 0.36384 -0.650656 0.666534
v 110.894 -80.5108 1360.59
vn 0.249418 -0.354724 -0.901089
v 117.067 -76.8168 1359.46
vn 0.284489 -0.73118 0.620034
v 119.245 -75.421 1361.54
vn 0.16642 -0.460174 -0.872092
v 120.993 -73.683 1358.99
vn 0.141964 -0.716998 0.682467
v 121.879 -73.7984 1362.43
vn -0.0539803 -0.514365 0.855871
v 125.544 -69.6218 1365.45
vn 0.0568864 -0.313206 -0.94798
v 125.399 -66.7914 1357.6
vn -0.157999 -0.386684 -0.908577
v 137.91 -55.3497 1353.22
vn 0.195649 0.28879 0.937188
v 138.252 -57.5967 1364.69
vn 0.254923 0.377508 -0.890226
v 138.833 -51.3254 1352.35
vn 0.562077 0.675611 -0.477095
v 139.822 -50.644 1353.37
vn 0.625681 0.771359 -0.116313
v 139.97 -50.639 1353.86
vn 0.624143 0.780219 0.0412803
v 140.623 -51.1048 1355.23
vn 0.0169832 -0.0972132 -0.995119
v 139.538 -53.4601 1352.22
vn 0.462473 0.268311 -0.845061
v 141.037 -52.8321 1352.68
vn 0.542491 0.809407 0.224862
v 140.197 -51.1714 1357.84
vn 0.371636 0.489097 0.789095
v 139.293 -53.7134 1362.74
vn 0.506501 0.648112 0.568689
v 140.868 -53.39 1361.52
vn 0.464202 -0.817614 0.340622
v 60.3262 -134.098 1351.23
vn 0.236354 -0.618065 -0.749754
v 60.9242 -132.029 1342.76
vn 0.333903 -0.788898 -0.515897
v 61.489 -132.582 1343.62
vn 0.439616 -0.893935 -0.0872769
v 61.9641 -133.695 1347.48
vn 0.424473 -0.860187 -0.282666
v 63.0548 -132.706 1345.4
vn 0.516317 -0.839094 0.171282
v 64.2192 -132.381 1349.35
vn 0.25398 -0.352681 -0.900617
v 63.5467 -129.717 1342.05
vn 0.405465 -0.630594 -0.661778
v 63.9737 -130.84 1342.96
vn 0.486428 -0.78567 -0.382243
v 64.598 -131.443 1344.32
vn 0.518743 -0.84649 -0.119837
v 64.6987 -132.088 1346.76
vn 0.510861 -0.690085 0.512644
v 64.7437 -130.725 1352.05
vn 0.448374 -0.471064 -0.759644
v 67.9816 -127.774 1343.27
vn 0.585655 -0.781726 -0.214272
v 68.8593 -129.305 1346.5
vn 0.541643 -0.675567 -0.500232
v 68.7563 -128.53 1344.58
vn 0.505421 -0.596282 0.623696
v 69.9838 -126.79 1351.43
vn 0.569506 -0.728854 0.380046
v 68.9967 -128.661 1350.14
vn 0.588124 -0.804444 0.0835485
v 68.1072 -129.936 1348.06
vn 0.3131 -0.208654 -0.926516
v 69.3644 -124.917 1342.8
vn 0.625895 -0.746875 0.224573
v 72.2775 -126.302 1349.44
vn 0.446324 -0.679454 0.582355
v 71.5933 -124.127 1352.67
vn 0.570444 -0.724302 0.387273
v 75.474 -123.115 1350.4
vn 0.350051 -0.5544 0.755053
v 72.9621 -121.917 1354.66
vn 0.453931 -0.739282 0.497401
v 75.138 -122.011 1353.16
vn 0.432092 -0.55377 0.711783
v 75.6863 -121.131 1353.79
vn -0.0572211 0.397401 -0.915859
v 76.1365 -116.073 1345.22
vn 0.34135 -0.0573028 -0.938188
v 77.0868 -119.181 1344.34
vn 0.718724 -0.45758 -0.523503
v 81.2233 -116.912 1346.78
vn 0.619936 -0.689048 0.375357
v 79.9188 -119.048 1351.8
vn 0.107722 0.197601 -0.974346
v 82.3788 -112.404 1346.38
vn 0.594614 -0.586537 0.549917
v 83.6666 -112.825 1354.74
vn 0.825007 -0.528587 -0.199899
v 86.2886 -111.307 1349.83
vn 0.729653 -0.604951 0.31881
v 86.1515 -111.096 1353.45
vn 0.641868 -0.244375 -0.726834
v 86.7249 -108.229 1348.13
vn 0.221776 -0.972183 0.0753349
v 122.71 -74.6767 1360.41
vn 0.200927 -0.896883 0.393991
v 123.771 -74.309 1361.31
vn 0.0360928 -0.789835 0.612257
v 124.977 -73.561 1362.25
vn 0.0922146 -0.972597 0.213427
v 125.473 -74.1658 1361.07
vn 0.0942527 -0.917143 -0.387254
v 126.291 -74.027 1360.45
vn 0.0386281 -0.58208 -0.812214
v 126.741 -73.1747 1359.48
vn -0.0879956 -0.903981 0.41842
v 127.517 -73.815 1361.87
vn 0.00982853 -0.988966 -0.147816
v 127.711 -74.0329 1360.74
vn -0.172075 -0.721598 0.670587
v 128.067 -72.9237 1363.15
vn -0.0326312 -0.352443 -0.935264
v 130.201 -71.6187 1358.45
vn -0.0752884 -0.231302 0.969965
v 132.846 -70.5777 1366.38
vn -0.0428147 -0.307013 -0.950742
v 133.604 -67.9695 1357.42
vn 0.0337578 -0.065819 0.99726
v 132.897 -66.3582 1366.84
vn 0.137131 -0.42768 -0.893468
v 141.502 -56.8419 1353.27
vn -0.0750213 -0.423612 -0.902732
v 139.679 -59.9348 1355.29
vn 0.696311 0.325442 -0.639718
v 142.357 -53.4348 1353.62
vn 0.768259 0.606362 -0.205192
v 142.731 -53.1541 1354.62
vn 0.270453 -0.138825 -0.952672
v 141.406 -55.3354 1352.69
vn 0.563668 -0.0730868 -0.822761
v 142.583 -55.7998 1353.35
vn 0.685306 0.694717 0.218457
v 143.614 -54.3821 1359.43
vn 0.649373 -0.760294 0.0163652
v 73.2333 -125.889 1347.31
vn 0.592372 -0.647489 -0.47943
v 74.2167 -124.089 1344.85
vn 0.526742 -0.409389 -0.744945
v 74.9656 -122.722 1344.4
vn 0.697037 -0.621523 -0.357559
v 77.1547 -122.053 1346.2
vn 0.749888 -0.661331 0.0175862
v 80.5737 -119.031 1350.17
vn 0.0121309 -0.648864 -0.760808
v 132.778 -72.7849 1359.11
vn 0.0168494 -0.934339 -0.355988
v 132.12 -74.2129 1361.06
vn -0.218732 -0.727736 0.650043
v 132.06 -73.5956 1364.22
vn -0.0126698 -0.476167 0.879264
v 134.223 -71.9743 1365.99
vn -0.0653882 -0.714748 0.696319
v 134.489 -73.5392 1364.87
vn -0.0519201 -0.951517 0.303183
v 134.755 -74.3722 1363.69
vn 0.0902952 -0.714107 0.694189
v 135.729 -73.6896 1364.66
vn 0.0632679 -0.201718 0.977398
v 134.623 -70.9516 1366.3
vn 0.0186626 -0.252689 -0.967368
v 137.787 -67.9418 1356.71
vn 0.0677747 -0.283096 -0.956694
v 141.22 -62.1869 1355.94
vn 0.233021 0.0678261 0.970104
v 140.96 -66.7005 1365.75
vn 0.145713 -0.417026 -0.897138
v 142.659 -59.025 1354.86
vn 0.349109 -0.236922 -0.906637
v 144.173 -62.3128 1356.53
vn 0.436158 0.178977 0.881892
v 146.997 -62.1865 1363.27
vn 0.521321 -0.260024 -0.81278
v 144.035 -57.9465 1354.79
vn 0.829469 0.171648 -0.531524
v 145.051 -56.9369 1355.79
vn 0.864686 0.486227 -0.126099
v 145.572 -56.8448 1357.26
vn 0.667807 0.605892 0.432352
v 146.429 -58.6467 1361.47
vn 0.833279 0.530039 0.157181
v 147.089 -59.372 1361.27
vn 0.938498 0.282532 -0.198486
v 147.703 -60.5496 1360
vn 0.428708 0.350952 0.832492
v 146.751 -61.2305 1363.12
vn 0.654324 0.50545 0.562477
v 147.268 -60.1672 1362.16
vn 0.703738 0.324914 0.63181
v 147.694 -61.2652 1362.46
vn 0.215519 -0.590778 0.777517
v 140.524 -72.6774 1364.57
vn 0.109006 -0.985097 -0.133049
v 138.739 -74.4686 1362.56
vn 0.181517 -0.905222 0.384219
v 138.907 -74.3946 1363.05
vn 0.134944 -0.494937 -0.858386
v 141.89 -70.6406 1357.73
vn 0.224089 -0.23971 0.944629
v 140.259 -70.2554 1365.74
vn 0.612625 -0.163688 -0.773238
v 145.172 -66.1406 1357.59
vn 0.298156 -0.258259 -0.918915
v 143.649 -68.8663 1357.59
vn 0.551873 -0.336242 -0.763137
v 144.681 -69.1835 1358.27
vn 0.834958 -0.0435607 -0.548587
v 148.224 -63.4786 1360.54
vn 0.387819 0.0454805 0.920613
v 146.734 -65.4623 1363.79
vn 0.813673 0.165875 0.557155
v 148.328 -63.5426 1362.58
vn 0.618656 0.0045345 0.785649
v 147.731 -65.7676 1363.29
vn 0.942176 -0.00924185 0.334992
v 148.622 -65.2666 1362.28
vn 0.985369 -0.0421063 -0.165151
v 148.67 -65.3249 1361.75
vn 0.908944 0.353127 0.221634
v 148.044 -61.4668 1361.86
vn 0.9887 0.149862 -0.00360018
v 148.508 -63.0344 1361.58
vn 0.40918 -0.514443 -0.753605
v 143.405 -70.738 1358.28
vn 0.215848 -0.797161 -0.563866
v 143.212 -72.638 1360.07
vn 0.515586 -0.652098 -0.555823
v 144.497 -71.8056 1359.99
vn 0.329955 -0.516385 0.790238
v 144.593 -71.8287 1363.64
vn 0.323365 -0.793779 0.515121
v 144.143 -72.7947 1362.97
vn 0.428677 -0.895188 -0.121961
v 144.336 -73.0103 1361.89
vn 0.509586 -0.726373 0.4612
v 145.613 -72.1643 1362.83
vn 0.63288 -0.461012 -0.622038
v 145.595 -70.0807 1359.54
vn 0.712476 -0.277033 -0.644694
v 147.015 -68.4111 1360.06
vn 0.468371 -0.144464 0.871641
v 146.736 -69.0173 1363.7
vn 0.47207 -0.396289 0.787468
v 145.98 -71.1018 1363.43
vn 0.725501 -0.176188 0.665286
v 147.703 -68.5865 1363.03
vn 0.872478 -0.480953 0.0864055
v 147.581 -69.8979 1362.32
vn 0.728984 -0.344079 0.59177
v 147.418 -69.7218 1362.88
vn 0.75241 -0.396298 -0.526143
v 147.425 -69.0576 1360.93
vn 0.873128 -0.415014 -0.255756
v 147.769 -69.3868 1361.85
vn 0.929907 -0.3323 -0.157637
v 148.13 -68.5611 1361.91
vn 0.920038 -0.315998 0.231679
v 148.012 -68.9105 1362.39
vn 0.645477 -0.633544 -0.426593
v 146.348 -71.5063 1361.78
vn 0.728555 -0.683508 -0.0449851
v 146.456 -71.6055 1362.26
vn 0.716586 -0.533595 0.449199
v 146.695 -71.1251 1362.8
vn 0.781696 -0.508952 -0.360443
v 147.253 -70.2869 1361.81
vn 0.853222 -0.153294 -0.49851
v 148.222 -67.0175 1361.08
vn 0.869298 -0.124948 0.478236
v 148.338 -67.1049 1362.54
vn 0.859798 -0.292851 -0.418313
v 148.076 -68.2839 1361.44
vn 0.979807 -0.195845 -0.040293
v 148.351 -67.8404 1361.97
vn 0.203332 0.801181 0.562819
v 18.8707 -125.568 1355.74
vn 0.445255 0.606073 0.659109
v 19.5818 -126.274 1356.33
vn -0.0372198 0.190037 -0.981071
v 106.037 -57.3404 1350.59
vn -0.426211 0.588014 -0.687447
v 71.951 -108.907 1350.32
vn -0.0547435 0.256054 -0.965111
v 78.7994 -101.59 1351.32
vn 0.461353 -0.879896 -0.113743
v 117.067 -76.8168 1359.46
vn 0.203709 -0.690992 -0.693565
v 122.71 -74.6767 1360.41
f 31//31 30//30 5//5
f 16//16 31//31 5//5
f 3//3 8//8 1//1
f 5//5 1//1 14//14
f 1//1 2//2 14//14
f 1//1 8//8 2//2
f 8//8 6//6 2//2
f 2//2 18//18 14//14
f 2//2 6//6 18//18
f 1//1 4//4 3//3
f 5//5 4//4 1//1
f 14//14 16//16 5//5
f 4//4 45//45 3//3
f 11//11 3//3 45//45
f 3//3 7//7 8//8
f 7//7 9//9 8//8
f 7//7 10//10 9//9
f 8//8 9//9 6//6
f 6//6 9//9 19//19
f 24//24 19//19 9//9
f 7//7 3//3 11//11
f 10//10 24//24 9//9
f 11//11 12//12 10//10
f 7//7 11//11 10//10
f 29//29 12//12 11//11
f 71//71 12//12 29//29
f 10//10 12//12 13//13
f 10//10 13//13 24//24
f 49//49 31//31 16//16
f 15//15 14//14 18//18
f 17//17 15//15 21//21
f 15//15 16//16 14//14
f 16//16 15//15 17//17
f 17//17 55//55 16//16
f 49//49 16//16 55//55
f 18//18 20//20 15//15
f 18//18 6//6 20//20
f 6//6 19//19 20//20
f 19//19 22//22 20//20
f 15//15 20//20 21//21
f 21//21 20//20 23//23
f 20//20 22//22 23//23
f 21//21 57//57 17//17
f 19//19 24//24 22//22
f 23//23 22//22 26//26
f 13//13 58//58 24//24
f 58//58 25//25 24//24
f 24//24 25//25 22//22
f 25//25 27//27 22//22
f 26//26 22//22 27//27
f 23//23 26//26 57//57
f 25//25 61//61 27//27
f 57//57 26//26 60//60
f 60//60 26//26 27//27
f 27//27 61//61 62//62
f 70//70 45//45 46//46
f 28//28 70//70 46//46
f 45//45 70//70 29//29
f 31//31 32//32 30//30
f 4//4 5//5 30//30
f 50//50 32//32 31//31
f 30//30 33//33 46//46
f 30//30 46//46 4//4
f 33//33 30//30 32//32
f 33//33 32//32 34//34
f 32//32 35//35 34//34
f 50//50 35//35 32//32
f 36//36 28//28 33//33
f 28//28 46//46 33//33
f 36//36 33//33 34//34
f 35//35 37//37 34//34
f 35//35 50//50 39//39
f 36//36 34//34 37//37
f 38//38 37//37 35//35
f 38//38 35//35 39//39
f 42//42 28//28 36//36
f 36//36 37//37 40//40
f 37//37 38//38 40//40
f 42//42 36//36 40//40
f 43//43 40//40 38//38
f 38//38 39//39 43//43
f 43//43 39//39 44//44
f 39//39 41//41 44//44
f 44//44 41//41 54//54
f 40//40 76//76 42//42
f 76//76 40//40 77//77
f 77//77 40//40 43//43
f 45//45 29//29 11//11
f 45//45 4//4 46//46
f 47//47 12//12 71//71
f 13//13 12//12 47//47
f 48//48 58//58 13//13
f 59//59 58//58 48//48
f 50//50 31//31 49//49
f 50//50 49//49 51//51
f 51//51 49//49 55//55
f 51//51 55//55 56//56
f 52//52 50//50 51//51
f 53//53 52//52 51//51
f 39//39 50//50 52//52
f 53//53 51//51 56//56
f 41//41 39//39 52//52
f 52//52 53//53 41//41
f 89//89 53//53 56//56
f 53//53 54//54 41//41
f 57//57 55//55 17//17
f 57//57 56//56 55//55
f 89//89 56//56 57//57
f 23//23 57//57 21//21
f 61//61 25//25 58//58
f 58//58 59//59 61//61
f 63//63 61//61 59//59
f 63//63 59//59 67//67
f 67//67 59//59 90//90
f 579//579 92//92 99//99
f 92//92 579//579 90//90
f 59//59 91//91 90//90
f 60//60 97//97 57//57
f 97//97 60//60 66//66
f 61//61 64//64 62//62
f 27//27 62//62 60//60
f 60//60 62//62 64//64
f 64//64 61//61 578//578
f 60//60 64//64 66//66
f 578//578 65//65 64//64
f 65//65 578//578 579//579
f 64//64 65//65 66//66
f 65//65 99//99 98//98
f 65//65 98//98 66//66
f 65//65 579//579 99//99
f 70//70 28//28 68//68
f 68//68 28//28 80//80
f 70//70 68//68 69//69
f 69//69 134//134 70//70
f 84//84 68//68 80//80
f 102//102 68//68 84//84
f 70//70 71//71 29//29
f 70//70 103//103 71//71
f 103//103 70//70 134//134
f 103//103 72//72 71//71
f 71//71 72//72 47//47
f 47//47 72//72 13//13
f 105//105 13//13 72//72
f 105//105 72//72 103//103
f 73//73 48//48 13//13
f 105//105 73//73 13//13
f 75//75 77//77 78//78
f 82//82 75//75 78//78
f 75//75 83//83 74//74
f 80//80 28//28 42//42
f 80//80 42//42 81//81
f 81//81 42//42 76//76
f 78//78 77//77 43//43
f 79//79 78//78 44//44
f 44//44 78//78 43//43
f 79//79 44//44 54//54
f 74//74 81//81 76//76
f 75//75 74//74 77//77
f 74//74 76//76 77//77
f 82//82 78//78 79//79
f 54//54 88//88 79//79
f 83//83 75//75 82//82
f 79//79 88//88 82//82
f 81//81 83//83 85//85
f 80//80 81//81 85//85
f 83//83 81//81 74//74
f 84//84 80//80 85//85
f 85//85 102//102 84//84
f 110//110 85//85 83//83
f 85//85 110//110 102//102
f 110//110 83//83 111//111
f 82//82 111//111 83//83
f 111//111 82//82 112//112
f 112//112 82//82 88//88
f 110//110 111//111 137//137
f 86//86 48//48 73//73
f 48//48 86//86 59//59
f 59//59 86//86 91//91
f 93//93 91//91 87//87
f 91//91 86//86 87//87
f 113//113 93//93 87//87
f 86//86 109//109 87//87
f 87//87 109//109 113//113
f 54//54 53//53 88//88
f 89//89 88//88 53//53
f 88//88 89//89 114//114
f 89//89 57//57 118//118
f 91//91 94//94 90//90
f 91//91 93//93 94//94
f 94//94 95//95 90//90
f 95//95 92//92 90//90
f 94//94 93//93 96//96
f 116//116 95//95 94//94
f 116//116 92//92 95//95
f 93//93 113//113 96//96
f 94//94 96//96 116//116
f 97//97 118//118 57//57
f 97//97 66//66 124//124
f 98//98 99//99 100//100
f 99//99 92//92 100//100
f 92//92 122//122 100//100
f 122//122 98//98 100//100
f 92//92 116//116 122//122
f 98//98 122//122 66//66
f 191//191 101//101 104//104
f 101//101 131//131 106//106
f 131//131 108//108 106//106
f 69//69 195//195 134//134
f 69//69 68//68 102//102
f 69//69 102//102 133//133
f 195//195 69//69 133//133
f 103//103 134//134 104//104
f 104//104 130//130 191//191
f 105//105 103//103 104//104
f 106//106 73//73 105//105
f 104//104 101//101 105//105
f 101//101 106//106 105//105
f 106//106 107//107 73//73
f 107//107 86//86 73//73
f 108//108 107//107 106//106
f 86//86 107//107 109//109
f 107//107 108//108 109//109
f 133//133 102//102 110//110
f 114//114 112//112 88//88
f 110//110 137//137 133//133
f 138//138 112//112 115//115
f 140//140 113//113 109//109
f 115//115 112//112 114//114
f 115//115 114//114 117//117
f 138//138 115//115 141//141
f 89//89 117//117 114//114
f 141//141 115//115 117//117
f 117//117 142//142 141//141
f 116//116 96//96 113//113
f 147//147 116//116 113//113
f 117//117 89//89 118//118
f 142//142 117//117 119//119
f 123//123 118//118 97//97
f 119//119 117//117 118//118
f 120//120 119//119 118//118
f 121//121 119//119 120//120
f 142//142 119//119 145//145
f 120//120 148//148 121//121
f 66//66 125//125 124//124
f 120//120 118//118 123//123
f 123//123 97//97 124//124
f 66//66 122//122 125//125
f 126//126 162//162 128//128
f 162//162 168//168 128//128
f 157//157 126//126 127//127
f 127//127 166//166 157//157
f 126//126 128//128 127//127
f 128//128 168//168 129//129
f 128//128 129//129 127//127
f 166//166 127//127 176//176
f 127//127 129//129 176//176
f 176//176 129//129 179//179
f 191//191 130//130 186//186
f 192//192 131//131 191//191
f 108//108 131//131 136//136
f 131//131 101//101 191//191
f 136//136 131//131 132//132
f 192//192 132//132 131//131
f 192//192 193//193 132//132
f 133//133 196//196 195//195
f 250//250 196//196 133//133
f 195//195 135//135 134//134
f 134//134 130//130 104//104
f 135//135 130//130 134//134
f 136//136 109//109 108//108
f 140//140 109//109 136//136
f 132//132 197//197 136//136
f 136//136 197//197 140//140
f 140//140 197//197 202//202
f 250//250 133//133 137//137
f 250//250 137//137 199//199
f 139//139 111//111 112//112
f 138//138 139//139 112//112
f 137//137 111//111 139//139
f 137//137 139//139 199//199
f 139//139 198//198 199//199
f 138//138 198//198 139//139
f 202//202 113//113 140//140
f 142//142 145//145 143//143
f 138//138 141//141 198//198
f 141//141 143//143 198//198
f 143//143 141//141 142//142
f 144//144 198//198 143//143
f 144//144 201//201 198//198
f 113//113 202//202 147//147
f 119//119 121//121 145//145
f 146//146 145//145 121//121
f 146//146 121//121 148//148
f 143//143 145//145 146//146
f 144//144 143//143 146//146
f 150//150 203//203 146//146
f 203//203 150//150 207//207
f 120//120 123//123 149//149
f 149//149 148//148 120//120
f 146//146 148//148 150//150
f 207//207 150//150 148//148
f 151//151 123//123 124//124
f 149//149 123//123 151//151
f 116//116 147//147 122//122
f 124//124 125//125 151//151
f 149//149 151//151 209//209
f 264//264 151//151 125//125
f 153//153 215//215 225//225
f 155//155 227//227 152//152
f 227//227 155//155 156//156
f 224//224 215//215 158//158
f 153//153 226//226 160//160
f 225//225 226//226 153//153
f 157//157 154//154 152//152
f 161//161 155//155 154//154
f 154//154 155//155 152//152
f 155//155 161//161 167//167
f 155//155 167//167 156//156
f 152//152 158//158 157//157
f 158//158 126//126 157//157
f 126//126 158//158 159//159
f 224//224 158//158 152//152
f 153//153 159//159 158//158
f 159//159 162//162 126//126
f 158//158 215//215 153//153
f 159//159 164//164 163//163
f 159//159 153//153 160//160
f 164//164 159//159 160//160
f 160//160 278//278 164//164
f 160//160 226//226 278//278
f 157//157 161//161 154//154
f 156//156 167//167 231//231
f 228//228 156//156 231//231
f 159//159 163//163 162//162
f 162//162 163//163 168//168
f 164//164 183//183 163//163
f 183//183 168//168 163//163
f 161//161 157//157 166//166
f 167//167 161//161 166//166
f 170//170 165//165 166//166
f 165//165 167//167 166//166
f 167//167 165//165 231//231
f 168//168 181//181 129//129
f 169//169 172//172 170//170
f 170//170 166//166 169//169
f 165//165 170//170 172//172
f 172//172 169//169 173//173
f 173//173 169//169 171//171
f 171//171 174//174 173//173
f 175//175 172//172 580//580
f 580//580 174//174 175//175
f 172//172 175//175 231//231
f 165//165 172//172 231//231
f 176//176 169//169 166//166
f 176//176 171//171 169//169
f 129//129 181//181 182//182
f 182//182 185//185 129//129
f 179//179 129//129 185//185
f 168//168 183//183 181//181
f 176//176 179//179 177//177
f 177//177 171//171 176//176
f 179//179 180//180 177//177
f 174//174 171//171 178//178
f 178//178 177//177 232//232
f 178//178 171//171 177//177
f 180//180 232//232 177//177
f 174//174 178//178 233//233
f 233//233 178//178 232//232
f 184//184 185//185 182//182
f 182//182 181//181 184//184
f 183//183 184//184 181//181
f 183//183 242//242 184//184
f 242//242 183//183 287//287
f 287//287 183//183 288//288
f 236//236 179//179 185//185
f 180//180 179//179 236//236
f 232//232 180//180 236//236
f 184//184 242//242 241//241
f 184//184 241//241 185//185
f 195//195 188//188 135//135
f 130//130 135//135 186//186
f 191//191 187//187 194//194
f 191//191 186//186 187//187
f 186//186 135//135 188//188
f 187//187 186//186 188//188
f 189//189 187//187 188//188
f 187//187 189//189 194//194
f 189//189 190//190 194//194
f 188//188 246//246 189//189
f 189//189 247//247 190//190
f 194//194 192//192 191//191
f 194//194 193//193 192//192
f 249//249 193//193 194//194
f 249//249 256//256 193//193
f 196//196 188//188 195//195
f 188//188 196//196 246//246
f 193//193 256//256 132//132
f 256//256 197//197 132//132
f 257//257 197//197 256//256
f 257//257 304//304 197//197
f 199//199 198//198 200//200
f 199//199 301//301 250//250
f 200//200 301//301 199//199
f 304//304 202//202 197//197
f 200//200 198//198 201//201
f 202//202 304//304 365//365
f 206//206 144//144 204//204
f 146//146 203//203 144//144
f 203//203 207//207 208//208
f 204//204 203//203 205//205
f 204//204 144//144 203//203
f 203//203 208//208 205//205
f 204//204 205//205 206//206
f 260//260 206//206 205//205
f 365//365 147//147 202//202
f 209//209 207//207 148//148
f 209//209 208//208 207//207
f 209//209 148//148 149//149
f 260//260 205//205 208//208
f 260//260 208//208 261//261
f 313//313 208//208 209//209
f 313//313 209//209 151//151
f 264//264 125//125 263//263
f 122//122 263//263 125//125
f 147//147 263//263 122//122
f 313//313 151//151 264//264
f 212//212 210//210 217//217
f 213//213 210//210 212//212
f 217//217 210//210 216//216
f 268//268 226//226 211//211
f 226//226 268//268 278//278
f 213//213 222//222 272//272
f 216//216 215//215 214//214
f 217//217 214//214 224//224
f 216//216 214//214 217//217
f 216//216 211//211 215//215
f 211//211 218//218 215//215
f 211//211 226//226 218//218
f 212//212 217//217 152//152
f 217//217 224//224 152//152
f 212//212 152//152 219//219
f 152//152 227//227 219//219
f 220//220 219//219 227//227
f 213//213 219//219 222//222
f 213//213 212//212 219//219
f 221//221 220//220 227//227
f 219//219 220//220 222//222
f 272//272 222//222 273//273
f 273//273 222//222 223//223
f 222//222 220//220 223//223
f 221//221 223//223 220//220
f 223//223 221//221 277//277
f 274//274 273//273 223//223
f 274//274 223//223 277//277
f 214//214 215//215 224//224
f 215//215 218//218 225//225
f 225//225 218//218 226//226
f 221//221 156//156 229//229
f 227//227 156//156 221//221
f 221//221 230//230 277//277
f 229//229 156//156 228//228
f 229//229 228//228 230//230
f 221//221 229//229 230//230
f 280//280 284//284 278//278
f 230//230 228//228 231//231
f 284//284 164//164 278//278
f 281//281 230//230 231//231
f 281//281 231//231 175//175
f 175//175 234//234 281//281
f 284//284 183//183 164//164
f 175//175 174//174 234//234
f 234//234 174//174 233//233
f 233//233 232//232 235//235
f 288//288 183//183 284//284
f 237//237 286//286 235//235
f 235//235 285//285 233//233
f 235//235 286//286 285//285
f 233//233 285//285 234//234
f 232//232 236//236 237//237
f 237//237 235//235 232//232
f 239//239 236//236 185//185
f 238//238 237//237 236//236
f 236//236 289//289 238//238
f 185//185 241//241 239//239
f 239//239 240//240 236//236
f 289//289 290//290 238//238
f 236//236 240//240 289//289
f 241//241 242//242 244//244
f 242//242 349//349 244//244
f 240//240 239//239 243//243
f 245//245 239//239 241//241
f 244//244 245//245 241//241
f 239//239 245//245 243//243
f 246//246 247//247 189//189
f 194//194 190//190 248//248
f 249//249 194//194 248//248
f 247//247 248//248 190//190
f 196//196 250//250 246//246
f 250//250 251//251 246//246
f 251//251 250//250 253//253
f 250//250 301//301 253//253
f 246//246 251//251 247//247
f 248//248 247//247 252//252
f 247//247 251//251 252//252
f 255//255 249//249 248//248
f 252//252 251//251 253//253
f 248//248 252//252 255//255
f 255//255 252//252 300//300
f 254//254 256//256 249//249
f 254//254 249//249 255//255
f 252//252 253//253 300//300
f 253//253 301//301 300//300
f 303//303 254//254 255//255
f 254//254 257//257 256//256
f 304//304 257//257 254//254
f 258//258 200//200 201//201
f 144//144 258//258 201//201
f 144//144 206//206 258//258
f 200//200 258//258 259//259
f 260//260 259//259 258//258
f 301//301 200//200 259//259
f 259//259 305//305 301//301
f 260//260 258//258 206//206
f 260//260 308//308 259//259
f 308//308 305//305 259//259
f 308//308 260//260 261//261
f 208//208 262//262 261//261
f 310//310 261//261 262//262
f 262//262 208//208 313//313
f 147//147 311//311 263//263
f 311//311 147//147 312//312
f 320//320 264//264 263//263
f 314//314 320//320 263//263
f 333//333 216//216 331//331
f 331//331 216//216 210//210
f 334//334 373//373 266//266
f 333//333 334//334 265//265
f 216//216 333//333 265//265
f 266//266 211//211 265//265
f 266//266 265//265 334//334
f 373//373 267//267 266//266
f 265//265 211//211 216//216
f 335//335 210//210 269//269
f 336//336 270//270 271//271
f 266//266 268//268 211//211
f 266//266 267//267 268//268
f 268//268 267//267 278//278
f 267//267 275//275 278//278
f 267//267 337//337 275//275
f 269//269 210//210 213//213
f 269//269 213//213 272//272
f 335//335 269//269 270//270
f 270//270 269//269 272//272
f 335//335 270//270 336//336
f 337//337 276//276 275//275
f 270//270 272//272 273//273
f 274//274 270//270 273//273
f 270//270 274//274 271//271
f 274//274 277//277 341//341
f 276//276 279//279 275//275
f 279//279 278//278 275//275
f 341//341 277//277 230//230
f 280//280 278//278 279//279
f 343//343 280//280 279//279
f 281//281 282//282 230//230
f 230//230 282//282 342//342
f 342//342 282//282 443//443
f 283//283 282//282 281//281
f 281//281 234//234 283//283
f 283//283 234//234 344//344
f 283//283 344//344 282//282
f 344//344 443//443 282//282
f 347//347 288//288 284//284
f 280//280 347//347 284//284
f 344//344 234//234 285//285
f 237//237 238//238 286//286
f 238//238 290//290 286//286
f 242//242 287//287 349//349
f 348//348 287//287 288//288
f 294//294 290//290 289//289
f 349//349 287//287 348//348
f 240//240 291//291 289//289
f 292//292 291//291 240//240
f 243//243 292//292 240//240
f 296//296 292//292 243//243
f 289//289 291//291 293//293
f 293//293 291//291 292//292
f 353//353 289//289 293//293
f 244//244 295//295 245//245
f 245//245 295//295 243//243
f 295//295 244//244 298//298
f 295//295 296//296 243//243
f 296//296 295//295 298//298
f 298//298 350//350 296//296
f 297//297 293//293 292//292
f 297//297 292//292 296//296
f 353//353 293//293 351//351
f 297//297 296//296 350//350
f 244//244 299//299 298//298
f 350//350 298//298 355//355
f 303//303 255//255 300//300
f 300//300 302//302 303//303
f 306//306 301//301 305//305
f 301//301 306//306 300//300
f 300//300 306//306 302//302
f 361//361 303//303 302//302
f 304//304 254//254 303//303
f 308//308 309//309 305//305
f 302//302 306//306 361//361
f 361//361 306//306 307//307
f 305//305 307//307 306//306
f 362//362 303//303 361//361
f 310//310 308//308 261//261
f 363//363 309//309 308//308
f 310//310 363//363 308//308
f 307//307 305//305 309//309
f 309//309 364//364 307//307
f 363//363 364//364 309//309
f 310//310 405//405 363//363
f 365//365 312//312 147//147
f 367//367 311//311 312//312
f 317//317 315//315 316//316
f 262//262 313//313 316//316
f 319//319 317//317 264//264
f 313//313 264//264 317//317
f 317//317 316//316 313//313
f 320//320 319//319 264//264
f 314//314 263//263 311//311
f 314//314 311//311 367//367
f 319//319 321//321 317//317
f 315//315 317//317 318//318
f 317//317 321//321 318//318
f 314//314 368//368 320//320
f 322//322 321//321 319//319
f 320//320 322//322 319//319
f 321//321 322//322 324//324
f 320//320 368//368 322//322
f 315//315 318//318 323//323
f 318//318 321//321 323//323
f 323//323 321//321 324//324
f 315//315 323//323 316//316
f 323//323 324//324 370//370
f 322//322 325//325 324//324
f 324//324 327//327 370//370
f 324//324 325//325 327//327
f 325//325 329//329 327//327
f 322//322 326//326 325//325
f 325//325 326//326 330//330
f 325//325 330//330 329//329
f 326//326 373//373 328//328
f 327//327 329//329 331//331
f 331//331 332//332 371//371
f 581//581 331//331 371//371
f 330//330 326//326 328//328
f 334//334 330//330 328//328
f 334//334 328//328 373//373
f 267//267 374//374 337//337
f 329//329 330//330 333//333
f 329//329 333//333 331//331
f 414//414 582//582 375//375
f 334//334 333//333 330//330
f 331//331 210//210 335//335
f 331//331 335//335 332//332
f 582//582 335//335 336//336
f 375//375 582//582 336//336
f 336//336 338//338 375//375
f 376//376 276//276 337//337
f 338//338 336//336 339//339
f 376//376 340//340 276//276
f 339//339 336//336 271//271
f 339//339 271//271 341//341
f 341//341 381//381 339//339
f 271//271 274//274 341//341
f 382//382 381//381 341//341
f 340//340 279//279 276//276
f 340//340 431//431 279//279
f 382//382 341//341 342//342
f 279//279 439//439 343//343
f 342//342 341//341 230//230
f 382//382 342//342 383//383
f 343//343 384//384 280//280
f 439//439 442//442 343//343
f 442//442 384//384 343//343
f 344//344 346//346 443//443
f 347//347 280//280 384//384
f 384//384 500//500 347//347
f 285//285 286//286 345//345
f 345//345 286//286 290//290
f 346//346 344//344 285//285
f 346//346 285//285 345//345
f 346//346 345//345 386//386
f 348//348 288//288 347//347
f 347//347 385//385 348//348
f 290//290 294//294 345//345
f 445//445 349//349 348//348
f 445//445 348//348 385//385
f 353//353 294//294 289//289
f 294//294 387//387 386//386
f 349//349 445//445 356//356
f 293//293 297//297 351//351
f 297//297 352//352 351//351
f 297//297 350//350 358//358
f 352//352 297//297 358//358
f 387//387 294//294 353//353
f 351//351 352//352 391//391
f 358//358 391//391 352//352
f 298//298 299//299 354//354
f 355//355 298//298 354//354
f 244//244 349//349 299//299
f 357//357 354//354 299//299
f 349//349 356//356 299//299
f 357//357 299//299 356//356
f 358//358 350//350 359//359
f 359//359 394//394 358//358
f 393//393 391//391 358//358
f 393//393 358//358 394//394
f 355//355 359//359 350//350
f 359//359 355//355 360//360
f 355//355 354//354 360//360
f 354//354 395//395 360//360
f 361//361 307//307 364//364
f 402//402 364//364 363//363
f 363//363 405//405 402//402
f 303//303 401//401 304//304
f 365//365 366//366 312//312
f 365//365 400//400 366//366
f 366//366 367//367 312//312
f 407//407 404//404 262//262
f 262//262 316//316 407//407
f 367//367 368//368 314//314
f 366//366 406//406 367//367
f 407//407 316//316 369//369
f 409//409 368//368 367//367
f 323//323 369//369 316//316
f 372//372 322//322 368//368
f 370//370 369//369 323//323
f 371//371 369//369 370//370
f 368//368 374//374 372//372
f 409//409 374//374 368//368
f 581//581 371//371 370//370
f 326//326 322//322 372//372
f 326//326 372//372 373//373
f 371//371 582//582 414//414
f 374//374 373//373 372//372
f 373//373 374//374 267//267
f 374//374 413//413 376//376
f 337//337 374//374 376//376
f 414//414 375//375 377//377
f 414//414 377//377 380//380
f 416//416 340//340 376//376
f 338//338 377//377 375//375
f 380//380 378//378 414//414
f 378//378 380//380 379//379
f 380//380 377//377 338//338
f 379//379 380//380 424//424
f 381//381 338//338 339//339
f 381//381 380//380 338//338
f 381//381 424//424 380//380
f 381//381 428//428 424//424
f 382//382 428//428 381//381
f 340//340 429//429 431//431
f 340//340 426//426 429//429
f 428//428 382//382 434//434
f 434//434 382//382 435//435
f 431//431 437//437 279//279
f 437//437 439//439 279//279
f 342//342 443//443 383//383
f 443//443 438//438 383//383
f 438//438 382//382 383//383
f 442//442 500//500 384//384
f 500//500 385//385 347//347
f 386//386 345//345 294//294
f 390//390 353//353 351//351
f 351//351 391//391 390//390
f 353//353 390//390 387//387
f 357//357 356//356 388//388
f 388//388 356//356 445//445
f 389//389 357//357 388//388
f 357//357 389//389 354//354
f 453//453 388//388 445//445
f 391//391 393//393 390//390
f 394//394 359//359 392//392
f 359//359 360//360 392//392
f 452//452 392//392 360//360
f 392//392 449//449 394//394
f 393//393 446//446 390//390
f 447//447 446//446 393//393
f 393//393 394//394 447//447
f 447//447 394//394 448//448
f 452//452 360//360 395//395
f 389//389 395//395 354//354
f 453//453 389//389 388//388
f 364//364 396//396 361//361
f 361//361 397//397 362//362
f 401//401 303//303 362//362
f 362//362 399//399 401//401
f 364//364 402//402 396//396
f 361//361 396//396 398//398
f 398//398 397//397 361//361
f 362//362 397//397 399//399
f 399//399 397//397 398//398
f 400//400 304//304 401//401
f 365//365 304//304 400//400
f 403//403 401//401 455//455
f 366//366 400//400 406//406
f 400//400 401//401 403//403
f 310//310 262//262 404//404
f 400//400 403//403 406//406
f 465//465 406//406 403//403
f 405//405 310//310 404//404
f 408//408 404//404 407//407
f 405//405 404//404 408//408
f 406//406 409//409 367//367
f 406//406 469//469 410//410
f 369//369 371//371 407//407
f 410//410 409//409 406//406
f 409//409 412//412 411//411
f 409//409 410//410 412//412
f 371//371 408//408 407//407
f 476//476 411//411 412//412
f 408//408 371//371 479//479
f 413//413 409//409 411//411
f 476//476 413//413 411//411
f 479//479 371//371 414//414
f 409//409 413//413 374//374
f 478//478 376//376 413//413
f 478//478 416//416 376//376
f 417//417 415//415 419//419
f 483//483 414//414 415//415
f 483//483 415//415 417//417
f 487//487 483//483 417//417
f 414//414 378//378 418//418
f 418//418 415//415 414//414
f 418//418 378//378 420//420
f 415//415 418//418 419//419
f 418//418 420//420 419//419
f 419//419 420//420 421//421
f 417//417 419//419 421//421
f 417//417 421//421 423//423
f 417//417 423//423 487//487
f 379//379 420//420 378//378
f 424//424 420//420 379//379
f 421//421 420//420 424//424
f 485//485 423//423 422//422
f 426//426 416//416 422//422
f 425//425 421//421 424//424
f 427//427 426//426 422//422
f 425//425 423//423 421//421
f 423//423 427//427 422//422
f 426//426 340//340 416//416
f 425//425 424//424 428//428
f 423//423 425//425 427//427
f 427//427 430//430 426//426
f 426//426 430//430 429//429
f 427//427 425//425 432//432
f 427//427 432//432 430//430
f 425//425 428//428 432//432
f 429//429 430//430 431//431
f 434//434 432//432 428//428
f 431//431 430//430 433//433
f 430//430 432//432 433//433
f 432//432 434//434 433//433
f 433//433 436//436 431//431
f 434//434 435//435 433//433
f 433//433 435//435 436//436
f 431//431 436//436 437//437
f 435//435 382//382 583//583
f 583//583 436//436 435//435
f 437//437 436//436 439//439
f 436//436 583//583 439//439
f 439//439 583//583 489//489
f 489//489 583//583 488//488
f 438//438 443//443 440//440
f 438//438 440//440 584//584
f 440//440 443//443 493//493
f 493//493 584//584 440//440
f 441//441 442//442 439//439
f 441//441 490//490 442//442
f 439//439 489//489 441//441
f 499//499 443//443 346//346
f 498//498 500//500 442//442
f 499//499 346//346 386//386
f 444//444 386//386 387//387
f 502//502 386//386 444//444
f 448//448 394//394 449//449
f 449//449 392//392 452//452
f 447//447 448//448 504//504
f 448//448 449//449 504//504
f 390//390 450//450 387//387
f 450//450 390//390 446//446
f 504//504 449//449 507//507
f 449//449 452//452 507//507
f 446//446 451//451 450//450
f 444//444 387//387 450//450
f 451//451 446//446 447//447
f 505//505 450//450 451//451
f 451//451 447//447 503//503
f 447//447 504//504 503//503
f 450//450 505//505 444//444
f 389//389 453//453 454//454
f 395//395 389//389 454//454
f 395//395 507//507 452//452
f 395//395 454//454 507//507
f 455//455 401//401 399//399
f 399//399 460//460 455//455
f 461//461 402//402 405//405
f 396//396 456//456 457//457
f 396//396 402//402 456//456
f 461//461 456//456 402//402
f 396//396 457//457 398//398
f 461//461 462//462 456//456
f 457//457 462//462 463//463
f 457//457 456//456 462//462
f 398//398 458//458 399//399
f 457//457 459//459 398//398
f 398//398 459//459 458//458
f 399//399 458//458 460//460
f 464//464 458//458 459//459
f 458//458 464//464 460//460
f 459//459 457//457 463//463
f 403//403 455//455 465//465
f 455//455 460//460 465//465
f 461//461 405//405 408//408
f 472//472 461//461 408//408
f 462//462 461//461 466//466
f 472//472 466//466 461//461
f 468//468 463//463 462//462
f 462//462 466//466 468//468
f 464//464 471//471 460//460
f 459//459 463//463 464//464
f 464//464 463//463 467//467
f 464//464 467//467 471//471
f 467//467 463//463 468//468
f 470//470 465//465 460//460
f 470//470 460//460 471//471
f 465//465 469//469 406//406
f 510//510 466//466 472//472
f 468//468 466//466 509//509
f 471//471 467//467 508//508
f 469//469 474//474 410//410
f 474//474 469//469 475//475
f 469//469 465//465 470//470
f 475//475 469//469 470//470
f 471//471 473//473 470//470
f 508//508 473//473 471//471
f 509//509 466//466 510//510
f 474//474 412//412 410//410
f 470//470 473//473 475//475
f 508//508 475//475 473//473
f 475//475 477//477 474//474
f 477//477 476//476 412//412
f 474//474 477//477 412//412
f 478//478 476//476 477//477
f 477//477 482//482 478//478
f 408//408 479//479 480//480
f 480//480 472//472 408//408
f 510//510 472//472 480//480
f 481//481 510//510 480//480
f 477//477 475//475 482//482
f 475//475 508//508 482//482
f 508//508 512//512 482//482
f 476//476 478//478 413//413
f 484//484 478//478 482//482
f 482//482 512//512 486//486
f 484//484 416//416 478//478
f 483//483 479//479 414//414
f 480//480 479//479 483//483
f 480//480 483//483 487//487
f 487//487 481//481 480//480
f 487//487 485//485 481//481
f 484//484 482//482 486//486
f 512//512 481//481 485//485
f 512//512 485//485 486//486
f 484//484 486//486 416//416
f 485//485 422//422 486//486
f 422//422 416//416 486//486
f 423//423 485//485 487//487
f 493//493 492//492 584//584
f 489//489 490//490 441//441
f 491//491 490//490 489//489
f 491//491 489//489 488//488
f 491//491 488//488 492//492
f 491//491 494//494 490//490
f 494//494 496//496 490//490
f 495//495 491//491 492//492
f 495//495 494//494 491//491
f 493//493 443//443 497//497
f 518//518 494//494 495//495
f 518//518 495//495 514//514
f 490//490 496//496 442//442
f 496//496 494//494 515//515
f 497//497 443//443 499//499
f 498//498 442//442 516//516
f 515//515 442//442 496//496
f 516//516 442//442 515//515
f 500//500 498//498 520//520
f 540//540 500//500 520//520
f 522//522 386//386 502//502
f 505//505 501//501 444//444
f 501//501 505//505 506//506
f 502//502 444//444 501//501
f 502//502 501//501 524//524
f 527//527 524//524 501//501
f 506//506 527//527 501//501
f 524//524 522//522 502//502
f 528//528 503//503 504//504
f 505//505 451//451 503//503
f 505//505 503//503 506//506
f 528//528 504//504 529//529
f 504//504 507//507 529//529
f 503//503 528//528 506//506
f 507//507 530//530 531//531
f 507//507 454//454 530//530
f 529//529 507//507 531//531
f 468//468 509//509 467//467
f 467//467 509//509 508//508
f 508//508 509//509 511//511
f 509//509 510//510 511//511
f 481//481 511//511 510//510
f 508//508 511//511 512//512
f 511//511 481//481 512//512
f 492//492 493//493 513//513
f 495//495 492//492 513//513
f 513//513 514//514 495//495
f 518//518 515//515 494//494
f 513//513 493//493 497//497
f 513//513 497//497 499//499
f 515//515 517//517 516//516
f 516//516 520//520 498//498
f 515//515 518//518 517//517
f 519//519 517//517 518//518
f 517//517 519//519 516//516
f 537//537 518//518 514//514
f 537//537 538//538 518//518
f 538//538 519//519 518//518
f 519//519 536//536 516//516
f 516//516 540//540 520//520
f 522//522 521//521 386//386
f 521//521 499//499 386//386
f 521//521 513//513 499//499
f 539//539 513//513 521//521
f 523//523 500//500 540//540
f 523//523 385//385 500//500
f 523//523 445//445 385//385
f 523//523 540//540 561//561
f 561//561 545//545 523//523
f 522//522 524//524 525//525
f 527//527 525//525 524//524
f 527//527 544//544 525//525
f 533//533 453//453 445//445
f 533//533 445//445 526//526
f 535//535 533//533 526//526
f 523//523 526//526 445//445
f 526//526 546//546 535//535
f 527//527 506//506 528//528
f 532//532 544//544 528//528
f 528//528 529//529 532//532
f 527//527 528//528 544//544
f 532//532 529//529 531//531
f 532//532 531//531 550//550
f 454//454 453//453 534//534
f 454//454 534//534 530//530
f 453//453 533//533 534//534
f 531//531 530//530 534//534
f 531//531 534//534 550//550
f 534//534 535//535 550//550
f 535//535 534//534 533//533
f 514//514 513//513 553//553
f 536//536 519//519 538//538
f 536//536 540//540 516//516
f 536//536 555//555 540//540
f 514//514 553//553 537//537
f 536//536 538//538 556//556
f 521//521 522//522 525//525
f 521//521 525//525 542//542
f 542//542 539//539 521//521
f 539//539 553//553 513//513
f 552//552 553//553 539//539
f 552//552 539//539 542//542
f 552//552 542//542 543//543
f 555//555 536//536 556//556
f 542//542 525//525 541//541
f 543//543 542//542 541//541
f 525//525 544//544 541//541
f 523//523 545//545 526//526
f 547//547 546//546 526//526
f 545//545 547//547 526//526
f 548//548 546//546 547//547
f 548//548 551//551 546//546
f 547//547 545//545 561//561
f 563//563 575//575 547//547
f 575//575 548//548 547//547
f 561//561 563//563 547//547
f 551//551 549//549 544//544
f 549//549 551//551 548//548
f 544//544 574//574 541//541
f 544//544 549//549 574//574
f 548//548 577//577 549//549
f 549//549 577//577 574//574
f 577//577 548//548 575//575
f 535//535 546//546 550//550
f 551//551 544//544 532//532
f 550//550 551//551 532//532
f 546//546 551//551 550//550
f 553//553 552//552 554//554
f 559//559 554//554 552//552
f 543//543 559//559 552//552
f 538//538 537//537 557//557
f 557//557 556//556 538//538
f 540//540 555//555 562//562
f 537//537 553//553 557//557
f 554//554 557//557 553//553
f 556//556 558//558 555//555
f 555//555 558//558 562//562
f 557//557 571//571 558//558
f 556//556 557//557 558//558
f 557//557 554//554 570//570
f 543//543 541//541 560//560
f 559//559 543//543 560//560
f 559//559 560//560 566//566
f 540//540 562//562 561//561
f 562//562 565//565 561//561
f 565//565 563//563 561//561
f 565//565 569//569 563//563
f 558//558 572//572 562//562
f 554//554 559//559 570//570
f 572//572 565//565 562//562
f 559//559 566//566 573//573
f 564//564 565//565 572//572
f 573//573 566//566 567//567
f 573//573 567//567 564//564
f 564//564 567//567 569//569
f 569//569 565//565 564//564
f 560//560 576//576 566//566
f 566//566 576//576 567//567
f 568//568 567//567 576//576
f 569//569 567//567 568//568
f 557//557 570//570 571//571
f 558//558 571//571 572//572
f 559//559 573//573 570//570
f 570//570 573//573 571//571
f 571//571 573//573 564//564
f 564//564 572//572 571//571
f 560//560 541//541 574//574
f 569//569 575//575 563//563
f 577//577 576//576 574//574
f 560//560 574//574 576//576
f 568//568 576//576 577//577
f 575//575 569//569 577//577
f 577//577 569//569 568//568
