# Wavafront OBJ file of BodyParts3D
# BodyParts3D, Copyright(C) 2010-2011 The Database Center for Life Science licensed under CC Attribution-Share Alike 2.1 Japan.
vn -0.926676 -0.275784 -0.255371
v -10.684 -196.537 1186.47
vn -0.971431 -0.00992204 -0.237116
v -11.1232 -196.215 1187.87
vn -0.946258 0.275782 -0.16894
v -11.1418 -195.884 1188.17
vn -0.981845 0.0920682 -0.165844
v -11.1729 -196.09 1188.12
vn -0.97561 0.172751 0.135434
v -11.1772 -195.953 1188.37
vn -0.948803 -0.280371 0.14548
v -11.1668 -196.345 1188.25
vn -0.901523 0.416471 -0.117511
v -10.9185 -195.235 1188.33
vn -0.873078 0.414516 0.256731
v -10.8573 -195.084 1188.57
vn -0.894421 -0.413339 -0.170768
v -11.034 -196.588 1187.75
vn -0.698829 -0.708922 0.0952261
v -10.9928 -196.696 1188.14
vn -0.778116 -0.617724 -0.113808
v -10.6003 -196.892 1186.99
vn -0.921361 -0.0369902 0.386945
v -11.1037 -195.994 1188.56
vn -0.851764 -0.384068 0.356357
v -11.072 -196.381 1188.44
vn -0.692119 0.143042 0.707467
v -10.9473 -195.527 1188.67
vn -0.385184 -0.136638 0.912668
v -10.8294 -195.982 1188.73
vn -0.368249 -0.385592 0.845997
v -10.734 -196.37 1188.67
vn -0.548667 -0.671479 0.498077
v -10.8654 -196.726 1188.33
vn -0.985175 0.169286 -0.0278041
v -8.80145 -203.274 1187.49
vn -0.76969 -0.587496 -0.249851
v -8.55212 -204.751 1186.21
vn -0.991957 0.0602344 -0.11132
v -9.11012 -204.302 1188.49
vn -0.707898 0.0804318 0.70172
v -8.76612 -204.394 1189.05
vn -0.934497 0.151303 0.322216
v -8.79977 -203.217 1188.55
vn -0.718931 0.0838063 0.690011
v -8.57921 -203.694 1189.02
vn -0.985133 -0.13828 -0.101939
v -9.05634 -204.743 1188.57
vn -0.891716 -0.430874 -0.138531
v -9.00148 -204.808 1188.13
vn -0.703613 -0.706818 0.0730536
v -8.7254 -205.123 1188.66
vn -0.591452 -0.800055 -0.100484
v -8.53197 -205.228 1187.77
vn -0.715212 -0.45378 0.531559
v -8.68514 -205.025 1189.07
vn -0.557623 -0.815843 0.153155
v -8.40831 -205.35 1188.95
vn -0.368227 -0.187183 0.910698
v -8.30932 -205.017 1189.34
vn -0.390983 -0.74062 0.546457
v -8.22429 -205.38 1189.19
vn -0.727626 0.283444 -0.624676
v -9.18026 -198.444 1179.23
vn -0.719385 0.0958778 -0.687963
v -9.09764 -198.801 1179.06
vn -0.996496 -0.0795635 -0.025788
v -9.54165 -198.333 1179.98
vn -0.956324 -0.194801 0.217936
v -9.41258 -198.677 1180.49
vn -0.933134 -0.309741 0.182542
v -9.47885 -198.16 1180.86
vn -0.882048 0.27372 -0.383495
v -9.45701 -198.055 1179.84
vn -0.816149 0.476511 -0.326861
v -9.37488 -197.508 1180.19
vn -0.705616 0.476152 -0.524772
v -9.17565 -197.547 1179.8
vn -0.965687 -0.175663 -0.191288
v -9.36561 -199.928 1179.72
vn -0.98106 -0.120062 0.152006
v -9.40545 -199.603 1180.02
vn -0.886072 0.050893 -0.460745
v -9.39761 -198.77 1179.42
vn -0.782568 -0.15918 -0.601871
v -9.21017 -199.513 1179.19
vn -0.845762 -0.360088 -0.39373
v -9.07424 -200.961 1179.81
vn -0.697839 -0.367682 -0.614679
v -8.52904 -201.04 1179.1
vn -0.540732 -0.628222 -0.559416
v -8.43847 -202.093 1179.8
vn -0.641602 0.68592 -0.343308
v -9.26877 -195.818 1183.17
vn -0.940061 -0.340831 -0.01089
v -9.58258 -197.418 1182.54
vn -0.969526 0.181881 -0.16413
v -9.62435 -196.717 1182.33
vn -0.996996 0.0156827 -0.0758554
v -9.59273 -197.459 1181.28
vn -0.909925 -0.390196 0.140657
v -9.45459 -197.8 1181.79
vn -0.954933 -0.237595 0.177911
v -9.12489 -198.506 1181.55
vn -0.902906 -0.425872 0.058248
v -9.2205 -198.057 1182.11
vn -0.985174 -0.088647 0.146883
v -9.20444 -200.383 1180.62
vn -0.957161 -0.28689 -0.0391905
v -8.9522 -201.94 1180.98
vn -0.790748 -0.526019 -0.313082
v -8.55079 -202.569 1180.55
vn -0.541987 -0.718659 -0.435638
v -8.08932 -203.275 1180.93
vn -0.198537 -0.823278 -0.531786
v -7.69689 -203.246 1180.63
vn -0.851209 0.424906 -0.308054
v -9.60966 -196.024 1183.57
vn -0.512307 0.782358 -0.3542
v -9.37324 -195.108 1184.63
vn -0.971546 -0.0985224 -0.215388
v -9.8999 -196.868 1183.99
vn -0.908401 -0.400925 -0.118603
v -9.47811 -197.69 1183.5
vn -0.969406 -0.240031 -0.051357
v -9.12776 -198.41 1182.63
vn -0.739433 -0.638683 -0.21289
v -8.11414 -203.903 1182.43
vn -0.353471 -0.862812 -0.361404
v -7.87682 -203.928 1181.99
vn -0.830943 0.470516 -0.296896
v -10.3818 -195.432 1185.91
vn -0.943059 0.100739 -0.317003
v -10.5053 -196.056 1185.75
vn 0.0273164 -0.933706 -0.356996
v -7.34797 -204.271 1182.65
vn -0.716795 0.66313 -0.215551
v -10.398 -194.466 1188.49
vn -0.784372 0.604093 0.140831
v -10.3619 -194.364 1188.72
vn -0.628529 0.759016 -0.169841
v -9.58081 -193.55 1188.86
vn -0.808499 0.570878 -0.142924
v -10.7122 -194.87 1188.41
vn -0.686596 -0.722238 0.0834107
v -10.1218 -197.362 1187.49
vn -0.572367 -0.763187 0.299901
v -10.1255 -197.276 1187.9
vn -0.80104 -0.584307 0.130076
v -9.87138 -197.676 1187.31
vn -0.871951 -0.48958 0.00358065
v -9.64918 -198.112 1186.12
vn -0.970294 -0.237022 -0.0484757
v -9.11589 -199.874 1185.98
vn -0.998045 -0.0593207 -0.0196957
v -8.5806 -202.623 1185.56
vn -0.924676 -0.336029 -0.179047
v -8.30824 -204.213 1184.66
vn -0.489132 -0.828096 -0.273872
v -7.79615 -204.667 1184.26
vn -0.612104 0.273641 0.741922
v -10.2482 -194.395 1188.91
vn -0.68881 0.473667 0.548799
v -9.73151 -193.741 1189.03
vn -0.416604 0.0674523 0.906582
v -9.4804 -193.882 1189.23
vn -0.325527 -0.037221 0.9448
v -10.5249 -195.527 1188.88
vn -0.135701 -0.265321 0.954563
v -10.1335 -196.27 1188.81
vn -0.71331 -0.50449 0.486495
v -9.74372 -197.625 1187.94
vn -0.329766 -0.543348 0.772028
v -9.73651 -197.075 1188.51
vn -0.105856 -0.239466 0.965117
v -9.20798 -196.674 1188.75
vn -0.318614 -0.124606 0.939659
v -9.01511 -197.454 1188.65
vn -0.930973 -0.299427 0.208884
v -9.35209 -198.711 1187.59
vn -0.622767 -0.0592234 0.780163
v -8.69611 -198.698 1188.74
vn -0.416089 -0.881645 -0.222649
v -8.158 -205.269 1186.64
vn -0.0564959 -0.984673 -0.165007
v -7.67531 -205.464 1187.11
vn -0.0188633 -0.968761 -0.247277
v -7.41496 -205.132 1185.55
vn -0.962189 -0.0254587 0.271189
v -8.77394 -202.123 1188.65
vn -0.517307 0.0319225 0.855204
v -8.15755 -201.532 1189.37
vn -0.301019 -0.948218 -0.101339
v -8.06351 -205.472 1187.62
vn -0.0329576 -0.998994 -0.0304167
v -7.58349 -205.607 1188.36
vn 0.19615 -0.974261 -0.111087
v -6.79244 -205.517 1188.09
vn -0.371373 0.0200405 0.928267
v -7.82275 -203.653 1189.47
vn -0.317789 -0.946099 0.0625103
v -7.98871 -205.554 1188.84
vn -0.0826789 -0.940425 0.329795
v -7.7708 -205.568 1189.02
vn -0.0365865 -0.593381 0.80409
v -7.81753 -205.329 1189.34
vn 0.146379 -0.937315 0.316248
v -7.15623 -205.561 1188.96
vn -0.0708635 -0.196615 0.977917
v -7.31418 -204.837 1189.53
vn -0.714832 0.431376 -0.550391
v -8.01232 -197.461 1178.59
vn -0.706203 0.0258463 -0.707537
v -8.48052 -198.896 1178.46
vn -0.710007 0.257224 -0.655535
v -8.42784 -198.271 1178.56
vn -0.810095 0.203039 -0.550019
v -7.76004 -198.274 1177.7
vn -0.774855 -0.213122 -0.595129
v -8.04342 -200.224 1178.23
vn -0.558056 -0.642983 -0.524543
v -6.94737 -201.329 1177.79
vn -0.230341 -0.823334 -0.518714
v -6.74156 -202.385 1179.14
vn -0.444377 0.834427 -0.325976
v -8.55477 -195.324 1183.22
vn -0.615493 0.727169 -0.303962
v -9.03303 -196.131 1181.8
vn -0.424564 0.864792 -0.268106
v -7.94165 -195.579 1181.62
vn 0.247424 -0.932305 -0.263796
v -6.79049 -204.615 1183.95
vn -0.543286 0.836256 -0.0742708
v -8.36407 -192.511 1189.64
vn -0.181002 -0.179024 0.967052
v -9.02663 -194.023 1189.35
vn -0.494787 0.820177 -0.287221
v -8.71126 -192.82 1189.17
vn -0.47485 0.120906 0.871722
v -8.66983 -192.942 1189.6
vn -0.0816311 -0.24988 0.96483
v -8.05858 -194.608 1189.21
vn 0.356188 -0.912793 -0.199847
v -5.51096 -205.017 1187.25
vn -0.110245 -0.11534 0.987189
v -6.1743 -201.917 1189.99
vn 0.195855 -0.581158 0.789871
v -5.24401 -204.904 1189.26
vn -0.911293 0.233908 -0.33887
v -6.42206 -197.161 1175.14
vn -0.898743 -0.147275 -0.413002
v -6.28548 -198.51 1174.74
vn -0.793989 -0.366703 -0.484882
v -5.85077 -199.13 1174.31
vn -0.5849 -0.627217 -0.514286
v -5.22435 -200.019 1174.2
vn -0.696676 -0.489318 -0.524604
v -6.25738 -200.559 1175.84
vn -0.49721 -0.705612 -0.50487
v -5.8837 -200.859 1175.71
vn -0.626597 0.699141 -0.344351
v -7.34023 -195.9 1179.37
vn -0.791416 0.502973 -0.347389
v -7.06533 -196.421 1177.93
vn -0.195794 -0.909477 -0.366765
v -4.9494 -201.758 1176.56
vn 0.0403199 -0.916553 -0.397875
v -5.87774 -202.522 1179.21
vn -0.20293 -0.894268 -0.398878
v -5.46587 -202.061 1177.83
vn -0.437606 0.864587 -0.246962
v -6.82329 -195.102 1181.62
vn 0.297908 -0.917492 -0.263552
v -4.99323 -203.143 1181.65
vn -0.340792 0.869251 -0.358139
v -7.25041 -193.332 1186.77
vn -0.40138 0.863526 -0.305314
v -7.99573 -192.371 1189.43
vn -0.395464 0.329566 0.857318
v -7.80907 -192.216 1189.87
vn -0.395675 0.113457 0.911355
v -7.75628 -192.407 1189.97
vn -0.255207 -0.139775 0.95673
v -7.70443 -192.611 1189.97
vn -0.286242 0.12552 0.9499
v -7.55359 -192.38 1190.04
vn -0.371427 0.898973 -0.232143
v -7.44619 -192.054 1189.66
vn -0.0965227 -0.224625 0.969653
v -7.10569 -192.507 1190.1
vn -0.381241 0.920266 0.0881278
v -7.0717 -191.863 1189.88
vn -0.301446 0.386084 0.87182
v -7.04334 -191.943 1190.07
vn -0.195861 0.212452 0.957341
v -6.80918 -192.033 1190.18
vn 0.343542 -0.922438 0.176316
v -4.63732 -204.926 1188.84
vn 0.251173 -0.798896 0.546514
v -3.55632 -204.254 1189.12
vn -0.696107 0.580142 -0.42293
v -4.70487 -196.265 1171.49
vn -0.842987 -0.240169 -0.481343
v -5.21337 -197.799 1171.89
vn -0.854824 0.212155 -0.473567
v -5.15958 -196.875 1171.72
vn -0.704432 -0.389936 -0.593064
v -4.6698 -198.135 1171.32
vn -0.739425 0.336504 -0.583108
v -4.66552 -196.573 1171.13
vn -0.774094 -0.0370952 -0.631983
v -4.67183 -197.167 1170.96
vn -0.634443 -0.213357 -0.742941
v -4.20972 -197.583 1170.58
vn -0.543533 -0.47102 -0.694775
v -4.08002 -198.262 1170.8
vn -0.502208 -0.656468 -0.562882
v -3.82518 -199.285 1171.52
vn -0.845606 0.436257 -0.307621
v -5.50983 -196.473 1172.93
vn -0.692458 0.668718 -0.270772
v -5.12385 -196.012 1172.81
vn -0.926991 0.0593241 -0.370362
v -5.69164 -197.309 1172.71
vn -0.716063 -0.504963 -0.481941
v -4.89897 -198.946 1172.37
vn -0.774487 0.586409 -0.237264
v -6.01842 -196.029 1175.83
vn -0.595818 0.775078 -0.210369
v -5.02668 -195.061 1175.78
vn -0.257262 -0.862166 -0.436448
v -4.01964 -200.906 1174.43
vn 0.11479 -0.961223 -0.250747
v -3.70547 -201.207 1175.15
vn 0.417084 -0.897317 -0.144442
v -3.58069 -201.459 1176.53
vn -0.37947 0.907136 -0.181955
v -5.01567 -193.956 1182.36
vn 0.438484 -0.864531 -0.245596
v -3.42276 -202.095 1181.14
vn -0.256792 0.913876 -0.314467
v -6.50032 -191.676 1189.87
vn -0.376001 0.826373 0.419204
v -6.11588 -191.527 1190.08
vn -0.0426331 0.40593 0.912909
v -5.8394 -191.601 1190.23
vn -0.000589685 -0.0421344 0.999112
v -5.82786 -191.819 1190.25
vn 0.101035 0.096627 0.990179
v -5.44182 -191.717 1190.22
vn -0.168731 0.95384 -0.248435
v -5.13252 -191.382 1189.79
vn -0.07761 0.994102 -0.0757503
v -5.03132 -191.337 1190
vn 0.349931 -0.929855 -0.113658
v -3.35502 -204.314 1188.66
vn 0.0859206 -0.362299 0.928093
v -2.89898 -203.534 1189.43
vn -0.480138 0.74855 -0.457319
v -3.79953 -195.865 1170.9
vn -0.659924 0.132614 -0.739536
v -4.17601 -196.899 1170.48
vn -0.538769 -0.0275578 -0.842003
v -3.58037 -197.048 1170.04
vn -0.551468 0.535884 -0.639305
v -3.92927 -196.225 1170.58
vn -0.513653 0.286433 -0.808775
v -3.63391 -196.656 1170.12
vn -0.440801 -0.288994 -0.84981
v -2.99228 -197.689 1169.79
vn -0.521236 0.798056 -0.302358
v -4.23119 -195.603 1171.98
vn -0.323976 0.89112 -0.317719
v -3.4896 -195.307 1171.77
vn -0.213774 -0.811533 -0.543796
v -2.3791 -199.791 1171.21
vn -0.312394 -0.83611 -0.450921
v -3.02409 -200.299 1172.4
vn -0.0249901 -0.953772 -0.29949
v -1.8668 -200.689 1172.99
vn -0.385736 0.903429 -0.187146
v -3.58975 -194.083 1176.52
vn 0.215637 -0.973016 -0.0821067
v -3.08292 -201.156 1175.51
vn 0.381076 -0.914231 -0.137705
v -1.944 -200.855 1179.64
vn 0.208717 -0.917584 -0.338345
v -1.8301 -202.28 1183.41
vn 0.136117 0.3828 0.913748
v -4.87037 -191.546 1190.11
vn -0.129507 0.983376 -0.127277
v -4.73117 -191.342 1189.76
vn 0.0842176 0.408656 0.908795
v -4.51117 -191.364 1189.94
vn 0.106385 0.180043 0.977889
v -4.18935 -191.798 1190.06
vn -0.0822655 -0.0411436 0.995761
v -4.56345 -192.76 1190.11
vn -0.224822 0.0395126 0.973598
v -3.02516 -197.097 1190.73
vn 0.083166 -0.996362 0.0186309
v -1.36587 -204.003 1188.73
vn 0.0195637 -0.594953 0.803522
v -1.0049 -203.693 1189.32
vn -0.31372 0.787912 -0.529882
v -2.64207 -195.637 1170.37
vn -0.402804 0.133404 -0.905512
v -2.5765 -196.86 1169.51
vn -0.354107 0.533744 -0.767936
v -2.34854 -196.089 1169.75
vn -0.230586 0.364285 -0.90229
v -1.44464 -196.492 1169.2
vn -0.211358 -0.438026 -0.873763
v -1.64248 -198.117 1169.44
vn -0.0911074 -0.6267 -0.773917
v -1.2794 -198.685 1169.73
vn -0.280125 -0.0976467 -0.954984
v -1.44548 -197.321 1169.1
vn -0.132473 0.930524 -0.341434
v -1.90592 -195.171 1171
vn -0.306032 -0.623475 -0.71946
v -2.23341 -198.916 1170.18
vn -0.0412011 -0.825306 -0.56318
v -1.16997 -199.731 1170.88
vn -0.0147615 -0.997538 -0.068557
v -0.79033 -200.741 1173.69
vn -0.208033 0.959147 -0.191727
v -2.23797 -193.722 1176.46
vn 0.190403 -0.928088 -0.319999
v -1.10583 -200.77 1180.41
vn 0.0851206 -0.994305 -0.0641278
v -0.977547 -200.601 1179.6
vn -0.179664 -0.939591 -0.291357
v -0.275627 -200.731 1180.32
vn -0.062081 -0.929694 -0.363064
v -0.493271 -201.933 1182.94
vn 0.002411 0.24941 0.968395
v -2.44977 -191.347 1189.95
vn -0.13175 0.921825 -0.364527
v -1.97794 -190.866 1189.37
vn 0.00787537 -0.15739 0.987505
v -0.693049 -198.112 1190.96
vn -0.0952441 -0.991857 -0.0845455
v 0.062552 -203.962 1188.57
vn -0.0249091 -0.442939 0.896206
v 0.220243 -203.63 1189.37
vn -0.070418 -0.853552 0.516226
v 0.492425 -203.927 1189.16
vn -0.147383 0.765335 -0.62653
v -1.20484 -195.724 1169.68
vn 0.00901172 0.365438 -0.930792
v -0.627284 -196.477 1169.09
vn 0.0379797 0.666785 -0.744282
v -0.548695 -195.915 1169.41
vn 0.0478571 0.91206 -0.407254
v -0.239514 -195.344 1170.34
vn 0.245237 0.47581 -0.844668
v 0.172764 -196.343 1169.27
vn -0.0808287 -0.25159 -0.964453
v -1.01244 -197.412 1169.04
vn -0.0836467 0.0842442 -0.992928
v -0.924831 -196.949 1169
vn 0.0353089 -0.44799 -0.893341
v -0.249924 -197.94 1169.25
vn 0.0989596 -0.129865 -0.986581
v -0.236564 -197.219 1169.01
vn 0.185392 0.178273 -0.966358
v -0.139634 -196.779 1169.05
vn 0.217941 -0.298005 -0.929352
v 0.078445 -197.62 1169.17
vn 0.222182 -0.48752 -0.844369
v 0.243291 -198.218 1169.47
vn 0.310231 -0.0237748 -0.950364
v 0.162596 -197.149 1169.1
vn 0.105012 -0.669359 -0.73548
v -0.15403 -199.006 1169.99
vn 0.223416 -0.782663 -0.580968
v 1.09982 -199.689 1171.09
vn 0.0948213 -0.929208 -0.357186
v 0.956788 -200.508 1172.51
vn 0.00916838 0.974827 -0.222776
v -0.622298 -193.567 1176.53
vn -0.200737 -0.978383 -0.0497209
v 1.40338 -201.029 1174.95
vn -0.37504 -0.925351 -0.055423
v 1.47763 -201.058 1176.47
vn -0.296017 -0.952259 -0.0746722
v 0.498947 -200.762 1179.39
vn -0.158986 0.966806 -0.200024
v -1.21345 -192.214 1184.92
vn -0.455239 -0.858685 -0.235409
v 1.64204 -201.747 1180.92
vn 0.119825 0.969012 -0.216004
v -0.183782 -192.186 1185.02
vn -0.132263 0.936873 -0.32369
v -1.25576 -191.654 1187.18
vn 0.0540889 0.937188 -0.344605
v -0.240221 -191.528 1187.51
vn -0.360655 -0.886404 -0.290199
v 2.07664 -202.907 1183.62
vn -0.109088 0.99096 0.0780955
v -1.7893 -190.758 1189.58
vn -0.0341626 0.894373 0.446016
v -1.35889 -190.801 1189.73
vn -0.0483948 0.946507 -0.319032
v -0.972002 -190.78 1189.26
vn 0.0325016 0.125437 0.991569
v -0.426974 -195.9 1190.96
vn -0.251088 -0.953997 -0.163846
v 1.79229 -204.245 1188.71
vn -0.23183 -0.919133 0.318513
v 1.80116 -204.244 1188.92
vn -0.123931 -0.595728 0.793567
v 1.82644 -204.045 1189.18
vn -0.36533 -0.930166 0.0364067
v 2.33193 -204.451 1188.8
vn -0.278856 -0.74032 0.611691
v 2.28588 -204.324 1189.05
vn -0.173908 -0.38065 0.908219
v 2.74946 -204.266 1189.22
vn 0.251773 0.790861 -0.557808
v 0.851096 -195.601 1170.18
vn 0.391869 0.564702 -0.726326
v 1.61162 -196.202 1169.93
vn 0.383987 -0.267436 -0.88376
v 1.14788 -197.699 1169.55
vn 0.392211 0.259345 -0.882559
v 1.49051 -196.583 1169.68
vn 0.466339 0.0255062 -0.884238
v 1.79689 -196.964 1169.76
vn 0.172026 0.935945 -0.307269
v 1.18966 -195.038 1171.72
vn 0.391201 -0.536902 -0.747461
v 1.59785 -198.405 1170.1
vn 0.433265 -0.690786 -0.578875
v 2.13047 -199.595 1171.58
vn 0.358409 -0.809297 -0.465383
v 2.11138 -200.181 1172.47
vn 0.23253 0.954565 -0.186373
v 1.07133 -193.702 1176.7
vn -0.0288407 -0.968019 -0.249215
v 2.25171 -201.127 1174.9
vn 0.235636 -0.877924 -0.416803
v 2.79699 -200.907 1174.48
vn -0.216777 -0.954768 -0.203535
v 2.33804 -201.334 1175.67
vn -0.375974 -0.912352 -0.162041
v 2.7025 -201.73 1176.98
vn -0.142331 -0.956582 -0.254347
v 3.13939 -201.838 1176.9
vn -0.339772 -0.898926 -0.276562
v 3.63595 -203.03 1181.31
vn 0.109126 0.993855 -0.0185219
v 0.26952 -190.738 1189.56
vn 0.0115637 0.347511 0.937605
v 0.301379 -190.832 1189.74
vn 0.218222 0.0193582 0.975707
v 2.32509 -197.052 1190.57
vn -0.158325 -0.34217 0.926204
v 3.83422 -204.875 1189.25
vn -0.289109 -0.945589 -0.149259
v 4.48834 -205.247 1187.91
vn -0.252914 -0.957192 0.14078
v 4.7642 -205.388 1188.67
vn 0.380741 0.882368 -0.276519
v 2.06654 -195.191 1172
vn 0.321768 0.863183 -0.389077
v 1.88467 -195.438 1171.14
vn 0.485573 0.725583 -0.487594
v 2.50116 -195.866 1170.92
vn 0.575263 -0.188548 -0.795941
v 2.55319 -197.415 1170.27
vn 0.583683 0.314892 -0.748437
v 2.53746 -196.529 1170.32
vn 0.75118 -0.0220155 -0.65973
v 3.28426 -197.169 1170.88
vn 0.719253 0.463194 -0.517809
v 3.37802 -196.416 1171.29
vn 0.659255 0.688174 -0.302983
v 3.48972 -195.833 1172.49
vn 0.82605 -0.271145 -0.494087
v 3.91165 -197.763 1171.9
vn 0.614652 -0.466241 -0.636257
v 2.88987 -198.591 1171.15
vn 0.610126 -0.616912 -0.497158
v 3.12454 -199.335 1172.2
vn 0.430414 0.885612 -0.174456
v 2.64561 -194.201 1176.75
vn 0.55642 0.80138 -0.219514
v 3.51313 -194.945 1175.66
vn 0.467475 -0.727131 -0.50274
v 3.53838 -200.571 1174.49
vn 0.711384 -0.47686 -0.516273
v 4.14708 -199.758 1174.23
vn 0.541298 -0.659632 -0.521424
v 4.4751 -200.821 1175.57
vn 0.166255 -0.902766 -0.396703
v 3.65369 -201.565 1176.08
vn -0.0232293 -0.94808 -0.317182
v 3.95568 -202.328 1178.55
vn 0.0264084 -0.879229 -0.475668
v 5.09049 -202.585 1179.39
vn -0.158042 -0.922854 -0.351232
v 4.64617 -203.074 1180.56
vn -0.182411 -0.902035 -0.391228
v 5.7109 -203.82 1181.69
vn -0.189415 -0.924072 -0.331983
v 5.48309 -204.316 1183.04
vn 0.107967 -0.947493 -0.301
v 6.15929 -204.489 1183.33
vn 0.0222986 0.370028 0.928753
v 1.70469 -191.438 1189.99
vn 0.182247 0.973884 0.135412
v 2.67565 -191.233 1189.77
vn -0.276098 -0.927663 -0.25142
v 5.19904 -204.616 1184.24
vn -0.0861656 0.469159 0.8789
v 3.17127 -191.52 1190
vn 0.0937941 0.107695 0.98975
v 2.09625 -192.95 1190.19
vn -0.0268337 0.0737384 0.996917
v 2.70037 -192.091 1190.09
vn 0.201199 0.0160202 0.979419
v 3.21569 -194.122 1190.12
vn -0.0804907 -0.982842 -0.165963
v 6.15215 -205.447 1187.03
vn 0.161576 -0.956562 -0.242656
v 6.48389 -205.269 1186.21
vn 0.247365 0.0394372 0.968119
v 4.7546 -201.032 1190.04
vn -0.160651 -0.984118 -0.0755212
v 5.61656 -205.554 1188.32
vn -0.0486602 -0.997 0.0601939
v 6.05864 -205.607 1188.67
vn 0.198061 -0.973619 -0.113303
v 6.61893 -205.527 1187.79
vn 0.286034 -0.955747 0.0687951
v 6.67081 -205.557 1188.79
vn 0.0607905 -0.15141 0.9866
v 5.29221 -202.364 1189.9
vn -0.121321 -0.817899 0.562426
v 5.82307 -205.445 1189.16
vn 0.0138583 -0.343734 0.938965
v 6.15612 -205.035 1189.48
vn 0.113649 -0.916906 0.38258
v 6.47354 -205.547 1189.06
vn 0.180701 -0.57631 0.797003
v 6.63343 -205.319 1189.31
vn 0.855187 0.250546 -0.453742
v 3.93853 -196.895 1171.89
vn 0.927325 0.0510477 -0.37076
v 4.33452 -197.242 1172.62
vn 0.863515 0.408156 -0.296226
v 4.41445 -196.748 1173.17
vn 0.752328 0.609042 -0.251138
v 4.67791 -195.761 1176.43
vn 0.888986 -0.131467 -0.438658
v 5.05216 -198.17 1174.78
vn 0.899686 0.290563 -0.325789
v 5.0895 -197.173 1175.06
vn 0.747052 -0.399468 -0.531355
v 4.97053 -200.316 1175.65
vn 0.611263 -0.542382 -0.57635
v 5.9282 -201.243 1178
vn 0.302713 -0.804376 -0.511218
v 5.55024 -202.068 1178.74
vn 0.382747 0.898864 -0.21342
v 4.33803 -194.138 1182.71
vn 0.200923 -0.834851 -0.512497
v 6.36337 -203.304 1180.71
vn 0.416024 -0.714191 -0.562899
v 6.7079 -202.936 1180.36
vn 0.545895 -0.730886 -0.40964
v 6.7708 -203.252 1180.89
vn 0.0144347 -0.911054 -0.412034
v 6.15596 -203.924 1181.82
vn 0.407721 -0.843746 -0.34908
v 6.57384 -203.915 1181.98
vn 0.776956 -0.594052 -0.208425
v 6.9111 -203.607 1182.03
vn 0.873442 -0.459603 -0.16082
v 6.91214 -204.086 1183.98
vn 0.167017 0.960015 -0.224668
v 3.34966 -191.37 1189.65
vn 0.992559 -0.114121 -0.0424577
v 7.31882 -202.414 1186.08
vn 0.607472 -0.74938 -0.263452
v 6.65704 -204.622 1184.49
vn 0.839383 -0.476818 -0.260922
v 6.93812 -204.505 1184.91
vn 0.96969 -0.205459 -0.132245
v 7.14522 -203.8 1184.87
vn 0.100598 0.994118 0.0401239
v 3.32974 -191.353 1189.87
vn 0.140116 0.979651 -0.143709
v 3.74502 -191.371 1189.82
vn -0.109153 0.285846 0.952039
v 3.82701 -191.632 1190.18
vn 0.0855346 0.966472 0.242106
v 4.20382 -191.494 1190.15
vn 0.191862 0.974078 -0.11984
v 4.83024 -191.536 1190.06
vn 0.0798365 -0.185227 0.979447
v 4.16781 -193.006 1190.02
vn 0.225671 0.897843 -0.378089
v 4.61811 -191.553 1189.84
vn 0.0311503 0.0909856 0.995365
v 4.71727 -191.873 1190.25
vn 0.314731 0.044681 0.948129
v 6.06407 -196.573 1189.13
vn 0.991133 0.0594918 -0.118814
v 7.36627 -203.035 1186.74
vn 0.496722 -0.843359 -0.204971
v 6.90228 -205.224 1186.59
vn 0.935401 -0.251369 -0.248675
v 7.33952 -204.682 1186.48
vn 0.761487 -0.60415 -0.234821
v 7.24302 -204.931 1186.63
vn 0.378228 0.0466725 0.924535
v 6.03991 -201.271 1189.72
vn 0.661969 0.0201799 0.749259
v 6.97411 -201.773 1189.29
vn 0.568823 0.068787 0.819578
v 7.03532 -203.663 1189.2
vn 0.841831 0.157993 0.5161
v 7.34313 -203.499 1188.91
vn 0.97828 0.184968 0.0935678
v 7.60588 -203.649 1188.21
vn 0.999025 0.0385591 0.0214776
v 7.50527 -202.825 1188.24
vn 0.925239 0.0204337 0.378835
v 7.43225 -202.765 1188.69
vn 0.956575 0.260331 0.131122
v 7.73828 -204.118 1188.48
vn 0.494262 -0.865379 -0.0826133
v 6.9945 -205.379 1187.79
vn 0.656301 -0.753638 0.0360381
v 7.37995 -205.158 1188.44
vn 0.722828 -0.680772 -0.118611
v 7.52667 -204.989 1188.05
vn 0.984825 0.0921419 -0.14707
v 7.65607 -204.109 1187.65
vn 0.984222 0.0774707 -0.159078
v 7.76303 -204.399 1187.98
vn 0.917954 -0.365994 -0.152997
v 7.75708 -204.658 1188.11
vn 0.997329 -0.0638843 0.0354093
v 7.81329 -204.505 1188.36
vn 0.872977 -0.477955 0.0973117
v 7.70741 -204.801 1188.54
vn 0.868517 0.000458684 0.495659
v 7.72211 -204.45 1188.8
vn 0.508738 -0.85898 0.0577801
v 7.04093 -205.381 1188.83
vn 0.37286 -0.14448 0.91657
v 6.92301 -204.819 1189.38
vn 0.510487 -0.723922 0.464047
v 7.04135 -205.34 1189.07
vn 0.771995 -0.51819 0.368107
v 7.50975 -204.958 1188.89
vn 0.60627 -0.192672 0.771566
v 7.33844 -204.867 1189.16
vn 0.65 0.69211 -0.313821
v 5.85596 -195.869 1179.1
vn 0.778821 0.384249 -0.495773
v 6.46398 -197.58 1178.13
vn 0.846167 0.127964 -0.517327
v 6.47193 -198.309 1177.72
vn 0.782101 -0.194244 -0.592104
v 6.58771 -199.784 1177.92
vn 0.823931 0.0756545 -0.561618
v 7.97981 -198.858 1179.27
vn 0.723925 -0.301562 -0.620478
v 7.44659 -200.528 1179.07
vn 0.94851 -0.209841 -0.237266
v 7.98154 -200.024 1179.57
vn 0.964388 -0.256373 0.0650287
v 7.8283 -198.367 1181.73
vn 0.945503 -0.218018 0.241853
v 7.945 -198.553 1181.03
vn 0.983527 -0.101881 0.149316
v 7.87506 -200.408 1180.73
vn 0.809468 -0.487794 -0.32683
v 7.32275 -202.278 1180.26
vn 0.981169 -0.192397 0.0170259
v 7.55762 -202.21 1182.14
vn 0.28579 0.869017 -0.403899
v 5.85103 -192.572 1188.54
vn 0.152618 0.303419 0.940555
v 5.09265 -191.736 1190.19
vn 0.363468 0.92943 -0.0636454
v 5.72839 -191.855 1189.87
vn 0.240389 0.0423128 0.969754
v 6.06894 -192.35 1190.07
vn 0.13063 -0.226541 0.965202
v 6.16226 -192.733 1189.99
vn 0.501081 0.574641 0.647074
v 6.41501 -192.215 1189.9
vn 0.526578 0.849946 0.0175089
v 6.65306 -192.293 1189.64
vn 0.35459 0.849386 -0.39091
v 6.72255 -192.413 1189.39
vn 0.182801 -0.11832 0.976004
v 6.9127 -195.88 1188.94
vn 0.185592 -0.229453 0.955462
v 7.77932 -196.895 1188.73
vn 0.513989 -0.00795575 0.85776
v 7.15936 -198.498 1188.88
vn 0.330177 -0.0517234 0.942501
v 7.16658 -197.719 1188.83
vn 0.51087 -0.187067 0.839058
v 7.65751 -197.748 1188.61
vn 0.852038 -0.17456 0.493518
v 7.92393 -198.374 1188.19
vn 0.949759 -0.262045 0.171145
v 7.96188 -199.072 1187.58
vn 0.989012 -0.117711 0.0894385
v 7.57397 -201.443 1188
vn 0.747166 -0.0109813 0.664547
v 7.47019 -201.056 1188.75
vn 0.715534 0.457678 -0.52777
v 7.75012 -197.544 1179.67
vn 0.7556 0.559987 -0.339828
v 7.99937 -196.978 1180.84
vn 0.887778 0.287411 -0.359507
v 8.14006 -197.949 1179.93
vn 0.997954 -0.0595789 -0.0232111
v 8.24097 -198.24 1180.25
vn 0.963982 -0.263305 -0.0375382
v 8.23804 -197.532 1182.12
vn 0.947156 0.262604 -0.184212
v 8.23042 -197.236 1181.16
vn 0.972611 -0.221345 0.0709538
v 8.25896 -197.661 1181.17
vn 0.543131 0.766282 -0.343249
v 7.83202 -195.641 1183.33
vn 0.96707 0.167585 -0.191549
v 8.40223 -196.682 1182.97
vn 0.792886 0.525321 -0.308819
v 8.2036 -196.002 1183.4
vn 0.934432 -0.315894 -0.164462
v 8.46567 -197.191 1183.87
vn 0.953263 0.114186 -0.279732
v 8.6622 -196.183 1184.34
vn 0.519646 0.799834 -0.30039
v 8.35118 -194.766 1185.82
vn 0.753497 0.56329 -0.339037
v 8.69797 -195.227 1185.44
vn 0.846262 -0.513524 -0.141894
v 8.9363 -197.095 1185.72
vn 0.949339 -0.143449 -0.279602
v 9.22645 -196.517 1185.85
vn 0.51009 0.794155 -0.330341
v 8.05744 -194.167 1187.28
vn 0.766299 -0.6206 0.166258
v 8.68819 -197.525 1187.3
vn 0.937111 -0.345643 -0.0485102
v 8.25407 -198.265 1185.89
vn 0.389758 0.0301227 0.920425
v 7.01592 -192.884 1189.75
vn 0.521145 0.818252 -0.242633
v 7.6138 -192.977 1189.13
vn 0.666747 0.531072 0.522887
v 7.82789 -193.18 1189.25
vn 0.689331 0.71788 -0.0973205
v 8.42307 -193.71 1188.83
vn 0.125525 -0.215296 0.968448
v 7.61094 -194.511 1189.22
vn 0.379986 0.0402918 0.924114
v 8.30608 -194.002 1189.17
vn 0.326568 -0.564315 0.758223
v 8.43551 -197.079 1188.5
vn 0.412938 -0.580163 0.702064
v 9.34725 -196.668 1188.51
vn 0.222338 -0.310245 0.924291
v 9.28544 -196.319 1188.72
vn 0.642505 -0.461322 0.611857
v 8.27063 -197.671 1188.14
vn 0.424609 -0.341411 0.838538
v 8.10024 -197.388 1188.49
vn 0.484333 -0.744256 0.459896
v 8.84572 -197.121 1188.2
vn 0.489038 -0.776551 0.397255
v 9.39598 -196.838 1188.25
vn 0.886084 0.369479 -0.279894
v 9.19418 -195.537 1186.13
vn 0.968283 -0.0283954 -0.248236
v 9.66813 -196.229 1187.34
vn 0.699666 0.681872 -0.213349
v 9.1705 -194.559 1188.5
vn 0.81255 0.509408 0.283314
v 9.2259 -194.604 1188.69
vn 0.566018 0.198134 0.800229
v 9.14111 -194.903 1188.89
vn 0.836278 0.536588 -0.112747
v 9.40799 -194.894 1188.38
vn 0.364515 -0.0345147 0.930557
v 9.24169 -195.303 1188.88
vn 0.85302 -0.519794 -0.0466049
v 9.74047 -196.599 1188.07
vn 0.778209 0.172059 0.603976
v 9.68362 -195.536 1188.58
vn 0.771765 -0.492366 0.402437
v 9.75527 -196.505 1188.3
vn 0.585361 -0.23583 0.775717
v 9.66322 -196.193 1188.61
vn 0.881823 0.440779 -0.167634
v 9.63702 -195.347 1188.22
vn 0.928761 0.326447 -0.175598
v 9.73163 -195.602 1188.14
vn 0.935921 0.345669 0.0675675
v 9.7152 -195.468 1188.39
vn 0.983472 0.157631 -0.0890829
v 9.85805 -196.024 1188.22
vn 0.986378 -0.163908 -0.0138512
v 9.85863 -196.23 1188.19
vn 0.942248 -0.037083 0.332857
v 9.84104 -196.123 1188.4
vn -0.530808 -0.187222 0.826554
v -11.1037 -195.994 1188.56
vn -0.502284 -0.399304 0.766986
v -11.072 -196.381 1188.44
vn -0.841676 0.0969551 0.531207
v -9.11012 -204.302 1188.49
vn -0.840178 -0.0491398 0.540079
v -9.05634 -204.743 1188.57
vn -0.762668 -0.637093 0.111576
v -9.05634 -204.743 1188.57
vn -0.452503 -0.640447 0.620539
v -9.01511 -197.454 1188.65
vn -0.546114 0.318233 0.774911
v -8.36407 -192.511 1189.64
vn -0.435479 0.894566 0.100551
v -7.80907 -192.216 1189.87
vn -0.387203 0.821406 0.418767
v -7.04334 -191.943 1190.07
vn -0.211774 0.633053 0.744578
v -6.11588 -191.527 1190.08
vn -0.237085 0.957339 -0.165206
v -6.11588 -191.527 1190.08
vn 0.0382248 0.630576 0.775186
v -5.03132 -191.337 1190
vn -0.0743268 0.943789 0.322085
v -4.51117 -191.364 1189.94
vn -0.00416097 0.383427 0.923562
v -1.35889 -190.801 1189.73
vn 0.0791571 0.886612 0.45569
v 0.301379 -190.832 1189.74
vn -0.308991 -0.885806 0.346225
v 3.83422 -204.875 1189.25
vn 0.0479056 0.615768 0.78647
v 2.67565 -191.233 1189.77
vn -0.0254349 0.65866 0.752011
v 3.32974 -191.353 1189.87
vn -0.0307768 0.489993 0.871183
v 4.20382 -191.494 1190.15
vn 0.0625085 0.477105 0.876621
v 4.83024 -191.536 1190.06
vn 0.383675 0.794096 0.471387
v 4.83024 -191.536 1190.06
vn 0.386472 0.787965 0.479323
v 5.09265 -191.736 1190.19
vn 0.98348 -0.0580913 0.17144
v 7.47019 -201.056 1188.75
f 66//66 67//67 2//2
f 2//2 67//67 1//1
f 67//67 61//61 1//1
f 1//1 61//61 62//62
f 1//1 62//62 11//11
f 62//62 76//76 11//11
f 3//3 66//66 4//4
f 66//66 2//2 4//4
f 9//9 6//6 2//2
f 3//3 4//4 5//5
f 4//4 6//6 5//5
f 4//4 2//2 6//6
f 5//5 6//6 12//12
f 6//6 13//13 12//12
f 6//6 17//17 13//13
f 7//7 66//66 3//3
f 5//5 8//8 7//7
f 7//7 3//3 5//5
f 14//14 8//8 5//5
f 5//5 12//12 14//14
f 66//66 7//7 72//72
f 72//72 7//7 8//8
f 8//8 14//14 81//81
f 9//9 10//10 6//6
f 6//6 10//10 17//17
f 2//2 1//1 9//9
f 9//9 11//11 10//10
f 10//10 74//74 17//17
f 1//1 11//11 9//9
f 10//10 73//73 74//74
f 73//73 11//11 76//76
f 11//11 73//73 10//10
f 79//79 19//19 25//25
f 460//460 461//461 16//16
f 16//16 461//461 17//17
f 14//14 460//460 15//15
f 15//15 460//460 16//16
f 15//15 16//16 85//85
f 84//84 81//81 14//14
f 14//14 15//15 84//84
f 84//84 15//15 85//85
f 85//85 16//16 87//87
f 16//16 17//17 87//87
f 17//17 74//74 87//87
f 18//18 22//22 95//95
f 19//19 27//27 25//25
f 19//19 92//92 27//27
f 92//92 97//97 27//27
f 92//92 93//93 97//97
f 93//93 98//98 97//97
f 25//25 24//24 20//20
f 22//22 18//18 20//20
f 462//462 21//21 22//22
f 23//23 22//22 21//21
f 463//463 21//21 462//462
f 28//28 21//21 463//463
f 23//23 95//95 22//22
f 100//100 23//23 21//21
f 25//25 26//26 464//464
f 27//27 26//26 25//25
f 26//26 28//28 464//464
f 27//27 29//29 26//26
f 26//26 29//29 28//28
f 101//101 29//29 27//27
f 27//27 97//97 101//101
f 21//21 28//28 30//30
f 21//21 30//30 100//100
f 28//28 29//29 31//31
f 30//30 28//28 31//31
f 31//31 29//29 101//101
f 39//39 106//106 32//32
f 42//42 32//32 33//33
f 33//33 107//107 43//43
f 108//108 107//107 33//33
f 32//32 106//106 108//108
f 108//108 33//33 32//32
f 107//107 110//110 43//43
f 38//38 50//50 49//49
f 34//34 37//37 42//42
f 37//37 34//34 50//50
f 34//34 35//35 36//36
f 36//36 51//51 34//34
f 42//42 37//37 32//32
f 38//38 37//37 50//50
f 37//37 39//39 32//32
f 38//38 39//39 37//37
f 42//42 43//43 40//40
f 40//40 43//43 44//44
f 41//41 40//40 55//55
f 55//55 54//54 41//41
f 42//42 33//33 43//43
f 40//40 34//34 42//42
f 34//34 40//40 41//41
f 41//41 35//35 34//34
f 35//35 41//41 52//52
f 40//40 44//44 55//55
f 43//43 45//45 44//44
f 50//50 48//48 49//49
f 49//49 48//48 61//61
f 59//59 38//38 49//49
f 114//114 38//38 59//59
f 114//114 59//59 47//47
f 113//113 114//114 47//47
f 34//34 51//51 50//50
f 52//52 51//51 36//36
f 52//52 36//36 35//35
f 51//51 48//48 50//50
f 51//51 52//52 53//53
f 51//51 53//53 48//48
f 52//52 63//63 53//53
f 55//55 78//78 54//54
f 54//54 78//78 52//52
f 52//52 41//41 54//54
f 44//44 56//56 55//55
f 55//55 56//56 64//64
f 46//46 44//44 45//45
f 46//46 56//56 44//44
f 57//57 56//56 46//46
f 56//56 57//57 64//64
f 46//46 58//58 57//57
f 58//58 46//46 112//112
f 58//58 112//112 134//134
f 47//47 59//59 66//66
f 60//60 47//47 66//66
f 113//113 47//47 60//60
f 61//61 48//48 62//62
f 48//48 53//53 62//62
f 61//61 59//59 49//49
f 53//53 63//63 62//62
f 52//52 78//78 63//63
f 55//55 64//64 79//79
f 55//55 79//79 78//78
f 57//57 65//65 64//64
f 65//65 80//80 64//64
f 65//65 57//57 58//58
f 65//65 58//58 68//68
f 68//68 80//80 65//65
f 58//58 134//134 68//68
f 71//71 60//60 66//66
f 59//59 61//61 67//67
f 67//67 66//66 59//59
f 76//76 62//62 77//77
f 62//62 63//63 77//77
f 63//63 78//78 77//77
f 64//64 80//80 79//79
f 68//68 94//94 80//80
f 68//68 116//116 94//94
f 72//72 8//8 70//70
f 8//8 81//81 70//70
f 66//66 72//72 69//69
f 72//72 70//70 69//69
f 71//71 66//66 69//69
f 70//70 81//81 82//82
f 71//71 69//69 70//70
f 70//70 82//82 71//71
f 71//71 82//82 117//117
f 75//75 74//74 73//73
f 75//75 86//86 74//74
f 75//75 90//90 86//86
f 76//76 75//75 73//73
f 76//76 77//77 90//90
f 75//75 76//76 90//90
f 77//77 95//95 90//90
f 77//77 78//78 95//95
f 79//79 20//20 78//78
f 78//78 20//20 18//18
f 79//79 25//25 20//20
f 79//79 80//80 19//19
f 94//94 92//92 80//80
f 116//116 99//99 94//94
f 82//82 81//81 83//83
f 82//82 83//83 120//120
f 83//83 81//81 84//84
f 84//84 85//85 118//118
f 83//83 84//84 118//118
f 85//85 88//88 118//118
f 87//87 74//74 86//86
f 88//88 85//85 87//87
f 88//88 87//87 89//89
f 465//465 87//87 86//86
f 121//121 118//118 88//88
f 121//121 88//88 89//89
f 91//91 86//86 90//90
f 86//86 91//91 89//89
f 78//78 18//18 95//95
f 80//80 92//92 19//19
f 93//93 92//92 94//94
f 99//99 93//93 94//94
f 90//90 95//95 91//91
f 95//95 96//96 91//91
f 23//23 96//96 95//95
f 100//100 96//96 23//23
f 123//123 96//96 100//100
f 101//101 97//97 98//98
f 98//98 102//102 101//101
f 98//98 104//104 102//102
f 99//99 98//98 93//93
f 99//99 104//104 98//98
f 149//149 104//104 99//99
f 105//105 100//100 30//30
f 105//105 123//123 100//100
f 102//102 31//31 101//101
f 102//102 103//103 31//31
f 104//104 103//103 102//102
f 30//30 31//31 103//103
f 30//30 103//103 105//105
f 124//124 103//103 104//104
f 109//109 125//125 110//110
f 110//110 126//126 127//127
f 126//126 110//110 125//125
f 127//127 129//129 110//110
f 106//106 39//39 131//131
f 132//132 106//106 131//131
f 107//107 108//108 109//109
f 106//106 109//109 108//108
f 107//107 109//109 110//110
f 109//109 132//132 125//125
f 109//109 106//106 132//132
f 45//45 43//43 110//110
f 111//111 45//45 110//110
f 131//131 39//39 38//38
f 131//131 38//38 114//114
f 115//115 131//131 114//114
f 111//111 46//46 45//45
f 46//46 135//135 112//112
f 135//135 46//46 111//111
f 134//134 112//112 135//135
f 115//115 114//114 113//113
f 136//136 115//115 113//113
f 138//138 113//113 60//60
f 134//134 137//137 68//68
f 60//60 71//71 138//138
f 137//137 116//116 68//68
f 119//119 71//71 117//117
f 138//138 71//71 119//119
f 139//139 138//138 119//119
f 144//144 138//138 139//139
f 137//137 122//122 116//116
f 141//141 466//466 120//120
f 139//139 119//119 117//117
f 466//466 141//141 140//140
f 83//83 118//118 120//120
f 82//82 120//120 466//466
f 120//120 118//118 141//141
f 178//178 122//122 137//137
f 122//122 99//99 116//116
f 91//91 96//96 200//200
f 200//200 96//96 123//123
f 122//122 149//149 99//99
f 122//122 178//178 149//149
f 124//124 104//104 149//149
f 105//105 103//103 124//124
f 123//123 105//105 124//124
f 160//160 162//162 125//125
f 125//125 162//162 126//126
f 162//162 152//152 126//126
f 164//164 125//125 132//132
f 165//165 164//164 132//132
f 127//127 128//128 129//129
f 127//127 163//163 128//128
f 129//129 111//111 110//110
f 129//129 130//130 111//111
f 128//128 130//130 129//129
f 166//166 133//133 130//130
f 165//165 131//131 136//136
f 111//111 133//133 135//135
f 111//111 130//130 133//133
f 131//131 115//115 136//136
f 137//137 134//134 135//135
f 137//137 135//135 133//133
f 136//136 113//113 138//138
f 169//169 136//136 138//138
f 138//138 144//144 171//171
f 117//117 144//144 139//139
f 144//144 117//117 467//467
f 118//118 142//142 141//141
f 140//140 141//141 143//143
f 141//141 142//142 143//143
f 143//143 142//142 145//145
f 145//145 142//142 118//118
f 147//147 140//140 143//143
f 145//145 118//118 121//121
f 467//467 146//146 144//144
f 146//146 467//467 468//468
f 147//147 143//143 148//148
f 148//148 143//143 145//145
f 171//171 144//144 146//146
f 172//172 146//146 468//468
f 469//469 147//147 148//148
f 171//171 146//146 470//470
f 173//173 469//469 148//148
f 121//121 89//89 199//199
f 199//199 89//89 91//91
f 149//149 150//150 124//124
f 178//178 150//150 149//149
f 179//179 124//124 150//150
f 162//162 160//160 153//153
f 151//151 153//153 160//160
f 151//151 160//160 161//161
f 186//186 151//151 161//161
f 151//151 155//155 153//153
f 151//151 183//183 155//155
f 155//155 183//183 181//181
f 152//152 154//154 163//163
f 152//152 156//156 154//154
f 156//156 152//152 153//153
f 155//155 156//156 153//153
f 156//156 181//181 157//157
f 154//154 156//156 157//157
f 156//156 155//155 181//181
f 154//154 159//159 163//163
f 154//154 158//158 159//159
f 154//154 157//157 158//158
f 160//160 164//164 161//161
f 186//186 161//161 165//165
f 162//162 153//153 152//152
f 152//152 127//127 126//126
f 152//152 163//163 127//127
f 163//163 159//159 128//128
f 128//128 159//159 189//189
f 166//166 128//128 189//189
f 165//165 161//161 164//164
f 160//160 125//125 164//164
f 130//130 128//128 166//166
f 167//167 133//133 166//166
f 192//192 168//168 167//167
f 165//165 132//132 131//131
f 193//193 170//170 168//168
f 137//137 133//133 167//167
f 168//168 170//170 137//137
f 168//168 137//137 167//167
f 165//165 136//136 169//169
f 138//138 245//245 169//169
f 138//138 171//171 248//248
f 137//137 170//170 178//178
f 194//194 178//178 170//170
f 174//174 173//173 148//148
f 148//148 145//145 174//174
f 174//174 145//145 199//199
f 174//174 199//199 175//175
f 175//175 173//173 174//174
f 176//176 171//171 470//470
f 177//177 176//176 470//470
f 471//471 469//469 173//173
f 248//248 171//171 176//176
f 195//195 471//471 173//173
f 195//195 173//173 175//175
f 198//198 195//195 175//175
f 196//196 248//248 176//176
f 177//177 196//196 176//176
f 121//121 199//199 145//145
f 199//199 198//198 175//175
f 124//124 179//179 123//123
f 123//123 179//179 221//221
f 201//201 150//150 178//178
f 202//202 150//150 201//201
f 179//179 150//150 202//202
f 203//203 183//183 180//180
f 180//180 187//187 203//203
f 157//157 181//181 182//182
f 181//181 183//183 184//184
f 181//181 184//184 182//182
f 184//184 183//183 205//205
f 205//205 204//204 184//184
f 184//184 204//204 182//182
f 205//205 183//183 203//203
f 185//185 157//157 182//182
f 211//211 185//185 207//207
f 180//180 151//151 186//186
f 180//180 183//183 151//151
f 180//180 186//186 187//187
f 157//157 185//185 158//158
f 185//185 211//211 158//158
f 189//189 159//159 188//188
f 211//211 159//159 158//158
f 159//159 211//211 188//188
f 165//165 191//191 186//186
f 187//187 186//186 191//191
f 166//166 189//189 190//190
f 188//188 190//190 189//189
f 190//190 167//167 166//166
f 213//213 192//192 190//190
f 191//191 165//165 169//169
f 192//192 193//193 168//168
f 190//190 192//192 167//167
f 213//213 216//216 192//192
f 192//192 216//216 193//193
f 215//215 170//170 193//193
f 216//216 215//215 193//193
f 215//215 194//194 170//170
f 138//138 248//248 245//245
f 201//201 178//178 194//194
f 218//218 201//201 194//194
f 197//197 471//471 195//195
f 472//472 196//196 177//177
f 197//197 195//195 198//198
f 199//199 219//219 198//198
f 219//219 199//199 254//254
f 199//199 91//91 200//200
f 254//254 199//199 200//200
f 221//221 200//200 123//123
f 224//224 202//202 201//201
f 179//179 202//202 221//221
f 210//210 225//225 203//203
f 205//205 206//206 204//204
f 204//204 185//185 182//182
f 205//205 203//203 225//225
f 206//206 209//209 204//204
f 209//209 185//185 204//204
f 206//206 231//231 209//209
f 225//225 206//206 205//205
f 208//208 211//211 207//207
f 185//185 209//209 207//207
f 238//238 212//212 208//208
f 207//207 209//209 230//230
f 232//232 208//208 207//207
f 231//231 230//230 209//209
f 230//230 232//232 207//207
f 238//238 208//208 232//232
f 187//187 210//210 203//203
f 210//210 187//187 214//214
f 241//241 210//210 214//214
f 212//212 188//188 211//211
f 211//211 208//208 212//212
f 190//190 188//188 212//212
f 214//214 187//187 191//191
f 240//240 213//213 190//190
f 242//242 213//213 271//271
f 214//214 191//191 169//169
f 245//245 214//214 169//169
f 216//216 213//213 244//244
f 242//242 244//244 213//213
f 217//217 215//215 216//216
f 244//244 217//217 216//216
f 218//218 194//194 215//215
f 217//217 218//218 215//215
f 217//217 250//250 218//218
f 255//255 218//218 250//250
f 220//220 248//248 196//196
f 198//198 219//219 197//197
f 251//251 196//196 472//472
f 196//196 251//251 220//220
f 252//252 251//251 472//472
f 219//219 473//473 197//197
f 253//253 220//220 251//251
f 218//218 222//222 201//201
f 278//278 219//219 254//254
f 255//255 222//222 218//218
f 221//221 254//254 200//200
f 224//224 201//201 222//222
f 221//221 202//202 223//223
f 202//202 224//224 223//223
f 224//224 222//222 256//256
f 221//221 223//223 320//320
f 320//320 223//223 257//257
f 223//223 224//224 257//257
f 257//257 224//224 256//256
f 222//222 255//255 256//256
f 225//225 210//210 228//228
f 210//210 241//241 228//228
f 206//206 226//226 231//231
f 225//225 227//227 206//206
f 227//227 226//226 206//206
f 225//225 228//228 227//227
f 226//226 227//227 229//229
f 227//227 228//228 261//261
f 227//227 261//261 229//229
f 233//233 232//232 230//230
f 231//231 233//233 230//230
f 226//226 234//234 231//231
f 234//234 233//233 231//231
f 235//235 232//232 233//233
f 232//232 235//235 236//236
f 238//238 232//232 236//236
f 234//234 237//237 233//233
f 237//237 235//235 233//233
f 229//229 234//234 226//226
f 229//229 264//264 234//234
f 234//234 264//264 237//237
f 235//235 263//263 236//236
f 263//263 235//235 237//237
f 238//238 236//236 267//267
f 236//236 263//263 267//267
f 239//239 212//212 238//238
f 238//238 267//267 239//239
f 268//268 239//239 267//267
f 240//240 190//190 212//212
f 239//239 240//240 212//212
f 269//269 240//240 239//239
f 239//239 268//268 269//269
f 240//240 271//271 213//213
f 269//269 272//272 240//240
f 241//241 214//214 245//245
f 241//241 245//245 247//247
f 271//271 273//273 242//242
f 244//244 242//242 243//243
f 244//244 243//243 274//274
f 246//246 217//217 244//244
f 244//244 274//274 246//246
f 247//247 245//245 248//248
f 217//217 246//246 250//250
f 249//249 248//248 220//220
f 248//248 249//249 247//247
f 277//277 253//253 251//251
f 277//277 251//251 252//252
f 278//278 473//473 219//219
f 277//277 252//252 474//474
f 249//249 220//220 253//253
f 277//277 394//394 249//249
f 277//277 249//249 253//253
f 258//258 255//255 250//250
f 278//278 254//254 306//306
f 221//221 320//320 279//279
f 320//320 257//257 260//260
f 256//256 255//255 258//258
f 256//256 258//258 259//259
f 257//257 256//256 259//259
f 257//257 259//259 260//260
f 320//320 260//260 280//280
f 260//260 259//259 280//280
f 259//259 258//258 475//475
f 261//261 262//262 229//229
f 237//237 265//265 263//263
f 265//265 237//237 264//264
f 262//262 264//264 229//229
f 286//286 263//263 265//265
f 262//262 287//287 264//264
f 287//287 265//265 264//264
f 266//266 228//228 241//241
f 261//261 228//228 266//266
f 261//261 266//266 284//284
f 285//285 262//262 261//261
f 261//261 284//284 285//285
f 267//267 292//292 268//268
f 267//267 263//263 286//286
f 267//267 286//286 292//292
f 268//268 292//292 293//293
f 241//241 270//270 266//266
f 296//296 272//272 269//269
f 270//270 241//241 247//247
f 334//334 270//270 247//247
f 272//272 271//271 240//240
f 299//299 271//271 272//272
f 299//299 273//273 271//271
f 243//243 242//242 273//273
f 274//274 243//243 273//273
f 275//275 274//274 273//273
f 273//273 299//299 275//275
f 275//275 300//300 274//274
f 300//300 275//275 299//299
f 300//300 276//276 274//274
f 276//276 246//246 274//274
f 250//250 246//246 276//276
f 250//250 276//276 308//308
f 394//394 247//247 249//249
f 308//308 276//276 304//304
f 310//310 306//306 254//254
f 312//312 310//310 254//254
f 279//279 312//312 254//254
f 308//308 258//258 250//250
f 279//279 254//254 221//221
f 258//258 282//282 475//475
f 258//258 308//308 281//281
f 281//281 282//282 258//258
f 282//282 281//281 316//316
f 266//266 283//283 284//284
f 287//287 262//262 285//285
f 285//285 284//284 283//283
f 290//290 285//285 283//283
f 290//290 289//289 285//285
f 287//287 285//285 289//289
f 286//286 265//265 287//287
f 286//286 288//288 292//292
f 292//292 288//288 291//291
f 289//289 288//288 287//287
f 288//288 286//286 287//287
f 325//325 288//288 289//289
f 325//325 289//289 290//290
f 283//283 295//295 290//290
f 328//328 290//290 295//295
f 288//288 325//325 291//291
f 325//325 326//326 291//291
f 268//268 293//293 269//269
f 291//291 293//293 292//292
f 297//297 293//293 291//291
f 283//283 266//266 270//270
f 295//295 283//283 294//294
f 269//269 293//293 296//296
f 297//297 296//296 293//293
f 291//291 329//329 297//297
f 270//270 334//334 294//294
f 270//270 294//294 283//283
f 382//382 294//294 334//334
f 296//296 298//298 299//299
f 297//297 298//298 296//296
f 298//298 297//297 331//331
f 296//296 299//299 272//272
f 298//298 333//333 299//299
f 333//333 300//300 299//299
f 333//333 301//301 300//300
f 301//301 302//302 300//300
f 276//276 300//300 302//302
f 276//276 302//302 303//303
f 303//303 304//304 276//276
f 301//301 303//303 302//302
f 338//338 303//303 301//301
f 303//303 338//338 304//304
f 338//338 305//305 304//304
f 277//277 307//307 342//342
f 394//394 277//277 342//342
f 307//307 277//277 474//474
f 306//306 476//476 278//278
f 342//342 307//307 347//347
f 477//477 476//476 306//306
f 308//308 304//304 305//305
f 314//314 308//308 305//305
f 306//306 310//310 311//311
f 306//306 311//311 309//309
f 477//477 306//306 309//309
f 311//311 310//310 312//312
f 309//309 311//311 349//349
f 349//349 311//311 354//354
f 352//352 311//311 312//312
f 355//355 312//312 279//279
f 313//313 316//316 281//281
f 308//308 313//313 281//281
f 314//314 313//313 308//308
f 314//314 318//318 313//313
f 355//355 279//279 315//315
f 315//315 279//279 320//320
f 320//320 360//360 315//315
f 360//360 355//355 315//315
f 316//316 317//317 282//282
f 313//313 317//317 316//316
f 317//317 313//313 318//318
f 318//318 319//319 317//317
f 320//320 378//378 360//360
f 360//360 378//378 362//362
f 321//321 475//475 282//282
f 321//321 282//282 317//317
f 323//323 321//321 317//317
f 320//320 280//280 322//322
f 322//322 280//280 321//321
f 319//319 323//323 317//317
f 322//322 324//324 378//378
f 321//321 324//324 322//322
f 320//320 322//322 378//378
f 379//379 323//323 319//319
f 324//324 321//321 323//323
f 379//379 324//324 323//323
f 324//324 379//379 378//378
f 327//327 290//290 328//328
f 290//290 327//327 325//325
f 327//327 326//326 325//325
f 326//326 329//329 291//291
f 327//327 328//328 330//330
f 326//326 327//327 330//330
f 330//330 329//329 326//326
f 384//384 329//329 330//330
f 329//329 384//384 385//385
f 297//297 329//329 331//331
f 382//382 295//295 294//294
f 382//382 328//328 295//295
f 330//330 328//328 382//382
f 332//332 298//298 331//331
f 298//298 332//332 333//333
f 385//385 331//331 329//329
f 331//331 385//385 332//332
f 387//387 332//332 385//385
f 247//247 394//394 334//334
f 301//301 333//333 335//335
f 336//336 333//333 332//332
f 336//336 335//335 333//333
f 336//336 337//337 335//335
f 336//336 392//392 337//337
f 332//332 392//392 336//336
f 335//335 338//338 301//301
f 335//335 339//339 338//338
f 338//338 339//339 305//305
f 339//339 344//344 305//305
f 339//339 340//340 344//344
f 339//339 335//335 337//337
f 337//337 340//340 339//339
f 337//337 392//392 340//340
f 393//393 346//346 392//392
f 343//343 346//346 393//393
f 341//341 340//340 392//392
f 340//340 341//341 344//344
f 392//392 346//346 341//341
f 348//348 342//342 347//347
f 394//394 342//342 348//348
f 353//353 394//394 348//348
f 346//346 343//343 356//356
f 314//314 305//305 344//344
f 344//344 341//341 345//345
f 341//341 346//346 345//345
f 346//346 358//358 345//345
f 348//348 347//347 350//350
f 478//478 477//477 309//309
f 478//478 309//309 349//349
f 350//350 351//351 348//348
f 478//478 349//349 354//354
f 479//479 478//478 354//354
f 354//354 311//311 352//352
f 353//353 348//348 351//351
f 354//354 395//395 479//479
f 397//397 395//395 354//354
f 354//354 352//352 398//398
f 402//402 352//352 312//312
f 434//434 352//352 402//402
f 312//312 355//355 402//402
f 343//343 365//365 356//356
f 356//356 371//371 346//346
f 343//343 409//409 365//365
f 356//356 365//365 371//371
f 371//371 365//365 364//364
f 357//357 368//368 318//318
f 357//357 318//318 314//314
f 357//357 314//314 344//344
f 370//370 368//368 357//357
f 359//359 344//344 345//345
f 357//357 344//344 359//359
f 357//357 359//359 370//370
f 345//345 358//358 359//359
f 358//358 346//346 371//371
f 404//404 405//405 355//355
f 404//404 355//355 360//360
f 360//360 361//361 404//404
f 407//407 404//404 361//361
f 362//362 361//361 360//360
f 407//407 361//361 410//410
f 409//409 482//482 365//365
f 366//366 365//365 482//482
f 410//410 361//361 366//366
f 376//376 363//363 362//362
f 381//381 376//376 362//362
f 363//363 361//361 362//362
f 363//363 376//376 367//367
f 365//365 366//366 364//364
f 363//363 364//364 366//366
f 363//363 366//366 361//361
f 367//367 364//364 363//363
f 368//368 319//319 318//318
f 368//368 377//377 319//319
f 370//370 369//369 368//368
f 377//377 368//368 369//369
f 375//375 369//369 370//370
f 375//375 380//380 369//369
f 373//373 359//359 358//358
f 359//359 373//373 370//370
f 373//373 375//375 370//370
f 371//371 372//372 358//358
f 372//372 371//371 364//364
f 358//358 372//372 373//373
f 372//372 374//374 373//373
f 373//373 374//374 375//375
f 367//367 374//374 372//372
f 367//367 376//376 374//374
f 374//374 376//376 375//375
f 380//380 375//375 376//376
f 372//372 364//364 367//367
f 377//377 379//379 319//319
f 380//380 379//379 369//369
f 369//369 379//379 377//377
f 378//378 381//381 362//362
f 381//381 378//378 379//379
f 380//380 381//381 379//379
f 380//380 376//376 381//381
f 383//383 384//384 330//330
f 330//330 382//382 383//383
f 383//383 382//382 411//411
f 386//386 383//383 411//411
f 382//382 412//412 411//411
f 384//384 386//386 385//385
f 384//384 383//383 386//386
f 334//334 418//418 382//382
f 387//387 392//392 332//332
f 386//386 387//387 385//385
f 386//386 388//388 387//387
f 386//386 414//414 388//388
f 388//388 414//414 391//391
f 334//334 394//394 418//418
f 391//391 389//389 393//393
f 391//391 390//390 389//389
f 417//417 389//389 390//390
f 387//387 388//388 392//392
f 388//388 391//391 393//393
f 388//388 393//393 392//392
f 429//429 343//343 389//389
f 343//343 429//429 409//409
f 421//421 429//429 389//389
f 343//343 393//393 389//389
f 401//401 394//394 396//396
f 401//401 431//431 394//394
f 353//353 396//396 394//394
f 396//396 353//353 351//351
f 396//396 480//480 481//481
f 481//481 399//399 396//396
f 399//399 395//395 397//397
f 397//397 354//354 398//398
f 399//399 400//400 396//396
f 396//396 400//400 401//401
f 399//399 397//397 430//430
f 430//430 397//397 398//398
f 400//400 399//399 432//432
f 432//432 399//399 430//430
f 398//398 352//352 434//434
f 430//430 398//398 434//434
f 402//402 403//403 434//434
f 402//402 355//355 405//405
f 402//402 405//405 403//403
f 440//440 403//403 405//405
f 406//406 404//404 439//439
f 406//406 440//440 405//405
f 404//404 406//406 405//405
f 440//440 406//406 439//439
f 404//404 407//407 439//439
f 439//439 407//407 428//428
f 408//408 407//407 409//409
f 408//408 409//409 429//429
f 407//407 408//408 428//428
f 428//428 408//408 429//429
f 407//407 482//482 409//409
f 382//382 418//418 412//412
f 411//411 412//412 413//413
f 412//412 416//416 413//413
f 413//413 416//416 414//414
f 411//411 413//413 386//386
f 414//414 386//386 413//413
f 418//418 420//420 412//412
f 389//389 417//417 415//415
f 416//416 417//417 414//414
f 415//415 421//421 389//389
f 412//412 420//420 416//416
f 420//420 419//419 416//416
f 416//416 419//419 417//417
f 419//419 415//415 417//417
f 390//390 414//414 417//417
f 414//414 390//390 391//391
f 418//418 394//394 423//423
f 420//420 418//418 424//424
f 418//418 423//423 424//424
f 422//422 415//415 419//419
f 424//424 419//419 420//420
f 419//419 424//424 422//422
f 415//415 422//422 421//421
f 427//427 423//423 394//394
f 423//423 445//445 424//424
f 424//424 443//443 422//422
f 423//423 427//427 445//445
f 424//424 445//445 443//443
f 443//443 445//445 448//448
f 428//428 429//429 425//425
f 421//421 422//422 426//426
f 425//425 421//421 426//426
f 421//421 425//425 429//429
f 431//431 427//427 394//394
f 431//431 433//433 427//427
f 427//427 433//433 445//445
f 400//400 431//431 401//401
f 400//400 432//432 431//431
f 432//432 430//430 435//435
f 430//430 434//434 435//435
f 432//432 433//433 431//431
f 447//447 432//432 435//435
f 433//433 432//432 446//446
f 433//433 446//446 445//445
f 447//447 446//446 432//432
f 447//447 435//435 449//449
f 403//403 440//440 436//436
f 434//434 403//403 438//438
f 438//438 403//403 436//436
f 437//437 438//438 436//436
f 442//442 437//437 436//436
f 435//435 434//434 449//449
f 434//434 438//438 449//449
f 440//440 439//439 436//436
f 441//441 439//439 428//428
f 441//441 436//436 439//439
f 442//442 436//436 441//441
f 428//428 442//442 441//441
f 422//422 443//443 426//426
f 426//426 443//443 444//444
f 448//448 454//454 443//443
f 426//426 444//444 450//450
f 426//426 450//450 425//425
f 446//446 451//451 456//456
f 451//451 446//446 447//447
f 449//449 451//451 447//447
f 446//446 448//448 445//445
f 448//448 446//446 456//456
f 450//450 442//442 428//428
f 450//450 452//452 442//442
f 437//437 453//453 438//438
f 452//452 437//437 442//442
f 451//451 449//449 453//453
f 453//453 449//449 438//438
f 454//454 448//448 456//456
f 458//458 450//450 444//444
f 459//459 452//452 458//458
f 450//450 458//458 452//452
f 452//452 459//459 453//453
f 437//437 452//452 453//453
f 459//459 451//451 453//453
f 455//455 443//443 454//454
f 454//454 456//456 455//455
f 455//455 456//456 457//457
f 455//455 457//457 443//443
f 444//444 443//443 457//457
f 457//457 456//456 459//459
f 459//459 458//458 457//457
f 457//457 458//458 444//444
f 459//459 456//456 451//451
f 450//450 428//428 425//425
