# Wavafront OBJ file of BodyParts3D
# BodyParts3D, Copyright(C) 2010-2011 The Database Center for Life Science licensed under CC Attribution-Share Alike 2.1 Japan.
vn 0.772669 -0.554682 0.308722
v 81.8774 -59.7804 1021.34
vn 0.967701 -0.239791 0.07781
v 82.0063 -59.7141 1020.71
vn 0.294203 -0.846557 0.443606
v 81.7727 -59.9211 1021.23
vn 0.926031 -0.265408 0.268375
v 81.927 -59.1746 1022.04
vn 0.677554 -0.584319 0.446646
v 81.6922 -59.2453 1022.36
vn 0.827653 -0.539633 0.154229
v 81.8293 -60.4005 1019.42
vn 0.517916 -0.807437 0.282504
v 81.6249 -60.5915 1019.49
vn 0.764667 -0.604514 0.223266
v 81.7433 -60.6514 1019.06
vn 0.659086 -0.712489 0.24076
v 81.7983 -60.1317 1020.7
vn 0.10418 -0.916791 0.38554
v 81.4929 -60.3277 1020.47
vn 0.0855424 -0.909728 0.406298
v 81.3148 -60.5982 1019.8
vn 0.964084 -0.263119 0.0361959
v 81.8581 -60.5731 1018.42
vn 0.411815 -0.829471 0.377342
v 81.469 -60.9635 1018.8
vn 0.161509 -0.893378 0.419274
v 81.2337 -61.6382 1017.71
vn 0.911993 -0.406972 0.0514177
v 81.6421 -61.6447 1016.51
vn 0.578729 -0.769992 0.268674
v 81.4062 -61.8498 1017.04
vn 0.170668 -0.938715 0.299478
v 81.0767 -62.2177 1016.26
vn 0.709573 -0.701409 0.0673098
v 81.2311 -62.4562 1014.82
vn 0.966107 -0.0630811 0.250315
v 81.5263 -57.0656 1024.63
vn 0.100034 -0.7779 0.620374
v 81.0719 -57.3144 1025.02
vn 0.714145 -0.477853 0.511521
v 81.5226 -57.8457 1024.15
vn 0.993691 0.10923 0.0254406
v 81.9808 -58.9499 1021.65
vn 0.987729 0.123584 -0.0954871
v 81.919 -59.4359 1018.32
vn -0.157253 -0.84865 0.505039
v 81.3321 -59.9144 1021.23
vn 0.0770986 -0.896309 0.436677
v 81.1312 -61.0281 1018.83
vn 0.95521 0.0996258 -0.278655
v 81.3326 -60.7083 1013.77
vn 0.991616 -0.0914742 -0.0912652
v 81.6803 -61.3661 1015.65
vn -0.173281 -0.881885 0.438467
v 79.0807 -61.988 1016.64
vn 0.941689 -0.124931 -0.312432
v 81.0369 -62.3576 1012.8
vn 0.306472 -0.93448 0.181166
v 80.9395 -62.6675 1014.59
vn 0.961004 -0.24624 -0.125849
v 81.4217 -61.9969 1014.37
vn 0.499531 -0.865246 0.0426375
v 80.7555 -62.8887 1013.45
vn 0.838244 -0.53077 -0.125021
v 80.9726 -62.6677 1012.91
vn 0.80891 -0.480929 -0.33819
v 80.8831 -62.686 1012.61
vn 0.489301 -0.824698 -0.283652
v 80.4249 -62.9782 1012.25
vn 0.85521 -0.21392 -0.472074
v 80.6799 -62.4375 1012.03
vn 0.686513 -0.533497 -0.494045
v 80.4419 -62.7293 1011.86
vn 0.614145 -0.776772 -0.139467
v 80.7092 -62.903 1012.69
vn 0.20534 -0.969806 0.131571
v 80.2419 -63.0464 1013.34
vn 0.345012 -0.938219 -0.0266859
v 80.446 -63.044 1012.74
vn 0.171114 -0.984872 -0.0273355
v 79.4903 -63.285 1012.36
vn -0.00588526 -0.979788 0.199954
v 79.0806 -63.2478 1013.1
vn 0.346226 -0.684441 0.641613
v 80.0767 -54.5519 1028.45
vn 0.971405 0.21709 0.0961465
v 81.3299 -55.5993 1025.11
vn 0.874328 -0.14696 0.462551
v 80.7788 -55.2562 1027.18
vn -0.129805 -0.831562 0.540052
v 79.7296 -55.3313 1027.47
vn -0.420176 -0.799363 0.429501
v 78.6809 -61.0052 1017.97
vn 0.853746 0.0349313 -0.519516
v 80.4523 -61.6149 1011.48
vn -0.300043 -0.887076 0.350814
v 78.7999 -62.3337 1015.71
vn -0.50184 -0.766228 0.401311
v 78.645 -62.0131 1016.21
vn -0.636306 -0.702239 0.319335
v 78.1165 -61.9631 1015.4
vn 0.743379 -0.251342 -0.61985
v 80.2557 -62.2339 1011.3
vn 0.206459 -0.935561 -0.286531
v 79.3456 -63.2063 1011.57
vn 0.596928 -0.500969 -0.626663
v 79.7076 -62.6774 1010.97
vn 0.425868 -0.743005 -0.516313
v 79.5035 -62.8962 1011.03
vn 0.592964 -0.335615 -0.731954
v 79.5024 -62.4021 1010.63
vn 0.67428 -0.0852968 -0.733533
v 79.6505 -61.9188 1010.59
vn 0.469397 -0.259492 -0.843997
v 79.2928 -62.0971 1010.37
vn -0.471812 -0.863724 0.17713
v 78.4094 -63.1441 1012.99
vn -0.753448 -0.641443 0.144454
v 77.8141 -62.7216 1012.54
vn 0.00238316 -0.931569 -0.363557
v 78.8987 -63.1782 1011.33
vn 0.416273 -0.530252 -0.738614
v 79.3509 -62.581 1010.62
vn 0.170458 -0.782322 -0.599096
v 79.0495 -62.8792 1010.78
vn -0.127708 -0.835038 -0.535165
v 78.8019 -62.9421 1010.86
vn 0.229526 -0.49299 -0.839213
v 78.97 -62.4498 1010.38
vn -0.0845268 -0.666856 -0.740377
v 78.633 -62.5406 1010.4
vn 0.269353 -0.253692 -0.929026
v 78.9042 -61.9857 1010.16
vn -0.183072 -0.979653 -0.0822479
v 78.6317 -63.2957 1011.86
vn -0.327136 -0.882829 -0.337038
v 78.42 -63.1 1011.32
vn -0.659719 -0.743525 -0.10928
v 77.8019 -62.7767 1011.55
vn -0.171596 -0.883844 0.435173
v 77.8825 -52.9684 1031.07
vn 0.874406 0.368261 -0.315907
v 80.6943 -57.877 1013.88
vn 0.657461 0.45577 -0.600015
v 79.5661 -58.1076 1011.6
vn 0.704862 0.199318 -0.680766
v 79.8031 -60.0129 1010.91
vn 0.854477 0.228728 -0.466425
v 80.1129 -59.7629 1011.48
vn 0.452716 0.0485971 -0.890329
v 79.0301 -60.9018 1010.08
vn 0.0715677 -0.132581 -0.988585
v 78.3323 -61.1515 1009.88
vn -0.00807459 0.144063 -0.989536
v 78.1048 -60.4523 1009.88
vn -0.316377 -0.133192 -0.939237
v 77.8516 -61.0568 1009.93
vn 0.00164891 -0.392519 -0.919742
v 78.4711 -62.1673 1010.18
vn -0.446782 -0.732378 -0.513817
v 77.9593 -62.5671 1010.73
vn -0.353068 -0.510674 -0.783935
v 78.1622 -62.1869 1010.24
vn -0.736044 -0.543875 -0.403039
v 77.6041 -62.2962 1010.86
vn -0.17936 -0.292705 -0.93923
v 78.0931 -61.4056 1009.96
vn -0.483921 -0.381845 -0.78741
v 77.654 -61.5287 1010.15
vn -0.695995 -0.282624 -0.660087
v 77.3136 -61.2345 1010.29
vn 0.734506 -0.344789 0.584484
v 78.0736 -51.6083 1032.57
vn 0.89093 0.446941 0.0805377
v 79.5375 -51.2891 1027.69
vn 0.352517 -0.71458 0.604241
v 77.5777 -51.9163 1032.67
vn 0.87234 0.466056 -0.147699
v 80.3344 -53.002 1022.21
vn 0.374185 0.342235 -0.861893
v 78.5481 -59.1142 1010.36
vn 0.289975 0.528246 -0.798042
v 78.3832 -58.1864 1010.78
vn -0.0749886 0.360057 -0.929911
v 77.6176 -58.5701 1010.43
vn -0.460913 0.0499251 -0.88604
v 77.4307 -60.5255 1010.09
vn -0.782632 -0.0916656 -0.615698
v 76.539 -59.7042 1010.8
vn -0.885072 -0.464646 -0.0274233
v 76.6946 -61.04 1011.93
vn -0.888983 -0.368963 -0.271248
v 76.7174 -60.9408 1011.25
vn 0.590946 0.667491 -0.453034
v 78.3686 -53.4881 1015.75
vn 0.348468 0.661038 -0.664529
v 78.4299 -56.2538 1012.39
vn -0.540888 0.297315 -0.786793
v 76.6597 -58.0002 1010.91
vn -0.115196 0.598606 -0.792718
v 77.0825 -57.3261 1011.15
vn -0.945724 -0.112308 -0.304948
v 75.7273 -58.2954 1011.98
vn 0.696747 0.695869 -0.174098
v 77.9945 -49.7345 1023.7
vn -0.47115 -0.803822 0.363163
v 74.4009 -51.9326 1030.12
vn 0.594958 0.7225 -0.352163
v 77.476 -51.3363 1018.34
vn 0.362479 0.772538 -0.521339
v 77.4562 -52.2381 1016.82
vn 0.00960759 0.740361 -0.672141
v 76.4384 -53.0357 1015.27
vn 0.910904 0.264151 0.316983
v 74.4833 -44.9513 1039.26
vn -0.576523 -0.801854 0.157009
v 72.0567 -49.2788 1033.47
vn 0.387173 0.819901 -0.421733
v 75.6638 -49.1356 1020.5
vn -0.847708 -0.521584 0.0966504
v 72.9624 -51.6171 1025.93
vn -0.968796 -0.114595 -0.21978
v 73.5426 -52.9077 1019.65
vn 0.868904 0.105279 0.483656
v 70.027 -43.8029 1047.55
vn 0.343052 -0.755476 0.558185
v 69.5876 -44.1589 1047.67
vn 0.79434 0.606765 0.0293279
v 73.2779 -42.7033 1038.72
vn 0.0462987 0.822763 -0.566496
v 74.0461 -48.8355 1020.36
vn -0.705415 0.372316 -0.603134
v 74.2795 -51.1307 1018.2
vn 0.850322 0.431741 0.30092
v 71.2725 -40.9543 1043.79
vn -0.312451 -0.931944 0.183999
v 68.7286 -44.534 1046.58
vn -0.466803 0.591696 -0.65726
v 73.1677 -48.4579 1021.04
vn -0.915899 -0.0484025 -0.398479
v 72.6075 -48.7519 1021.6
vn 0.708238 0.705146 0.0341921
v 70.9019 -40.0429 1042.19
vn 0.840041 0.242134 0.485492
v 64.9984 -39.6722 1055.14
vn 0.74441 -0.311811 0.590447
v 64.2539 -40.1559 1056.26
vn 0.507977 -0.693775 0.510524
v 63.6833 -41.467 1055.05
vn -0.315536 -0.945794 0.0768802
v 63.1589 -41.6182 1053.98
vn 0.565175 0.804576 -0.182303
v 70.4386 -40.0525 1037.49
vn -0.855262 -0.460202 -0.238203
v 68.3513 -44.0223 1029.82
vn -0.796447 -0.59596 -0.102487
v 67.727 -44.9158 1033.79
vn 0.674601 -0.537345 0.506136
v 23.0239 -70.88 1103.59
vn 0.379171 -0.490448 0.784659
v 22.291 -71.0303 1104.1
vn 0.407032 -0.650614 0.641114
v 21.9911 -71.6906 1103.72
vn 0.852277 -0.522574 -0.0232385
v 25.6427 -70.7909 1093.98
vn 0.814382 -0.542807 0.205287
v 24.5739 -71.7493 1098.88
vn 0.501511 -0.710871 0.493101
v 21.9048 -72.5894 1102.66
vn 0.161821 -0.762736 0.626138
v 21.154 -72.8158 1102.89
vn 0.41527 -0.856172 0.307443
v 22.3312 -73.9905 1099.81
vn -0.0669769 -0.920751 0.384358
v 20.689 -73.9461 1101.31
vn 0.837847 -0.543503 -0.0511577
v 24.8339 -72.305 1093.29
vn 0.614364 -0.775428 0.145838
v 22.5211 -74.5961 1096.83
vn 0.134732 -0.984592 0.111468
v 22.1246 -74.7745 1097.03
vn -0.382174 -0.919362 0.093363
v 21.2192 -74.3012 1098.6
vn 0.600737 -0.792942 -0.101773
v 23.0096 -74.5372 1094.22
vn 0.119548 -0.954832 -0.272038
v 22.357 -74.7196 1093.79
vn 0.408242 -0.813315 0.414556
v 59.771 -40.2837 1062.36
vn 0.691862 0.687276 0.221313
v 67.8191 -37.6443 1047.21
vn -0.297508 -0.954719 0.00100416
v 61.7876 -41.1463 1055.27
vn 0.292126 0.87248 -0.391715
v 68.4757 -39.9799 1034.31
vn -0.698676 0.377071 -0.608005
v 68.6294 -43.4424 1029.43
vn 0.854266 -0.299188 0.425108
v 28.8384 -63.7699 1098.21
vn 0.773492 -0.18181 0.60717
v 24.82 -68.1645 1102.79
vn 0.24882 0.417829 0.873789
v 23.0697 -67.883 1104.03
vn 0.448032 -0.17918 0.875878
v 22.9182 -69.8903 1104.32
vn -0.0265128 -0.267388 0.963224
v 21.9543 -70.6961 1104.33
vn -0.14831 0.136099 0.979531
v 21.7172 -68.9857 1104.49
vn 0.0736117 -0.553763 0.829414
v 21.5921 -71.5869 1103.94
vn -0.249453 -0.384789 0.888657
v 21.1106 -71.5254 1103.9
vn -0.246735 -0.606276 0.75601
v 20.9456 -72.2127 1103.43
vn 0.738038 -0.568857 -0.362907
v 25.7491 -69.9805 1091.44
vn -0.590302 -0.794757 -0.141085
v 19.7354 -73.4899 1100.3
vn -0.309285 -0.949807 0.0470028
v 20.514 -74.0418 1100.69
vn -0.390711 -0.726462 0.56533
v 20.1108 -73.4272 1101.91
vn -0.55206 -0.789388 0.268509
v 19.8651 -73.6669 1101.16
vn -0.680239 -0.732246 -0.0330271
v 19.586 -73.4765 1100.82
vn 0.624787 -0.623273 -0.47029
v 24.6252 -72.2756 1092.21
vn 0.478402 -0.793241 -0.376696
v 22.6285 -73.5499 1091.89
vn 0.346486 -0.515811 -0.78351
v 22.2971 -73.207 1091.08
vn 0.246464 -0.897608 -0.365452
v 22.1232 -74.1318 1092.63
vn 0.0626279 -0.972276 -0.225294
v 21.4744 -74.3828 1093.15
vn -0.285377 -0.957531 -0.0411686
v 20.7053 -74.5857 1095.07
vn 0.359283 -0.782785 -0.508097
v 21.7907 -73.9612 1091.52
vn 0.400233 -0.887198 -0.229553
v 21.9282 -74.0489 1092.06
vn 0.11687 -0.956503 -0.267288
v 21.421 -74.239 1091.95
vn 0.0109653 -0.77353 -0.633665
v 21.4505 -74.0296 1091.55
vn 0.789641 0.356902 0.499087
v 60.657 -37.4512 1061.09
vn 0.774272 -0.19594 0.601756
v 58.219 -39.029 1065.26
vn -0.181739 -0.982997 0.0262263
v 59.2176 -40.5509 1060.76
vn 0.402342 0.906557 -0.127571
v 66.8642 -36.9388 1042.53
vn 0.126868 0.911737 -0.390691
v 66.814 -38.4857 1036.69
vn -0.621927 -0.781229 -0.0537402
v 61.7732 -40.5051 1046.5
vn -0.134101 0.818214 -0.559056
v 67.5314 -39.9851 1033.98
vn 0.851981 -0.523062 -0.0230986
v 34.7006 -57.4406 1087.77
vn 0.617962 0.150182 0.77173
v 29.4472 -61.7201 1097.73
vn 0.120723 0.574636 0.809456
v 28.5124 -61.9654 1098.31
vn -0.471299 -0.143519 0.870218
v 19.5194 -70.5984 1103.62
vn -0.41953 -0.445435 0.790938
v 19.4593 -71.4383 1103.28
vn -0.591256 -0.53177 0.606331
v 19.06 -71.7852 1102.73
vn -0.681554 -0.254925 0.685928
v 19.1492 -71.1873 1103.2
vn -0.901443 -0.25844 0.347288
v 18.8302 -71.4423 1102.65
vn -0.715519 -0.57622 0.394972
v 19.0339 -72.4467 1101.89
vn -0.764259 -0.607652 0.216027
v 18.9972 -72.6613 1101.42
vn -0.904984 -0.381871 0.187561
v 18.881 -72.4174 1101.58
vn -0.902962 -0.427677 -0.0418605
v 18.9076 -72.5981 1101
vn -0.997724 -0.0587792 -0.0330551
v 18.7694 -71.8954 1101.32
vn -0.991069 -0.132001 0.0189066
v 19.3035 -72.2937 1098.12
vn -0.806588 -0.590991 -0.0120688
v 19.5515 -72.9766 1098.78
vn 0.29628 -0.489203 -0.820304
v 22.8 -72.0805 1090.78
vn -0.0487843 -0.31088 -0.949196
v 22.1373 -72.8264 1090.87
vn -0.392575 -0.203613 -0.896899
v 21.8568 -72.8056 1090.95
vn 0.0666839 -0.420317 -0.904924
v 22.2581 -72.1156 1090.66
vn -0.259317 -0.422029 -0.868704
v 21.8042 -72.2815 1090.79
vn -0.291903 -0.574793 -0.764464
v 20.8251 -72.6109 1091.39
vn -0.810964 -0.580173 0.0757379
v 18.9914 -73.5326 1094.65
vn -0.958215 -0.238374 0.158118
v 18.9022 -72.9217 1095.73
vn -0.0116815 -0.516452 -0.856236
v 21.6787 -73.5741 1091.18
vn -0.39177 -0.234222 -0.889751
v 21.4427 -73.5157 1091.22
vn -0.24022 -0.561347 -0.79195
v 21.2777 -73.9365 1091.48
vn -0.285445 -0.842194 -0.457418
v 21.0233 -74.1341 1091.76
vn -0.60006 -0.391411 -0.697657
v 20.9086 -73.974 1091.68
vn -0.552139 -0.279881 -0.785372
v 20.7659 -73.1843 1091.66
vn -0.696433 -0.362503 -0.619332
v 20.2853 -73.5354 1092.25
vn -0.676427 -0.661657 -0.323507
v 19.5192 -73.9333 1093.62
vn 0.487623 -0.705336 0.514514
v 54.9459 -38.6666 1069.06
vn 0.779947 0.216411 0.587238
v 54.3759 -37.9395 1070.17
vn -0.481056 -0.862373 -0.157792
v 59.1328 -39.4163 1051.81
vn 0.0385174 0.805016 0.592002
v 23.3852 -64.1985 1100.76
vn -0.597265 0.173536 0.783045
v 19.3165 -68.9672 1103.45
vn -0.901385 0.0174448 0.432667
v 18.8402 -69.7105 1102.95
vn 0.255769 -0.508138 -0.822422
v 24.7914 -67.9793 1088.54
vn -0.334414 -0.152778 -0.92996
v 24.3479 -67.3198 1088.25
vn -0.136728 -0.253552 -0.95761
v 23.1249 -69.1355 1088.98
vn -0.423113 0.0500531 -0.904693
v 22.609 -68.4106 1089.1
vn -0.274666 -0.162491 -0.947711
v 22.0904 -69.9097 1089.31
vn -0.0270458 -0.453397 -0.890898
v 22.1506 -70.7049 1089.58
vn -0.0658995 -0.581267 -0.81104
v 21.5072 -71.2995 1090.03
vn -0.346593 -0.654938 -0.671512
v 19.8831 -71.6955 1090.64
vn -0.356962 -0.365172 -0.859784
v 19.7628 -71.2763 1090.42
vn -0.423207 -0.622628 -0.658202
v 20.0488 -72.6818 1091.82
vn -0.637142 -0.558099 -0.531578
v 19.284 -73.1482 1093
vn 0.741502 0.308792 0.59567
v 53.9017 -36.5407 1070.33
vn 0.780603 -0.114757 0.614402
v 52.4054 -37.8428 1072.46
vn 0.611201 -0.591544 0.525842
v 53.3414 -38.6543 1070.57
vn 0.710346 -0.470927 0.523103
v 52.5194 -38.6721 1071.79
vn 0.511875 -0.856468 0.0666761
v 49.3 -39.5979 1074.99
vn 0.797732 -0.210966 0.564905
v 49.5379 -39.0577 1076.02
vn 0.0895512 -0.994652 0.0514672
v 51.469 -39.177 1070.06
vn 0.557655 0.182939 0.809663
v 40.0831 -46.2765 1087.27
vn -0.547736 0.594187 -0.589005
v 62.7217 -37.6959 1039.68
vn -0.829797 0.115839 -0.545911
v 63.0049 -38.6445 1038.82
vn -0.216387 0.859577 0.462931
v 23.0065 -62.4182 1098.04
vn -0.0623334 0.711771 0.69964
v 20.104 -64.4947 1101.7
vn -0.469269 0.489367 0.735056
v 19.4903 -65.0871 1102.05
vn -0.951919 0.179324 0.248379
v 19.1016 -65.9909 1102.12
vn -0.712963 0.299693 -0.633931
v 23.0583 -65.7948 1089.43
vn -0.999806 -0.0028408 -0.0195123
v 18.1332 -70.1191 1093.54
vn -0.701046 -0.394183 -0.594268
v 19.3729 -71.3036 1090.71
vn -0.581516 0.0197728 -0.813294
v 19.4482 -70.6599 1090.47
vn -0.868468 0.112918 -0.482714
v 18.7563 -70.4332 1091.36
vn -0.898219 -0.348264 -0.268171
v 18.3822 -71.6531 1092.95
vn 0.742248 0.133649 0.656662
v 49.6508 -38.4965 1076.01
vn 0.556797 0.778995 0.288347
v 57.7913 -33.412 1060.21
vn 0.582119 0.288632 0.760151
v 41.3674 -42.8903 1085.35
vn 0.26753 -0.891148 -0.366446
v 46.8509 -40.5949 1073.04
vn -0.0479704 0.953155 -0.298653
v 60.3446 -34.3958 1047.32
vn -0.0955005 0.906885 -0.410413
v 62.1255 -36.1806 1042.22
vn -0.695452 0.441011 -0.567324
v 60.5471 -36.3491 1043.45
vn -0.468765 0.727837 -0.500513
v 60.5215 -35.6793 1044.12
vn -0.681764 -0.672103 -0.28892
v 57.0374 -37.3572 1050.09
vn -0.240173 0.613718 0.752109
v 33.2058 -51.0069 1091.17
vn -0.846886 -0.367661 -0.3842
v 60.375 -37.8306 1043.34
vn -0.819139 0.149942 -0.55365
v 60.7871 -37.3084 1042.56
vn 0.671913 -0.685139 -0.281277
v 37.1251 -50.8023 1081.76
vn 0.577634 -0.609466 -0.543038
v 34.0262 -54.5207 1082.44
vn -0.461001 0.796509 0.391219
v 25.1833 -60.0394 1095.33
vn -0.747444 0.663733 -0.028021
v 24.167 -60.4713 1093.64
vn -0.603129 0.778756 -0.172555
v 22.3721 -62.0397 1094.8
vn -0.360974 0.912076 0.194459
v 22.4606 -61.9942 1096.56
vn -0.336243 0.935645 -0.107281
v 21.1404 -62.4795 1096.62
vn -0.0189707 0.939392 0.34232
v 21.6809 -62.8398 1098.51
vn -0.155507 0.974856 0.159606
v 21.3869 -62.4458 1097.01
vn 0.0160372 0.995593 0.0923955
v 20.922 -62.4698 1097.22
vn 0.0394626 0.943521 0.328953
v 20.171 -62.6205 1098.68
vn -0.7535 0.615159 0.231986
v 19.4343 -63.0568 1099.1
vn -0.904067 0.329741 0.271909
v 19.2404 -64.3384 1100.77
vn -0.596062 0.665366 0.449441
v 19.4376 -63.7765 1100.57
vn -0.0981392 0.852216 0.513903
v 19.8682 -63.3837 1100.21
vn -0.905042 0.376048 0.198713
v 19.2447 -63.646 1099.74
vn -0.562048 0.77377 -0.292203
v 20.8698 -62.8031 1096.12
vn -0.987328 0.114897 0.109466
v 19.0315 -64.4033 1099.42
vn -0.745192 0.539301 -0.39223
v 22.3593 -63.6082 1092.61
vn 0.59248 0.663811 0.456424
v 53.0141 -34.3338 1069.53
vn 0.322418 0.836217 0.443607
v 51.2655 -33.9883 1070.82
vn 0.5691 0.546525 0.614358
v 49.9105 -35.6597 1074.13
vn 0.552472 0.447625 0.703141
v 44.3171 -38.9766 1081.28
vn 0.266394 0.96374 0.0155116
v 56.878 -32.4094 1057.09
vn 0.263385 0.619151 0.739784
v 42.4524 -39.6018 1082.93
vn 0.271513 0.453928 0.848664
v 39.8955 -43.2762 1086.39
vn -0.423949 0.772768 -0.472332
v 58.9251 -35.0593 1046.78
vn -0.661216 -0.644134 -0.384558
v 54.6785 -37.0345 1054.15
vn -0.705782 0.410228 -0.577567
v 58.8654 -35.9878 1045.74
vn -0.83173 -0.263492 -0.488669
v 58.1117 -36.6504 1046.8
vn 0.0143909 -0.469743 -0.882686
v 31.5118 -54.0621 1082.09
vn -0.834878 0.550216 0.0155115
v 26.8268 -56.7735 1090.98
vn -0.278915 0.958134 0.0646988
v 19.8991 -62.5465 1098.31
vn -0.403563 0.851433 0.334961
v 19.649 -62.8162 1098.95
vn -0.649696 0.755299 0.0861344
v 19.5667 -62.7638 1098.54
vn -0.808005 0.580826 0.0988413
v 19.3881 -62.9768 1098.61
vn -0.574511 0.787284 -0.223879
v 19.7428 -62.6431 1098.19
vn -0.801713 0.586832 -0.113515
v 19.341 -63.0311 1098.32
vn -0.917693 0.387434 0.0879465
v 19.1566 -63.3744 1098.6
vn -0.945757 0.3142 -0.082597
v 18.9421 -64.0289 1097.31
vn -0.750776 0.550108 -0.365673
v 19.1577 -64.2251 1096.16
vn 0.177764 0.815468 0.550828
v 44.7612 -36.2509 1078.5
vn -0.155351 0.680457 0.716131
v 38.6518 -41.8883 1085.38
vn -0.787927 -0.335982 -0.516031
v 53.5804 -35.0526 1053.42
vn 0.378842 -0.721383 -0.579729
v 36.5144 -48.0084 1078.16
vn 0.210292 0.952165 0.221717
v 50.9504 -32.2842 1066.8
vn -0.139512 0.965793 -0.218587
v 52.6342 -32.2158 1057.17
vn -0.207219 0.803921 0.557469
v 39.7014 -38.8991 1082.25
vn -0.446895 0.760091 -0.471748
v 53.0432 -33.0288 1054.7
vn -0.725691 0.472499 -0.500117
v 51.682 -32.9937 1056.35
vn -0.789414 0.181093 -0.586542
v 53.1673 -33.8769 1053.78
vn -0.831204 0.0195404 -0.555625
v 51.7406 -34.0565 1055.82
vn -0.519859 -0.692447 -0.500264
v 47.7793 -36.8709 1063.58
vn -0.535957 -0.45961 -0.708173
v 43.984 -39.6306 1070
vn -0.87372 0.217172 -0.435259
v 32.3706 -48.0124 1081.35
vn -0.277901 0.960092 -0.0315412
v 47.5108 -32.2378 1066.54
vn -0.109163 0.961215 0.253277
v 45.2747 -33.0933 1070.81
vn -0.102665 0.992918 -0.0597809
v 50.7728 -31.9804 1061.47
vn -0.437846 0.873956 -0.210929
v 48.4589 -32.2705 1063.69
vn -0.662237 0.683237 -0.307618
v 46.8862 -32.8797 1065.26
vn -0.325882 0.895709 0.302499
v 40.1729 -36.5818 1077.95
vn -0.447128 0.839209 -0.309523
v 51.4064 -32.517 1057.55
vn -0.838384 0.197414 -0.508075
v 48.7687 -33.8966 1060.46
vn -0.714392 0.581728 -0.388891
v 48.8935 -32.9898 1061.05
vn -0.819316 0.241285 -0.520099
v 45.0679 -34.793 1066.54
vn -0.524563 0.790615 0.31585
v 37.1505 -38.8769 1080.12
vn -0.815314 -0.181016 -0.549996
v 46.8983 -35.3432 1063.54
vn -0.773309 -0.139963 -0.618388
v 45.436 -36.2294 1065.82
vn -0.722019 -0.128682 -0.679801
v 42.3785 -36.8934 1069.44
vn -0.644845 0.666772 0.373617
v 34.619 -42.3597 1083.17
vn -0.553444 0.830248 -0.0662419
v 44.0571 -33.6116 1070.68
vn -0.782309 0.458145 -0.422014
v 41.034 -36.3782 1071.49
vn -0.715817 0.681851 -0.150617
v 38.5779 -37.5346 1075.54
vn -0.595466 0.799295 0.0809213
v 37.8312 -38.0092 1078.6
vn -0.815018 0.508464 -0.277867
v 37.8449 -38.3705 1075.83
vn -0.7697 0.63833 -0.00984337
v 36.109 -39.7338 1079.5
vn -0.800852 0.132085 -0.584114
v 36.5116 -40.8442 1076.24
vn -0.886454 0.423842 -0.185898
v 35.4437 -40.9106 1079
vn 0.0310637 -0.822606 0.567763
v 81.6922 -59.2453 1022.36
vn 0.596523 -0.526839 0.605476
v 70.027 -43.8029 1047.55
vn -0.101584 -0.97572 0.194038
v 63.6833 -41.467 1055.05
vn -0.859779 0.0357596 -0.509412
v 68.3513 -44.0223 1029.82
vn 0.648918 -0.501274 0.57239
v 54.3759 -37.9395 1070.17
vn 0.217866 -0.958505 0.183854
v 53.3414 -38.6543 1070.57
vn 0.369966 -0.913038 0.171718
v 52.5194 -38.6721 1071.79
vn 0.65889 -0.71962 0.219115
v 49.5379 -39.0577 1076.02
vn 0.84858 -0.519627 0.0994999
v 40.0831 -46.2765 1087.27
vn 0.0290377 -0.496561 -0.867516
v 34.0262 -54.5207 1082.44
vn -0.712545 0.0187629 -0.701376
v 31.5118 -54.0621 1082.09
vn -0.408721 -0.235709 -0.881696
v 31.5118 -54.0621 1082.09
vn 0.013927 -0.553243 -0.832903
v 36.5144 -48.0084 1078.16
vn -0.513585 -0.283049 -0.810008
v 36.5144 -48.0084 1078.16
vn 0.1873 -0.871514 -0.453191
v 43.984 -39.6306 1070
f 2//2 4//4 1//1
f 2//2 1//1 9//9
f 1//1 3//3 9//9
f 5//5 3//3 1//1
f 22//22 4//4 2//2
f 3//3 340//340 24//24
f 21//21 5//5 4//4
f 5//5 1//1 4//4
f 12//12 6//6 8//8
f 6//6 7//7 8//8
f 2//2 9//9 6//6
f 3//3 10//10 9//9
f 2//2 6//6 12//12
f 6//6 9//9 7//7
f 10//10 7//7 9//9
f 10//10 3//3 24//24
f 10//10 24//24 47//47
f 10//10 11//11 7//7
f 10//10 47//47 11//11
f 7//7 13//13 8//8
f 7//7 11//11 13//13
f 12//12 8//8 15//15
f 13//13 16//16 8//8
f 8//8 16//16 15//15
f 16//16 13//13 14//14
f 11//11 25//25 13//13
f 13//13 25//25 14//14
f 31//31 27//27 15//15
f 16//16 17//17 18//18
f 15//15 27//27 12//12
f 16//16 18//18 15//15
f 16//16 14//14 17//17
f 18//18 31//31 15//15
f 17//17 30//30 18//18
f 19//19 45//45 21//21
f 4//4 19//19 21//21
f 22//22 44//44 19//19
f 4//4 22//22 19//19
f 20//20 340//340 21//21
f 340//340 20//20 24//24
f 23//23 22//22 2//2
f 12//12 23//23 2//2
f 90//90 22//22 23//23
f 12//12 27//27 23//23
f 28//28 25//25 11//11
f 14//14 25//25 28//28
f 11//11 47//47 28//28
f 26//26 29//29 48//48
f 26//26 23//23 27//27
f 26//26 27//27 31//31
f 26//26 31//31 29//29
f 72//72 23//23 26//26
f 14//14 28//28 17//17
f 29//29 33//33 34//34
f 33//33 29//29 31//31
f 31//31 18//18 33//33
f 33//33 18//18 32//32
f 18//18 30//30 32//32
f 39//39 32//32 30//30
f 17//17 28//28 49//49
f 38//38 34//34 33//33
f 36//36 29//29 34//34
f 34//34 38//38 35//35
f 38//38 40//40 35//35
f 36//36 34//34 37//37
f 34//34 35//35 37//37
f 37//37 35//35 55//55
f 37//37 52//52 36//36
f 29//29 36//36 48//48
f 52//52 48//48 36//36
f 35//35 53//53 55//55
f 33//33 32//32 38//38
f 38//38 32//32 40//40
f 40//40 32//32 39//39
f 41//41 40//40 39//39
f 35//35 40//40 41//41
f 41//41 39//39 42//42
f 68//68 41//41 42//42
f 41//41 53//53 35//35
f 39//39 30//30 42//42
f 17//17 42//42 30//30
f 42//42 17//17 49//49
f 19//19 44//44 45//45
f 45//45 20//20 21//21
f 45//45 43//43 20//20
f 44//44 22//22 90//90
f 104//104 20//20 46//46
f 20//20 43//43 46//46
f 104//104 24//24 20//20
f 104//104 47//47 24//24
f 90//90 23//23 72//72
f 75//75 26//26 48//48
f 72//72 26//26 75//75
f 47//47 50//50 28//28
f 47//47 51//51 50//50
f 74//74 48//48 57//57
f 51//51 59//59 49//49
f 49//49 50//50 51//51
f 50//50 49//49 28//28
f 76//76 74//74 57//57
f 54//54 52//52 37//37
f 37//37 55//55 54//54
f 53//53 63//63 55//55
f 61//61 63//63 53//53
f 52//52 54//54 56//56
f 62//62 54//54 55//55
f 62//62 56//56 54//54
f 48//48 52//52 57//57
f 52//52 56//56 57//57
f 58//58 57//57 56//56
f 56//56 62//62 58//58
f 57//57 58//58 76//76
f 68//68 42//42 59//59
f 68//68 53//53 41//41
f 60//60 70//70 59//59
f 42//42 49//49 59//59
f 51//51 60//60 59//59
f 51//51 111//111 60//60
f 47//47 111//111 51//51
f 63//63 62//62 55//55
f 64//64 63//63 61//61
f 62//62 63//63 65//65
f 65//65 63//63 66//66
f 66//66 63//63 64//64
f 69//69 64//64 61//61
f 61//61 68//68 69//69
f 81//81 64//64 69//69
f 62//62 65//65 58//58
f 66//66 64//64 81//81
f 76//76 58//58 67//67
f 67//67 58//58 65//65
f 67//67 65//65 80//80
f 80//80 65//65 66//66
f 82//82 80//80 66//66
f 82//82 66//66 81//81
f 81//81 70//70 83//83
f 61//61 53//53 68//68
f 59//59 70//70 68//68
f 69//69 68//68 70//70
f 81//81 69//69 70//70
f 60//60 96//96 70//70
f 111//111 96//96 60//60
f 87//87 43//43 45//45
f 87//87 89//89 43//43
f 44//44 88//88 45//45
f 71//71 46//46 43//43
f 89//89 71//71 43//43
f 44//44 90//90 88//88
f 88//88 90//90 103//103
f 104//104 111//111 47//47
f 90//90 72//72 98//98
f 92//92 73//73 91//91
f 72//72 75//75 73//73
f 98//98 72//72 73//73
f 74//74 75//75 48//48
f 73//73 75//75 74//74
f 91//91 73//73 74//74
f 77//77 76//76 67//67
f 80//80 77//77 67//67
f 91//91 74//74 76//76
f 78//78 76//76 77//77
f 84//84 77//77 80//80
f 79//79 78//78 77//77
f 79//79 77//77 84//84
f 78//78 91//91 76//76
f 94//94 78//78 79//79
f 86//86 79//79 85//85
f 79//79 86//86 94//94
f 80//80 82//82 84//84
f 82//82 81//81 83//83
f 85//85 84//84 82//82
f 85//85 82//82 83//83
f 85//85 79//79 84//84
f 86//86 85//85 83//83
f 86//86 83//83 97//97
f 96//96 83//83 70//70
f 83//83 96//96 97//97
f 114//114 89//89 87//87
f 104//104 46//46 71//71
f 98//98 73//73 99//99
f 99//99 73//73 92//92
f 93//93 92//92 91//91
f 101//101 93//93 100//100
f 93//93 101//101 92//92
f 78//78 93//93 91//91
f 78//78 94//94 93//93
f 95//95 94//94 86//86
f 95//95 100//100 94//94
f 95//95 97//97 102//102
f 93//93 94//94 100//100
f 97//97 96//96 102//102
f 95//95 86//86 97//97
f 89//89 114//114 71//71
f 90//90 105//105 103//103
f 105//105 90//90 98//98
f 107//107 106//106 98//98
f 105//105 98//98 106//106
f 98//98 99//99 107//107
f 99//99 101//101 107//107
f 101//101 99//99 92//92
f 100//100 95//95 102//102
f 100//100 102//102 117//117
f 102//102 96//96 111//111
f 87//87 45//45 108//108
f 104//104 71//71 109//109
f 110//110 106//106 107//107
f 101//101 117//117 107//107
f 101//101 100//100 117//117
f 108//108 88//88 115//115
f 87//87 108//108 113//113
f 114//114 87//87 341//341
f 45//45 88//88 108//108
f 109//109 129//129 104//104
f 121//121 111//111 129//129
f 104//104 129//129 111//111
f 103//103 105//105 110//110
f 116//116 110//110 107//107
f 110//110 105//105 106//106
f 121//121 112//112 111//111
f 112//112 117//117 102//102
f 111//111 112//112 102//102
f 118//118 113//113 108//108
f 108//108 115//115 118//118
f 71//71 114//114 119//119
f 115//115 103//103 127//127
f 115//115 88//88 103//103
f 71//71 180//180 109//109
f 103//103 110//110 127//127
f 148//148 127//127 110//110
f 110//110 116//116 148//148
f 116//116 107//107 120//120
f 107//107 117//117 120//120
f 121//121 120//120 117//117
f 117//117 112//112 121//121
f 341//341 124//124 114//114
f 113//113 123//123 124//124
f 124//124 125//125 114//114
f 122//122 118//118 115//115
f 114//114 342//342 119//119
f 119//119 342//342 126//126
f 71//71 119//119 180//180
f 120//120 121//121 149//149
f 113//113 118//118 123//123
f 146//146 118//118 122//122
f 127//127 122//122 115//115
f 119//119 215//215 180//180
f 126//126 215//215 119//119
f 109//109 180//180 129//129
f 129//129 128//128 121//121
f 146//146 123//123 118//118
f 124//124 123//123 175//175
f 125//125 124//124 145//145
f 342//342 147//147 126//126
f 122//122 127//127 178//178
f 178//178 146//146 122//122
f 215//215 126//126 147//147
f 127//127 148//148 179//179
f 343//343 149//149 121//121
f 151//151 152//152 153//153
f 151//151 134//134 150//150
f 153//153 130//130 151//151
f 130//130 153//153 131//131
f 153//153 154//154 131//131
f 134//134 133//133 182//182
f 151//151 130//130 134//134
f 131//131 132//132 130//130
f 130//130 132//132 135//135
f 136//136 135//135 132//132
f 156//156 158//158 136//136
f 132//132 156//156 136//136
f 132//132 131//131 156//156
f 134//134 130//130 137//137
f 135//135 137//137 130//130
f 133//133 139//139 159//159
f 133//133 134//134 139//139
f 142//142 137//137 161//161
f 136//136 137//137 135//135
f 136//136 138//138 137//137
f 136//136 162//162 138//138
f 138//138 161//161 137//137
f 139//139 143//143 165//165
f 137//137 140//140 134//134
f 141//141 140//140 137//137
f 141//141 137//137 142//142
f 143//143 141//141 144//144
f 166//166 143//143 144//144
f 139//139 134//134 143//143
f 134//134 140//140 143//143
f 140//140 141//141 143//143
f 141//141 142//142 170//170
f 170//170 144//144 141//141
f 175//175 123//123 146//146
f 176//176 124//124 175//175
f 176//176 145//145 124//124
f 176//176 213//213 145//145
f 342//342 145//145 177//177
f 342//342 177//177 147//147
f 127//127 179//179 178//178
f 148//148 116//116 181//181
f 237//237 183//183 150//150
f 343//343 239//239 149//149
f 150//150 134//134 182//182
f 150//150 183//183 151//151
f 152//152 151//151 183//183
f 155//155 153//153 152//152
f 154//154 153//153 155//155
f 131//131 154//154 156//156
f 185//185 154//154 155//155
f 154//154 157//157 156//156
f 157//157 154//154 185//185
f 157//157 158//158 156//156
f 186//186 157//157 185//185
f 186//186 158//158 157//157
f 136//136 158//158 162//162
f 162//162 158//158 187//187
f 196//196 142//142 160//160
f 138//138 163//163 161//161
f 162//162 163//163 138//138
f 142//142 161//161 160//160
f 160//160 161//161 164//164
f 164//164 161//161 163//163
f 190//190 163//163 162//162
f 190//190 191//191 163//163
f 164//164 196//196 160//160
f 139//139 165//165 159//159
f 159//159 165//165 219//219
f 165//165 143//143 166//166
f 219//219 165//165 197//197
f 171//171 165//165 166//166
f 171//171 167//167 165//165
f 172//172 171//171 166//166
f 167//167 197//197 165//165
f 170//170 169//169 144//144
f 166//166 144//144 168//168
f 168//168 144//144 169//169
f 166//166 168//168 172//172
f 172//172 168//168 169//169
f 171//171 172//172 173//173
f 205//205 167//167 171//171
f 205//205 171//171 174//174
f 174//174 171//171 173//173
f 207//207 205//205 174//174
f 169//169 173//173 172//172
f 170//170 173//173 169//169
f 174//174 173//173 208//208
f 173//173 170//170 208//208
f 174//174 208//208 207//207
f 251//251 175//175 146//146
f 214//214 176//176 175//175
f 344//344 213//213 176//176
f 285//285 251//251 146//146
f 145//145 236//236 177//177
f 147//147 177//177 215//215
f 178//178 179//179 255//255
f 148//148 181//181 179//179
f 181//181 238//238 179//179
f 120//120 181//181 116//116
f 120//120 149//149 181//181
f 182//182 159//159 262//262
f 152//152 183//183 184//184
f 184//184 216//216 152//152
f 182//182 133//133 159//159
f 217//217 185//185 155//155
f 185//185 188//188 186//186
f 218//218 185//185 217//217
f 218//218 188//188 185//185
f 187//187 190//190 162//162
f 194//194 192//192 189//189
f 218//218 194//194 189//189
f 243//243 194//194 218//218
f 186//186 187//187 158//158
f 187//187 188//188 189//189
f 188//188 187//187 186//186
f 218//218 189//189 188//188
f 193//193 195//195 196//196
f 164//164 163//163 191//191
f 189//189 192//192 190//190
f 189//189 190//190 187//187
f 190//190 192//192 191//191
f 191//191 192//192 193//193
f 191//191 193//193 164//164
f 164//164 193//193 196//196
f 192//192 194//194 193//193
f 195//195 194//194 243//243
f 194//194 195//195 193//193
f 195//195 204//204 196//196
f 225//225 197//197 200//200
f 201//201 225//225 200//200
f 197//197 225//225 224//224
f 225//225 201//201 202//202
f 224//224 219//219 197//197
f 198//198 197//197 167//167
f 198//198 167//167 205//205
f 206//206 198//198 205//205
f 200//200 197//197 198//198
f 199//199 198//198 206//206
f 210//210 199//199 206//206
f 198//198 201//201 200//200
f 199//199 201//201 198//198
f 201//201 199//199 210//210
f 210//210 202//202 201//201
f 210//210 228//228 202//202
f 170//170 203//203 212//212
f 212//212 203//203 249//249
f 203//203 142//142 196//196
f 203//203 170//170 142//142
f 204//204 203//203 196//196
f 206//206 205//205 207//207
f 207//207 209//209 206//206
f 209//209 207//207 208//208
f 209//209 208//208 212//212
f 208//208 170//170 212//212
f 209//209 210//210 206//206
f 211//211 209//209 212//212
f 211//211 210//210 209//209
f 210//210 211//211 229//229
f 212//212 229//229 211//211
f 210//210 229//229 228//228
f 228//228 229//229 226//226
f 212//212 249//249 229//229
f 232//232 213//213 344//344
f 344//344 233//233 232//232
f 145//145 213//213 236//236
f 178//178 285//285 146//146
f 236//236 215//215 177//177
f 178//178 254//254 285//285
f 179//179 238//238 255//255
f 182//182 262//262 348//348
f 348//348 150//150 182//182
f 238//238 181//181 149//149
f 239//239 238//238 149//149
f 129//129 260//260 128//128
f 129//129 180//180 260//260
f 184//184 183//183 237//237
f 184//184 264//264 216//216
f 216//216 241//241 152//152
f 263//263 159//159 219//219
f 152//152 242//242 155//155
f 217//217 243//243 218//218
f 242//242 217//217 155//155
f 220//220 219//219 221//221
f 222//222 220//220 221//221
f 224//224 221//221 219//219
f 222//222 221//221 223//223
f 224//224 223//223 221//221
f 227//227 223//223 224//224
f 224//224 225//225 227//227
f 226//226 227//227 225//225
f 225//225 202//202 226//226
f 227//227 226//226 246//246
f 247//247 227//227 246//246
f 228//228 226//226 202//202
f 245//245 203//203 204//204
f 246//246 226//226 229//229
f 229//229 249//249 246//246
f 214//214 175//175 230//230
f 231//231 214//214 230//230
f 231//231 250//250 235//235
f 344//344 231//231 233//233
f 346//346 236//236 345//345
f 346//346 234//234 236//236
f 235//235 233//233 231//231
f 347//347 234//234 346//346
f 347//347 262//262 234//234
f 213//213 345//345 236//236
f 215//215 236//236 314//314
f 287//287 259//259 237//237
f 178//178 255//255 254//254
f 258//258 180//180 215//215
f 238//238 261//261 256//256
f 257//257 255//255 238//238
f 238//238 256//256 257//257
f 260//260 261//261 239//239
f 260//260 180//180 258//258
f 238//238 239//239 261//261
f 239//239 343//343 260//260
f 259//259 264//264 184//184
f 159//159 263//263 262//262
f 292//292 349//349 219//219
f 264//264 240//240 216//216
f 267//267 269//269 240//240
f 269//269 216//216 240//240
f 216//216 276//276 241//241
f 242//242 152//152 241//241
f 275//275 242//242 241//241
f 274//274 243//243 242//242
f 275//275 241//241 276//276
f 243//243 274//274 279//279
f 242//242 243//243 217//217
f 195//195 245//245 204//204
f 195//195 243//243 279//279
f 220//220 244//244 350//350
f 222//222 244//244 220//220
f 222//222 247//247 244//244
f 223//223 227//227 247//247
f 222//222 223//223 247//247
f 247//247 246//246 248//248
f 244//244 247//247 248//248
f 246//246 249//249 248//248
f 244//244 248//248 302//302
f 245//245 302//302 248//248
f 245//245 249//249 203//203
f 248//248 249//249 245//245
f 251//251 281//281 175//175
f 251//251 307//307 281//281
f 175//175 281//281 230//230
f 231//231 230//230 250//250
f 230//230 283//283 250//250
f 283//283 284//284 250//250
f 250//250 284//284 252//252
f 237//237 250//250 252//252
f 235//235 250//250 237//237
f 234//234 253//253 236//236
f 262//262 253//253 234//234
f 348//348 262//262 347//347
f 237//237 252//252 287//287
f 254//254 255//255 257//257
f 290//290 288//288 257//257
f 215//215 289//289 258//258
f 256//256 261//261 290//290
f 257//257 256//256 290//290
f 260//260 258//258 291//291
f 261//261 260//260 291//291
f 290//290 261//261 291//291
f 237//237 259//259 184//184
f 293//293 264//264 259//259
f 306//306 262//262 263//263
f 292//292 352//352 349//349
f 220//220 292//292 219//219
f 264//264 293//293 265//265
f 265//265 293//293 280//280
f 266//266 264//264 265//265
f 264//264 266//266 267//267
f 240//240 264//264 267//267
f 265//265 280//280 266//266
f 266//266 268//268 267//267
f 268//268 266//266 278//278
f 270//270 267//267 268//268
f 270//270 269//269 267//267
f 270//270 271//271 269//269
f 271//271 270//270 268//268
f 272//272 276//276 216//216
f 271//271 272//272 269//269
f 269//269 272//272 216//216
f 276//276 272//272 295//295
f 295//295 275//275 276//276
f 296//296 273//273 295//295
f 295//295 273//273 275//275
f 275//275 273//273 277//277
f 296//296 297//297 273//273
f 300//300 273//273 297//297
f 300//300 277//277 273//273
f 274//274 275//275 277//277
f 279//279 274//274 277//277
f 279//279 277//277 300//300
f 275//275 274//274 242//242
f 278//278 266//266 302//302
f 245//245 279//279 301//301
f 301//301 279//279 300//300
f 280//280 244//244 302//302
f 280//280 302//302 266//266
f 195//195 279//279 245//245
f 245//245 301//301 302//302
f 307//307 282//282 281//281
f 281//281 282//282 283//283
f 230//230 281//281 283//283
f 285//285 307//307 251//251
f 286//286 252//252 284//284
f 286//286 287//287 252//252
f 287//287 304//304 259//259
f 306//306 253//253 262//262
f 257//257 288//288 254//254
f 288//288 290//290 310//310
f 310//310 290//290 312//312
f 291//291 258//258 289//289
f 291//291 289//289 305//305
f 289//289 215//215 314//314
f 290//290 291//291 312//312
f 316//316 350//350 244//244
f 293//293 244//244 280//280
f 316//316 244//244 293//293
f 294//294 271//271 268//268
f 294//294 268//268 298//298
f 268//268 278//278 298//298
f 272//272 271//271 294//294
f 295//295 272//272 294//294
f 296//296 295//295 294//294
f 299//299 297//297 296//296
f 297//297 299//299 300//300
f 296//296 294//294 298//298
f 299//299 296//296 298//298
f 298//298 302//302 299//299
f 298//298 278//278 302//302
f 300//300 299//299 301//301
f 302//302 301//301 299//299
f 283//283 282//282 303//303
f 282//282 307//307 318//318
f 282//282 318//318 303//303
f 303//303 284//284 283//283
f 284//284 303//303 286//286
f 285//285 319//319 307//307
f 309//309 304//304 286//286
f 286//286 303//303 309//309
f 286//286 304//304 287//287
f 331//331 304//304 309//309
f 304//304 331//331 259//259
f 254//254 288//288 310//310
f 312//312 305//305 313//313
f 236//236 253//253 314//314
f 291//291 305//305 312//312
f 315//315 353//353 330//330
f 354//354 253//253 306//306
f 316//316 338//338 350//350
f 307//307 319//319 317//317
f 317//317 318//318 307//307
f 322//322 303//303 318//318
f 309//309 303//303 322//322
f 327//327 309//309 322//322
f 308//308 285//285 254//254
f 308//308 319//319 285//285
f 319//319 308//308 323//323
f 331//331 309//309 327//327
f 308//308 254//254 310//310
f 310//310 311//311 323//323
f 308//308 310//310 323//323
f 310//310 312//312 311//311
f 311//311 312//312 313//313
f 313//313 305//305 328//328
f 324//324 313//313 328//328
f 314//314 305//305 289//289
f 314//314 328//328 305//305
f 354//354 314//314 253//253
f 330//330 314//314 315//315
f 331//331 339//339 293//293
f 259//259 331//331 293//293
f 319//319 320//320 317//317
f 320//320 321//321 317//317
f 318//318 317//317 332//332
f 322//322 318//318 332//332
f 332//332 335//335 322//322
f 325//325 320//320 323//323
f 319//319 323//323 320//320
f 320//320 325//325 321//321
f 322//322 335//335 327//327
f 323//323 311//311 325//325
f 311//311 324//324 325//325
f 324//324 328//328 326//326
f 321//321 325//325 326//326
f 326//326 325//325 324//324
f 330//330 333//333 326//326
f 324//324 311//311 313//313
f 314//314 329//329 328//328
f 329//329 326//326 328//328
f 330//330 326//326 329//329
f 330//330 329//329 314//314
f 330//330 338//338 333//333
f 353//353 338//338 330//330
f 339//339 338//338 316//316
f 351//351 338//338 353//353
f 316//316 293//293 339//339
f 332//332 317//317 321//321
f 332//332 334//334 335//335
f 321//321 326//326 333//333
f 332//332 321//321 333//333
f 332//332 333//333 334//334
f 337//337 335//335 334//334
f 334//334 336//336 337//337
f 327//327 335//335 337//337
f 337//337 331//331 327//327
f 336//336 333//333 338//338
f 334//334 333//333 336//336
f 336//336 339//339 337//337
f 336//336 338//338 339//339
f 337//337 339//339 331//331
